<svg width="1460" height="428" viewBox="0 0 1460 428" fill="none" xmlns="http://www.w3.org/2000/svg">
<g opacity="0.01">
<path d="M171.85 159.341C171.875 162.198 171.731 165.053 171.421 167.892C171.226 169.838 170.788 171.751 170.116 173.588C169.68 174.822 168.932 175.924 167.945 176.787C167.142 177.454 166.13 177.821 165.084 177.826H108.819V357.966C108.821 359.102 108.422 360.202 107.691 361.074C106.681 362.155 105.387 362.932 103.955 363.318C101.665 364.011 99.3108 364.473 96.928 364.7C93.2686 365.08 89.5905 365.254 85.9114 365.219C82.2297 365.254 78.549 365.081 74.8871 364.7C72.5043 364.473 70.1503 364.01 67.8597 363.318C66.4286 362.936 65.1357 362.158 64.1313 361.074C63.3949 360.205 62.995 359.103 63.0035 357.966V177.826H6.7696C5.69798 177.848 4.65532 177.479 3.83899 176.787C2.89658 175.902 2.18102 174.805 1.75228 173.588C1.07516 171.752 0.634363 169.839 0.440407 167.892C0.123041 165.053 -0.0229839 162.198 0.00311744 159.341C-0.0236824 156.401 0.12233 153.461 0.440407 150.538C0.624593 148.562 1.06026 146.617 1.73693 144.751C2.15438 143.551 2.87888 142.48 3.83899 141.643C4.68067 140.996 5.72165 140.659 6.78494 140.689H165.045C166.078 140.687 167.084 141.022 167.907 141.643C168.906 142.459 169.657 143.535 170.078 144.751C170.754 146.618 171.192 148.562 171.382 150.538C171.706 153.461 171.863 156.4 171.85 159.341Z" fill="black"/>
<path d="M345.231 279.724C345.231 292.846 343.495 304.82 340.022 315.647C336.826 325.99 331.44 335.532 324.226 343.629C316.908 351.644 307.815 357.852 297.667 361.762C287.023 366.023 274.587 368.153 260.359 368.153C246.585 368.153 234.61 366.254 224.432 362.457C214.254 358.66 205.815 353.132 199.115 345.874C192.369 338.62 187.372 329.71 184.125 319.144C180.877 308.577 179.258 296.485 179.268 282.87C179.268 269.743 181.033 257.74 184.562 246.863C187.784 236.513 193.2 226.971 200.442 218.881C207.758 210.914 216.817 204.728 226.918 200.801C237.505 196.551 249.915 194.421 264.149 194.41C278.024 194.41 290.056 196.284 300.244 200.03C310.432 203.776 318.848 209.273 325.492 216.521C332.141 223.775 337.087 232.697 340.329 243.29C343.572 253.882 345.206 266.027 345.231 279.724ZM300.283 281.45C300.326 274.414 299.707 267.389 298.434 260.469C297.417 254.589 295.338 248.942 292.296 243.801C289.503 239.174 285.534 235.361 280.789 232.746C275.986 230.104 269.941 228.781 262.653 228.776C256.173 228.776 250.503 229.956 245.644 232.318C240.804 234.66 236.673 238.235 233.669 242.679C230.351 247.682 227.97 253.24 226.641 259.087C224.968 266.259 224.159 273.605 224.233 280.969C224.178 288.007 224.816 295.034 226.135 301.95C227.203 307.815 229.279 313.453 232.273 318.617C235.016 323.262 239 327.059 243.78 329.588C248.639 332.174 254.654 333.469 261.824 333.474C268.422 333.474 274.15 332.294 279.009 329.932C283.832 327.602 287.96 324.06 290.984 319.655C294.31 314.697 296.665 309.159 297.927 303.331C299.538 296.15 300.315 288.808 300.244 281.45H300.283Z" fill="black"/>
<path d="M529.153 279.724C529.153 292.846 527.416 304.82 523.943 315.647C520.75 325.99 515.367 335.532 508.155 343.629C500.838 351.642 491.747 357.85 481.603 361.762C470.955 366.023 458.516 368.153 444.288 368.153C430.514 368.153 418.541 366.254 408.369 362.457C398.196 358.66 389.757 353.132 383.052 345.874C376.326 338.62 371.345 329.71 368.107 319.144C364.87 308.577 363.249 296.485 363.244 282.87C363.244 269.743 365.008 257.74 368.537 246.863C371.762 236.514 377.177 226.973 384.418 218.881C391.733 210.918 400.788 204.732 410.885 200.801C421.472 196.551 433.88 194.421 448.108 194.41C461.994 194.41 474.013 196.284 484.165 200.03C494.318 203.776 502.736 209.273 509.421 216.521C516.07 223.775 521.015 232.697 524.258 243.29C527.501 253.882 529.132 266.027 529.153 279.724ZM484.204 281.45C484.254 274.415 483.645 267.391 482.386 260.469C481.362 254.591 479.283 248.945 476.248 243.801C473.454 239.175 469.485 235.362 464.741 232.746C459.938 230.104 453.893 228.781 446.605 228.776C440.13 228.776 434.463 229.956 429.604 232.318C424.762 234.658 420.63 238.233 417.628 242.679C414.305 247.679 411.921 253.239 410.594 259.087C408.962 266.254 408.189 273.589 408.292 280.938C408.24 287.977 408.88 295.004 410.202 301.919C411.27 307.785 413.346 313.423 416.34 318.586C419.086 323.229 423.068 327.026 427.847 329.558C432.711 332.143 438.728 333.439 445.899 333.444C452.491 333.444 458.217 332.263 463.076 329.901C467.9 327.574 472.029 324.031 475.051 319.625C478.377 314.666 480.732 309.128 481.994 303.301C483.566 296.125 484.307 288.793 484.204 281.45Z" fill="black"/>
<path d="M696.112 214.956C696.112 220.484 695.475 224.571 694.202 227.218C692.928 229.875 691.363 231.196 689.514 231.196H671.279C673.78 233.89 675.646 237.107 676.741 240.61C677.849 244.159 678.405 247.857 678.39 251.574C678.39 260.552 676.887 268.526 673.879 275.494C671.003 282.285 666.577 288.315 660.953 293.108C654.996 298.071 648.087 301.776 640.646 303.996C632.064 306.563 623.139 307.814 614.178 307.706C609.37 307.73 604.579 307.119 599.932 305.889C595.421 304.683 591.951 303.273 589.522 301.659C588.051 303.272 586.798 305.069 585.793 307.004C584.677 309.135 584.11 311.51 584.144 313.914C584.144 317.258 585.619 319.994 588.57 322.121C591.521 324.249 595.656 325.43 600.975 325.664L638.636 327.046C646.603 327.256 654.508 328.504 662.149 330.756C668.481 332.594 674.388 335.652 679.533 339.758C684.129 343.519 687.802 348.274 690.274 353.661C692.844 359.482 694.116 365.789 694.002 372.146C694.033 379.605 692.31 386.968 688.969 393.646C685.425 400.62 680.246 406.643 673.872 411.206C667.161 416.154 658.746 420.068 648.624 422.949C638.503 425.83 626.673 427.271 613.135 427.271C599.94 427.271 588.688 426.235 579.38 424.163C570.071 422.091 562.435 419.213 556.472 415.528C550.514 411.843 546.166 407.437 543.43 402.312C540.697 397.118 539.297 391.332 539.357 385.469C539.346 381.775 539.852 378.098 540.86 374.543C541.858 371.059 543.316 367.721 545.195 364.618C547.19 361.341 549.55 358.298 552.23 355.547C555.172 352.523 558.365 349.749 561.773 347.256C557.033 344.825 553.063 341.133 550.305 336.59C547.548 332.048 546.111 326.833 546.154 321.526C546.069 315.037 547.682 308.638 550.833 302.957C554.032 297.29 558.142 292.183 563.001 287.84C558.855 283.67 555.555 278.745 553.281 273.333C550.856 267.699 549.642 260.675 549.637 252.261C549.637 243.282 551.227 235.253 554.408 228.172C557.455 221.28 561.998 215.145 567.711 210.207C573.661 205.156 580.565 201.34 588.018 198.984C596.43 196.311 605.218 194.998 614.048 195.098C618.718 195.087 623.385 195.375 628.018 195.96C632.204 196.485 636.348 197.294 640.423 198.381H689.522C691.486 198.381 693.082 199.648 694.294 202.198C695.506 204.748 696.112 208.97 696.112 214.956ZM650.297 374.375C650.297 369.194 648.212 365.221 644.044 362.457C639.876 359.693 634.15 358.197 626.867 357.968L595.805 357.105C593.185 358.943 590.77 361.055 588.601 363.404C586.974 365.193 585.521 367.131 584.259 369.191C583.24 370.839 582.506 372.646 582.088 374.535C581.742 376.296 581.569 378.086 581.574 379.88C581.574 385.637 584.494 390.012 590.335 393.005C596.175 395.998 604.42 397.494 615.068 397.494C621.656 397.494 627.207 396.832 631.723 395.509C635.67 394.457 639.379 392.669 642.656 390.241C645.215 388.329 647.245 385.802 648.555 382.896C649.711 380.203 650.304 377.304 650.297 374.375ZM640.055 251.398C640.055 243.117 637.753 236.67 633.15 232.059C628.547 227.447 622.011 225.144 613.542 225.149C609.671 225.067 605.827 225.804 602.264 227.31C599.167 228.641 596.409 230.648 594.194 233.181C592.021 235.701 590.396 238.641 589.422 241.816C588.383 245.143 587.865 248.609 587.888 252.093C587.888 259.926 590.189 266.116 594.792 270.661C599.395 275.207 605.816 277.479 614.056 277.479C617.975 277.569 621.872 276.865 625.509 275.41C628.595 274.134 631.353 272.185 633.58 269.707C635.741 267.255 637.392 264.4 638.436 261.308C639.527 258.118 640.074 254.768 640.055 251.398Z" fill="black"/>
<path d="M849.877 358.846C849.914 359.573 849.775 360.299 849.474 360.963C849.172 361.627 848.716 362.21 848.143 362.663C846.987 363.59 845.164 364.254 842.673 364.656C839.021 365.126 835.339 365.328 831.656 365.259C827.857 365.341 824.056 365.139 820.287 364.656C817.919 364.249 816.241 363.584 815.254 362.663C814.75 362.168 814.358 361.571 814.104 360.913C813.85 360.254 813.74 359.55 813.781 358.846V346.569C807.619 353.213 800.223 358.608 792.001 362.457C783.484 366.333 774.208 368.279 764.843 368.153C757.176 368.23 749.54 367.152 742.197 364.954C735.659 363.011 729.581 359.781 724.321 355.456C719.254 351.215 715.244 345.863 712.607 339.819C709.83 333.604 708.441 326.351 708.441 318.059C708.441 309.081 710.206 301.28 713.735 294.658C717.417 287.874 722.872 282.206 729.523 278.25C736.519 273.954 745.235 270.763 755.668 268.676C766.102 266.589 778.19 265.551 791.932 265.561H807.038V256.239C807.094 251.964 806.589 247.701 805.534 243.557C804.69 240.184 803.022 237.071 800.678 234.494C798.2 231.948 795.086 230.104 791.656 229.15C787.109 227.9 782.402 227.319 777.686 227.424C771.098 227.326 764.529 228.13 758.161 229.814C752.976 231.23 747.899 233.017 742.971 235.158C738.573 237.123 734.901 238.905 731.955 240.503C729.009 242.101 726.608 242.908 724.751 242.923C723.515 242.935 722.315 242.507 721.368 241.717C720.29 240.775 719.456 239.589 718.936 238.258C718.223 236.482 717.728 234.625 717.463 232.73C717.101 230.33 716.926 227.905 716.941 225.477C716.863 222.632 717.154 219.788 717.808 217.018C718.412 214.899 719.547 212.968 721.107 211.406C722.723 209.731 725.557 207.889 729.607 205.878C734.201 203.648 738.958 201.769 743.838 200.259C749.664 198.443 755.608 197.03 761.629 196.029C768.194 194.924 774.841 194.375 781.499 194.387C793.651 194.387 804.036 195.568 812.654 197.93C821.271 200.292 828.36 203.924 833.92 208.825C839.605 213.926 843.8 220.46 846.064 227.737C848.621 235.459 849.9 244.621 849.9 255.223L849.877 358.846ZM807.015 292.864H790.352C784.298 292.763 778.25 293.275 772.3 294.391C767.329 295.409 763.281 296.964 760.156 299.056C757.235 300.903 754.866 303.498 753.298 306.569C751.8 309.724 751.057 313.181 751.126 316.67C751.126 323.124 753.172 328.191 757.264 331.871C761.355 335.551 767.053 337.394 774.356 337.399C780.322 337.443 786.181 335.827 791.273 332.734C796.423 329.629 801.66 325.081 806.984 319.09L807.015 292.864Z" fill="black"/>
<path d="M985.765 218.583C985.765 222.731 985.65 226.129 985.42 228.776C985.287 230.877 984.937 232.96 984.376 234.99C984.099 236.187 983.465 237.273 982.558 238.105C981.724 238.708 980.711 239.014 979.681 238.976C978.611 238.952 977.552 238.745 976.551 238.365C975.401 237.968 974.096 237.533 972.654 237.075C971.212 236.617 969.586 236.181 967.875 235.777C965.997 235.358 964.076 235.156 962.152 235.174C959.65 235.187 957.174 235.685 954.864 236.64C952.139 237.797 949.596 239.34 947.315 241.221C944.31 243.69 941.577 246.47 939.16 249.512C935.872 253.59 932.829 257.858 930.046 262.293V358.311C930.073 359.42 929.703 360.503 929.002 361.365C928.039 362.399 926.807 363.147 925.443 363.526C923.272 364.196 921.034 364.629 918.768 364.816C911.723 365.397 904.641 365.397 897.595 364.816C895.327 364.63 893.086 364.197 890.913 363.526C889.549 363.144 888.318 362.397 887.353 361.365C886.656 360.501 886.286 359.42 886.31 358.311V204.252C886.281 203.17 886.584 202.105 887.177 201.198C887.977 200.18 889.068 199.427 890.307 199.037C892.186 198.376 894.138 197.941 896.122 197.739C899.087 197.425 902.069 197.282 905.052 197.312C908.126 197.281 911.199 197.424 914.257 197.739C916.191 197.912 918.091 198.348 919.904 199.037C921.044 199.473 922.037 200.222 922.765 201.198C923.358 202.105 923.661 203.17 923.632 204.252V223.423C927.095 218.407 930.926 213.653 935.094 209.199C938.186 205.886 941.618 202.905 945.335 200.305C948.292 198.247 951.575 196.699 955.048 195.723C958.217 194.869 961.485 194.432 964.768 194.426C966.302 194.426 967.89 194.517 969.632 194.685C971.436 194.874 973.229 195.162 975.002 195.548C976.65 195.898 978.273 196.359 979.858 196.93C980.972 197.288 982.012 197.844 982.927 198.571C983.523 199.097 983.996 199.746 984.315 200.472C984.665 201.394 984.922 202.348 985.082 203.32C985.373 205.122 985.548 206.94 985.604 208.764C985.716 211.167 985.77 214.439 985.765 218.583Z" fill="black"/>
<path d="M1052.56 152.09C1052.56 160.839 1050.77 166.884 1047.19 170.223C1043.61 173.562 1036.96 175.231 1027.25 175.231C1017.41 175.231 1010.79 173.62 1007.38 170.398C1003.96 167.176 1002.26 161.361 1002.25 152.952C1002.25 144.203 1004.02 138.13 1007.55 134.735C1011.07 131.34 1017.76 129.64 1027.59 129.635C1037.31 129.635 1043.9 131.277 1047.38 134.56C1050.85 137.843 1052.58 143.686 1052.56 152.09ZM1049.27 358.311C1049.3 359.42 1048.93 360.501 1048.23 361.365C1047.26 362.397 1046.03 363.145 1044.67 363.526C1042.5 364.196 1040.25 364.629 1037.99 364.816C1030.94 365.397 1023.86 365.397 1016.82 364.816C1014.55 364.63 1012.31 364.198 1010.14 363.526C1008.77 363.147 1007.54 362.399 1006.58 361.365C1005.88 360.503 1005.51 359.42 1005.54 358.311V204.619C1005.51 203.51 1005.88 202.427 1006.58 201.564C1007.55 200.52 1008.78 199.746 1010.14 199.32C1012.3 198.575 1014.54 198.083 1016.82 197.854C1023.86 197.162 1030.95 197.162 1037.99 197.854C1040.26 198.085 1042.51 198.577 1044.67 199.32C1046.03 199.748 1047.26 200.522 1048.23 201.564C1048.93 202.429 1049.3 203.51 1049.27 204.619V358.311Z" fill="black"/>
<path d="M1233.61 358.311C1233.64 359.419 1233.27 360.5 1232.58 361.365C1231.64 362.384 1230.44 363.131 1229.1 363.526C1226.93 364.208 1224.69 364.641 1222.42 364.816C1219.59 365.106 1216.09 365.252 1211.93 365.252C1207.65 365.252 1204.09 365.106 1201.26 364.816C1198.99 364.641 1196.74 364.208 1194.57 363.526C1193.24 363.133 1192.04 362.386 1191.1 361.365C1190.4 360.501 1190.03 359.42 1190.05 358.311V270.402C1190.05 262.919 1189.51 257.046 1188.41 252.78C1187.47 248.879 1185.85 245.17 1183.63 241.816C1181.6 238.808 1178.82 236.369 1175.57 234.731C1171.99 233.004 1168.04 232.146 1164.06 232.227C1158.51 232.227 1152.9 234.242 1147.23 238.274C1141.56 242.305 1135.67 248.179 1129.53 255.895V358.311C1129.56 359.42 1129.19 360.501 1128.49 361.365C1127.52 362.397 1126.29 363.144 1124.93 363.526C1122.76 364.196 1120.52 364.629 1118.25 364.816C1111.2 365.397 1104.12 365.397 1097.07 364.816C1094.81 364.629 1092.57 364.196 1090.39 363.526C1089.03 363.145 1087.8 362.398 1086.84 361.365C1086.14 360.503 1085.77 359.42 1085.8 358.311V204.252C1085.77 203.17 1086.07 202.105 1086.66 201.198C1087.46 200.178 1088.55 199.425 1089.79 199.037C1091.64 198.386 1093.57 197.953 1095.52 197.747C1098.49 197.433 1101.48 197.29 1104.46 197.319C1107.54 197.289 1110.61 197.432 1113.67 197.747C1115.6 197.918 1117.5 198.355 1119.31 199.045C1120.45 199.48 1121.44 200.23 1122.18 201.206C1122.77 202.113 1123.07 203.178 1123.04 204.26V222.049C1131.59 212.836 1140.29 205.927 1149.13 201.32C1157.65 196.797 1167.15 194.425 1176.81 194.41C1187.33 194.41 1196.21 196.138 1203.45 199.595C1210.36 202.79 1216.38 207.624 1220.97 213.674C1225.56 219.893 1228.84 226.973 1230.61 234.487C1232.57 242.427 1233.55 251.984 1233.55 263.156L1233.61 358.311Z" fill="black"/>
<path d="M1460 0L1448.1 59.2019L1388.58 118.396V153.914L1341.02 189.44C1341.25 189.44 1342.62 186.048 1345.11 179.263C1347.81 171.571 1349.8 163.648 1351.05 155.594C1352.54 146.55 1351.51 137.276 1348.08 128.772L1269.67 189.44L1329.51 112.846C1326.04 111.614 1321.15 111.184 1314.83 111.555C1308.51 111.927 1303.17 112.296 1298.83 112.662C1293.95 113.114 1289.11 113.856 1284.33 114.884C1279 115.989 1275.46 116.79 1273.73 117.289C1272 117.788 1270.63 118.157 1269.64 118.396L1305.33 71.0591H1341.02L1400.5 11.8648L1460 0Z" fill="black"/>
</g>
</svg>
