<svg width="529" height="260" viewBox="0 0 529 260" fill="none" xmlns="http://www.w3.org/2000/svg">
<path d="M521.592 9.47886V253.629H6.4637V9.47886H521.592ZM522.073 9H6V254.091H522.073V9Z" fill="#3C3C3C"/>
<path d="M7.12979 16.4968H5.5498V8.3562H13.7245V9.92957H7.12979V16.4968Z" fill="#868686"/>
<path d="M523.221 16.4968H521.641V9.92957H515.046V8.3562H523.221V16.4968Z" fill="#868686"/>
<path d="M13.7245 255.02H5.5498V246.88H7.12979V253.447H13.7245V255.02Z" fill="#868686"/>
<path d="M523.221 255.02H515.046V253.447H521.641V246.88H523.221V255.02Z" fill="#868686"/>
<path d="M498 197H31V198H498V197Z" fill="#2F2F2F"/>
<path d="M498 162H31V163H498V162Z" fill="#2F2F2F"/>
<path d="M498 128H31V129H498V128Z" fill="#2F2F2F"/>
<path d="M498 94H31V95H498V94Z" fill="#2F2F2F"/>
<path d="M498 59H31V60H498V59Z" fill="#2F2F2F"/>
<path d="M66.376 39V28.328H67.56V37.88H72.968V28.328H74.152V37.88H75.368V41.24H74.248V39H66.376ZM81.6098 36.776L82.5698 37.304C82.3458 37.7307 82.0738 38.088 81.7538 38.376C81.1458 38.92 80.4098 39.192 79.5458 39.192C78.6498 39.192 77.8764 38.904 77.2258 38.328C76.5858 37.7413 76.2658 36.872 76.2658 35.72C76.2658 34.7067 76.5538 33.8693 77.1298 33.208C77.7164 32.536 78.5004 32.2 79.4818 32.2C80.5911 32.2 81.4284 32.6053 81.9938 33.416C82.4418 34.056 82.6498 34.888 82.6178 35.912H77.4498C77.4604 36.584 77.6684 37.128 78.0738 37.544C78.4791 37.96 78.9751 38.168 79.5618 38.168C80.0844 38.168 80.5378 38.008 80.9218 37.688C81.2204 37.432 81.4498 37.128 81.6098 36.776ZM77.5298 34.952H81.4338C81.3378 34.4293 81.1084 34.0133 80.7458 33.704C80.3938 33.384 79.9724 33.224 79.4818 33.224C79.0018 33.224 78.5751 33.3893 78.2018 33.72C77.8391 34.04 77.6151 34.4507 77.5298 34.952ZM84.3849 39V32.36H85.5369V35.08H88.6729V32.36H89.8249V39H88.6729V36.136H85.5369V39H84.3849ZM91.9943 39V32.36H93.1463V34.904H94.3303C95.2476 34.904 95.9196 35.1227 96.3463 35.56C96.6876 35.9013 96.8583 36.3653 96.8583 36.952C96.8583 37.5707 96.6609 38.0667 96.2663 38.44C95.8716 38.8133 95.2209 39 94.3143 39H91.9943ZM93.1463 37.976H94.2183C94.6983 37.976 95.0396 37.9173 95.2423 37.8C95.5303 37.608 95.6743 37.3253 95.6743 36.952C95.6743 36.568 95.5356 36.2907 95.2583 36.12C95.0663 35.992 94.7249 35.928 94.2343 35.928H93.1463V37.976ZM97.6583 39V32.36H98.8103V39H97.6583Z" fill="#E9EAF5"/>
<path d="M154.464 28.328H160.96V39H159.776V29.448H155.648V35.176C155.648 35.6773 155.643 36.056 155.632 36.312C155.621 36.5573 155.536 36.9093 155.376 37.368C155.227 37.816 154.997 38.1787 154.688 38.456C154.208 38.8827 153.6 39.096 152.864 39.096C152.693 39.096 152.48 39.064 152.224 39V37.88C152.437 37.944 152.635 37.976 152.816 37.976C153.232 37.976 153.579 37.8373 153.856 37.56C154.048 37.368 154.192 37.096 154.288 36.744C154.384 36.3813 154.437 36.0773 154.448 35.832C154.459 35.5867 154.464 35.208 154.464 34.696V28.328ZM163.432 32.36H164.584V36.744L169.128 31.848V39H167.976V34.568L163.432 39.464V32.36ZM171.787 32.36H176.459V37.944H177.451V40.76H176.395V39H171.339V40.76H170.283V37.944C170.837 37.9333 171.248 37.6453 171.515 37.08C171.696 36.7067 171.787 36.12 171.787 35.32V32.36ZM175.307 37.944V33.416H172.939V35.912C172.939 36.7973 172.672 37.4747 172.139 37.944H175.307ZM178.666 39V32.36H179.818V34.904H181.002C181.919 34.904 182.591 35.1227 183.018 35.56C183.359 35.9013 183.53 36.3653 183.53 36.952C183.53 37.5707 183.333 38.0667 182.938 38.44C182.543 38.8133 181.893 39 180.986 39H178.666ZM179.818 37.976H180.89C181.37 37.976 181.711 37.9173 181.914 37.8C182.202 37.608 182.346 37.3253 182.346 36.952C182.346 36.568 182.207 36.2907 181.93 36.12C181.738 35.992 181.397 35.928 180.906 35.928H179.818V37.976ZM184.33 39V32.36H185.482V39H184.33Z" fill="#E9EAF5"/>
<path d="M54 27H42V39H54V27Z" fill="url(#paint0_linear)"/>
<path d="M141 27H129V39H141V27Z" fill="url(#paint1_linear)"/>
<path d="M126.132 216.328H133.972V227H132.34V217.864H127.764V227H126.132V216.328ZM140.97 224.728L142.282 225.464C141.983 225.997 141.604 226.408 141.146 226.696C140.623 227.037 139.962 227.208 139.162 227.208C138.223 227.208 137.466 226.92 136.89 226.344C136.228 225.683 135.898 224.824 135.898 223.768C135.898 222.659 136.255 221.736 136.97 221C137.578 220.392 138.33 220.088 139.226 220.088C140.1 220.088 140.82 220.381 141.386 220.968C142.015 221.619 142.33 222.568 142.33 223.816V224.008H137.498C137.54 224.573 137.732 225.027 138.074 225.368C138.362 225.656 138.762 225.8 139.274 225.8C139.69 225.8 140.047 225.688 140.346 225.464C140.591 225.272 140.799 225.027 140.97 224.728ZM137.61 222.728H140.73C140.666 222.355 140.506 222.051 140.25 221.816C139.972 221.56 139.62 221.432 139.194 221.432C138.746 221.432 138.378 221.576 138.09 221.864C137.855 222.077 137.695 222.365 137.61 222.728ZM145.537 226.216V230.664H143.969V220.264H145.537V221C146.049 220.392 146.715 220.088 147.537 220.088C148.454 220.088 149.227 220.413 149.857 221.064C150.497 221.704 150.817 222.547 150.817 223.592C150.817 224.669 150.486 225.544 149.825 226.216C149.163 226.877 148.406 227.208 147.553 227.208C146.753 227.208 146.081 226.877 145.537 226.216ZM147.345 221.496C146.811 221.496 146.358 221.688 145.985 222.072C145.622 222.445 145.441 222.979 145.441 223.672C145.441 224.344 145.622 224.867 145.985 225.24C146.358 225.613 146.811 225.8 147.345 225.8C147.899 225.8 148.347 225.592 148.689 225.176C149.041 224.76 149.217 224.253 149.217 223.656C149.217 223.048 149.041 222.536 148.689 222.12C148.347 221.704 147.899 221.496 147.345 221.496ZM152.453 220.264H155.093C155.765 220.264 156.277 220.397 156.629 220.664C157.045 220.995 157.253 221.427 157.253 221.96C157.253 222.568 156.986 223.005 156.453 223.272C156.794 223.336 157.098 223.485 157.365 223.72C157.717 224.04 157.893 224.472 157.893 225.016C157.893 225.667 157.648 226.179 157.157 226.552C156.752 226.851 156.234 227 155.605 227H152.453V220.264ZM154.021 222.888H154.821C155.098 222.888 155.306 222.84 155.445 222.744C155.648 222.616 155.749 222.435 155.749 222.2C155.749 221.976 155.658 221.8 155.477 221.672C155.349 221.587 155.12 221.544 154.789 221.544H154.021V222.888ZM154.021 225.72H155.189C155.541 225.72 155.813 225.656 156.005 225.528C156.218 225.389 156.325 225.192 156.325 224.936C156.325 224.659 156.224 224.461 156.021 224.344C155.84 224.227 155.578 224.168 155.237 224.168H154.021V225.72ZM159.531 227V220.264H161.099V222.648H161.995C162.283 222.648 162.518 222.659 162.699 222.68C162.88 222.691 163.099 222.749 163.355 222.856C163.611 222.963 163.835 223.123 164.027 223.336C164.379 223.731 164.555 224.221 164.555 224.808C164.555 225.48 164.352 226.019 163.947 226.424C163.766 226.605 163.547 226.744 163.291 226.84C163.046 226.925 162.838 226.973 162.667 226.984C162.507 226.995 162.278 227 161.979 227H159.531ZM161.099 225.656H161.819C162.203 225.656 162.475 225.608 162.635 225.512C162.87 225.341 162.987 225.112 162.987 224.824C162.987 224.525 162.875 224.301 162.651 224.152C162.48 224.045 162.208 223.992 161.835 223.992H161.099V225.656ZM165.259 227V220.264H166.827V227H165.259ZM168.812 220.264H170.38V224.088L174.988 219.656V227H173.42V223.08L168.812 227.512V220.264ZM169.324 217.352L170.604 216.984C170.807 217.677 171.244 218.024 171.916 218.024C172.578 218.024 173.015 217.677 173.228 216.984L174.508 217.352C174.338 217.96 173.991 218.429 173.468 218.76C172.956 219.08 172.439 219.24 171.916 219.24C171.394 219.24 170.871 219.08 170.348 218.76C169.836 218.429 169.495 217.96 169.324 217.352ZM179.935 227L181.567 219.656L184.351 224.792L187.135 219.656L188.767 227H187.167L186.495 223.624L184.351 227.512L182.207 223.624L181.535 227H179.935ZM194.704 224.728L196.016 225.464C195.718 225.997 195.339 226.408 194.88 226.696C194.358 227.037 193.696 227.208 192.896 227.208C191.958 227.208 191.2 226.92 190.624 226.344C189.963 225.683 189.632 224.824 189.632 223.768C189.632 222.659 189.99 221.736 190.704 221C191.312 220.392 192.064 220.088 192.96 220.088C193.835 220.088 194.555 220.381 195.12 220.968C195.75 221.619 196.064 222.568 196.064 223.816V224.008H191.232C191.275 224.573 191.467 225.027 191.808 225.368C192.096 225.656 192.496 225.8 193.008 225.8C193.424 225.8 193.782 225.688 194.08 225.464C194.326 225.272 194.534 225.027 194.704 224.728ZM191.344 222.728H194.464C194.4 222.355 194.24 222.051 193.984 221.816C193.707 221.56 193.355 221.432 192.928 221.432C192.48 221.432 192.112 221.576 191.824 221.864C191.59 222.077 191.43 222.365 191.344 222.728ZM202.919 220.568V222.328C202.354 221.773 201.719 221.496 201.015 221.496C200.418 221.496 199.922 221.693 199.527 222.088C199.143 222.472 198.951 222.989 198.951 223.64C198.951 224.312 199.154 224.851 199.559 225.256C199.943 225.619 200.418 225.8 200.983 225.8C201.762 225.8 202.407 225.512 202.919 224.936V226.68C202.354 227.032 201.671 227.208 200.871 227.208C199.794 227.208 198.94 226.877 198.311 226.216C197.671 225.555 197.351 224.712 197.351 223.688C197.351 222.632 197.692 221.763 198.375 221.08C199.036 220.419 199.938 220.088 201.079 220.088C201.73 220.088 202.343 220.248 202.919 220.568ZM203.558 227L205.67 224.328C205.254 224.264 204.896 224.093 204.598 223.816C204.224 223.453 204.038 222.989 204.038 222.424C204.038 221.784 204.246 221.267 204.662 220.872C205.088 220.467 205.739 220.264 206.614 220.264H209.126V227H207.558V224.52H207.238L205.398 227H203.558ZM207.558 223.24V221.608H206.646C206.272 221.608 206 221.656 205.83 221.752C205.574 221.912 205.446 222.136 205.446 222.424C205.446 222.712 205.552 222.931 205.766 223.08C205.926 223.187 206.214 223.24 206.63 223.24H207.558ZM211.109 227V220.264H212.677V225.56H215.333V220.264H216.901V225.56H218.021V228.92H216.581V227H211.109Z" fill="#E9EAF5"/>
<path d="M168 59H108V198H168V59Z" fill="#2B2B2B"/>
<path d="M168 59H108V198H168V59Z" fill="url(#paint2_linear)"/>
<path d="M235 128H175V198H235V128Z" fill="url(#paint3_linear)"/>
<path d="M318.546 216.328H326.386V227H324.754V217.864H320.178V227H318.546V216.328ZM327.8 227L329.912 224.328C329.496 224.264 329.139 224.093 328.84 223.816C328.467 223.453 328.28 222.989 328.28 222.424C328.28 221.784 328.488 221.267 328.904 220.872C329.331 220.467 329.981 220.264 330.856 220.264H333.368V227H331.8V224.52H331.48L329.64 227H327.8ZM331.8 223.24V221.608H330.888C330.515 221.608 330.243 221.656 330.072 221.752C329.816 221.912 329.688 222.136 329.688 222.424C329.688 222.712 329.795 222.931 330.008 223.08C330.168 223.187 330.456 223.24 330.872 223.24H331.8ZM339.991 221.704H338.023V227H336.455V221.704H334.487V220.264H339.991V221.704ZM341.117 227V220.264H342.685V222.648H343.581C343.869 222.648 344.104 222.659 344.285 222.68C344.466 222.691 344.685 222.749 344.941 222.856C345.197 222.963 345.421 223.123 345.613 223.336C345.965 223.731 346.141 224.221 346.141 224.808C346.141 225.48 345.938 226.019 345.533 226.424C345.352 226.605 345.133 226.744 344.877 226.84C344.632 226.925 344.424 226.973 344.253 226.984C344.093 226.995 343.864 227 343.565 227H341.117ZM342.685 225.656H343.405C343.789 225.656 344.061 225.608 344.221 225.512C344.456 225.341 344.573 225.112 344.573 224.824C344.573 224.525 344.461 224.301 344.237 224.152C344.066 224.045 343.794 223.992 343.421 223.992H342.685V225.656ZM346.845 227V220.264H348.413V227H346.845ZM350.398 220.264H351.966V224.088L356.574 219.656V227H355.006V223.08L350.398 227.512V220.264ZM350.91 217.352L352.19 216.984C352.393 217.677 352.83 218.024 353.502 218.024C354.164 218.024 354.601 217.677 354.814 216.984L356.094 217.352C355.924 217.96 355.577 218.429 355.054 218.76C354.542 219.08 354.025 219.24 353.502 219.24C352.98 219.24 352.457 219.08 351.934 218.76C351.422 218.429 351.081 217.96 350.91 217.352ZM361.521 227L363.153 219.656L365.937 224.792L368.721 219.656L370.353 227H368.753L368.081 223.624L365.937 227.512L363.793 223.624L363.121 227H361.521ZM376.29 224.728L377.602 225.464C377.303 225.997 376.925 226.408 376.466 226.696C375.943 227.037 375.282 227.208 374.482 227.208C373.543 227.208 372.786 226.92 372.21 226.344C371.549 225.683 371.218 224.824 371.218 223.768C371.218 222.659 371.575 221.736 372.29 221C372.898 220.392 373.65 220.088 374.546 220.088C375.421 220.088 376.141 220.381 376.706 220.968C377.335 221.619 377.65 222.568 377.65 223.816V224.008H372.818C372.861 224.573 373.053 225.027 373.394 225.368C373.682 225.656 374.082 225.8 374.594 225.8C375.01 225.8 375.367 225.688 375.666 225.464C375.911 225.272 376.119 225.027 376.29 224.728ZM372.93 222.728H376.05C375.986 222.355 375.826 222.051 375.57 221.816C375.293 221.56 374.941 221.432 374.514 221.432C374.066 221.432 373.698 221.576 373.41 221.864C373.175 222.077 373.015 222.365 372.93 222.728ZM384.505 220.568V222.328C383.94 221.773 383.305 221.496 382.601 221.496C382.004 221.496 381.508 221.693 381.113 222.088C380.729 222.472 380.537 222.989 380.537 223.64C380.537 224.312 380.74 224.851 381.145 225.256C381.529 225.619 382.004 225.8 382.569 225.8C383.348 225.8 383.993 225.512 384.505 224.936V226.68C383.94 227.032 383.257 227.208 382.457 227.208C381.38 227.208 380.526 226.877 379.897 226.216C379.257 225.555 378.937 224.712 378.937 223.688C378.937 222.632 379.278 221.763 379.961 221.08C380.622 220.419 381.524 220.088 382.665 220.088C383.316 220.088 383.929 220.248 384.505 220.568ZM385.144 227L387.256 224.328C386.84 224.264 386.482 224.093 386.184 223.816C385.81 223.453 385.624 222.989 385.624 222.424C385.624 221.784 385.832 221.267 386.248 220.872C386.674 220.467 387.325 220.264 388.2 220.264H390.712V227H389.144V224.52H388.824L386.984 227H385.144ZM389.144 223.24V221.608H388.232C387.858 221.608 387.586 221.656 387.416 221.752C387.16 221.912 387.032 222.136 387.032 222.424C387.032 222.712 387.138 222.931 387.352 223.08C387.512 223.187 387.8 223.24 388.216 223.24H389.144ZM392.695 227V220.264H394.263V225.56H396.919V220.264H398.487V225.56H399.607V228.92H398.167V227H392.695Z" fill="#E9EAF5"/>
<path d="M422 59H362V198H422V59Z" fill="#2B2B2B"/>
<path opacity="0.5" d="M355 59H295V197H355V59Z" fill="#2B2B2B"/>
<path d="M422 59H362V198H422V59Z" fill="url(#paint4_linear)"/>
<path d="M355 128H295V198H355V128Z" fill="url(#paint5_linear)"/>
<defs>
<linearGradient id="paint0_linear" x1="51.3103" y1="45.6" x2="40.1234" y2="24.2819" gradientUnits="userSpaceOnUse">
<stop stop-color="#F9C367"/>
<stop offset="1" stop-color="#FFFAF2"/>
</linearGradient>
<linearGradient id="paint1_linear" x1="143" y1="26.5683" x2="138.1" y2="44.5503" gradientUnits="userSpaceOnUse">
<stop stop-color="#FFC807"/>
<stop offset="1" stop-color="#FFED8B"/>
</linearGradient>
<linearGradient id="paint2_linear" x1="154.552" y1="274.45" x2="0.041198" y2="147.354" gradientUnits="userSpaceOnUse">
<stop stop-color="#F9C367"/>
<stop offset="1" stop-color="#FFFAF2"/>
</linearGradient>
<linearGradient id="paint3_linear" x1="245" y1="125.482" x2="212.466" y2="227.823" gradientUnits="userSpaceOnUse">
<stop stop-color="#FFC807"/>
<stop offset="1" stop-color="#FFED8B"/>
</linearGradient>
<linearGradient id="paint4_linear" x1="432" y1="54" x2="331" y2="214" gradientUnits="userSpaceOnUse">
<stop stop-color="#FFC807"/>
<stop offset="1" stop-color="#FFED8B"/>
</linearGradient>
<linearGradient id="paint5_linear" x1="341.552" y1="236.5" x2="270.925" y2="121.139" gradientUnits="userSpaceOnUse">
<stop stop-color="#F9C367"/>
<stop offset="1" stop-color="#FFFAF2"/>
</linearGradient>
</defs>
</svg>
