<svg width="525" height="260" viewBox="0 0 525 260" fill="none" xmlns="http://www.w3.org/2000/svg">
<path d="M522.517 9.47868V253.538H5.46543V9.47868H522.517ZM523 9H5V254H523V9Z" fill="#3C3C3C"/>
<path d="M6.35294 15H5V8H12V9.35292H6.35294V15Z" fill="#868686"/>
<path d="M524 15H522.647V9.35292H517V8H524V15Z" fill="#868686"/>
<path d="M12 255H5V248H6.35294V253.647H12V255Z" fill="#868686"/>
<path d="M524 255H517V253.647H522.647V248H524V255Z" fill="#868686"/>
<path d="M494 207H35V208H494V207Z" fill="#303645"/>
<path d="M494 172H35V173H494V172Z" fill="#303645"/>
<path d="M494 138H35V139H494V138Z" fill="#303645"/>
<path d="M494 104H35V105H494V104Z" fill="#303645"/>
<path d="M494 69H35V70H494V69Z" fill="#303645"/>
<path opacity="0.5" d="M109 69H49V207H109V69Z" fill="#343A48"/>
<path d="M176 161H116V208H176V161Z" fill="url(#paint0_linear)"/>
<path d="M109 70H49V208H109V70Z" fill="url(#paint1_linear)"/>
<path d="M74.7557 222.166V223.846C73.9904 223.155 73.1457 222.81 72.2217 222.81C71.2137 222.81 70.3924 223.146 69.7577 223.818C69.1324 224.481 68.8197 225.33 68.8197 226.366C68.8197 227.365 69.1417 228.2 69.7857 228.872C70.4297 229.535 71.2464 229.866 72.2357 229.866C73.1597 229.866 73.9997 229.507 74.7557 228.788V230.482C73.9717 230.949 73.1177 231.182 72.1937 231.182C70.8964 231.182 69.7951 230.753 68.8897 229.894C67.8911 228.961 67.3917 227.785 67.3917 226.366C67.3917 224.873 67.8911 223.655 68.8897 222.712C69.7484 221.9 70.8731 221.494 72.2637 221.494C73.2251 221.494 74.0557 221.718 74.7557 222.166ZM80.3294 226.366H78.6074V231H77.2354V226.366H75.5134V225.106H80.3294V226.366ZM81.7519 225.834C82.3586 225.246 83.1099 224.952 84.0059 224.952C84.9019 224.952 85.6486 225.246 86.2459 225.834C86.8526 226.413 87.1559 227.155 87.1559 228.06C87.1559 228.956 86.8526 229.703 86.2459 230.3C85.6486 230.888 84.9019 231.182 84.0059 231.182C83.1099 231.182 82.3586 230.888 81.7519 230.3C81.1546 229.703 80.8559 228.956 80.8559 228.06C80.8559 227.155 81.1546 226.413 81.7519 225.834ZM82.7319 229.446C83.0492 229.782 83.4739 229.95 84.0059 229.95C84.5379 229.95 84.9626 229.782 85.2799 229.446C85.5972 229.101 85.7559 228.643 85.7559 228.074C85.7559 227.449 85.5832 226.977 85.2379 226.66C84.9019 226.343 84.4912 226.184 84.0059 226.184C83.5206 226.184 83.1052 226.343 82.7599 226.66C82.4239 226.977 82.2559 227.449 82.2559 228.074C82.2559 228.643 82.4146 229.101 82.7319 229.446ZM88.5877 225.106H89.9597V228.452L93.9917 224.574V231H92.6197V227.57L88.5877 231.448V225.106ZM95.0524 231L96.4804 224.574L98.9164 229.068L101.352 224.574L102.78 231H101.38L100.792 228.046L98.9164 231.448L97.0404 228.046L96.4524 231H95.0524ZM104.434 225.834C105.04 225.246 105.792 224.952 106.688 224.952C107.584 224.952 108.33 225.246 108.928 225.834C109.534 226.413 109.838 227.155 109.838 228.06C109.838 228.956 109.534 229.703 108.928 230.3C108.33 230.888 107.584 231.182 106.688 231.182C105.792 231.182 105.04 230.888 104.434 230.3C103.836 229.703 103.538 228.956 103.538 228.06C103.538 227.155 103.836 226.413 104.434 225.834ZM105.414 229.446C105.731 229.782 106.156 229.95 106.688 229.95C107.22 229.95 107.644 229.782 107.962 229.446C108.279 229.101 108.438 228.643 108.438 228.074C108.438 227.449 108.265 226.977 107.92 226.66C107.584 226.343 107.173 226.184 106.688 226.184C106.202 226.184 105.787 226.343 105.442 226.66C105.106 226.977 104.938 227.449 104.938 228.074C104.938 228.643 105.096 229.101 105.414 229.446ZM115.833 225.372V226.912C115.339 226.427 114.783 226.184 114.167 226.184C113.645 226.184 113.211 226.357 112.865 226.702C112.529 227.038 112.361 227.491 112.361 228.06C112.361 228.648 112.539 229.119 112.893 229.474C113.229 229.791 113.645 229.95 114.139 229.95C114.821 229.95 115.385 229.698 115.833 229.194V230.72C115.339 231.028 114.741 231.182 114.041 231.182C113.099 231.182 112.352 230.893 111.801 230.314C111.241 229.735 110.961 228.998 110.961 228.102C110.961 227.178 111.26 226.417 111.857 225.82C112.436 225.241 113.225 224.952 114.223 224.952C114.793 224.952 115.329 225.092 115.833 225.372ZM121.345 226.366H119.623V231H118.251V226.366H116.529V225.106H121.345V226.366ZM122.33 231V225.106H123.702V227.192H124.486C124.738 227.192 124.943 227.201 125.102 227.22C125.261 227.229 125.452 227.281 125.676 227.374C125.9 227.467 126.096 227.607 126.264 227.794C126.572 228.139 126.726 228.569 126.726 229.082C126.726 229.67 126.549 230.141 126.194 230.496C126.035 230.655 125.844 230.776 125.62 230.86C125.405 230.935 125.223 230.977 125.074 230.986C124.934 230.995 124.733 231 124.472 231H122.33ZM123.702 229.824H124.332C124.668 229.824 124.906 229.782 125.046 229.698C125.251 229.549 125.354 229.348 125.354 229.096C125.354 228.835 125.256 228.639 125.06 228.508C124.911 228.415 124.673 228.368 124.346 228.368H123.702V229.824ZM136.047 225.106V231H134.675V226.366H132.939V228.704C132.939 229.432 132.752 229.997 132.379 230.398C131.903 230.93 131.259 231.131 130.447 231V229.74C130.848 229.833 131.17 229.745 131.413 229.474C131.553 229.306 131.623 229.049 131.623 228.704V225.106H136.047ZM137.779 225.106H139.151V228.452L143.183 224.574V231H141.811V227.57L137.779 231.448V225.106ZM145.42 225.106H149.844V229.74H150.74V232.68H149.48V231H145.364V232.68H144.104V229.74C144.58 229.712 144.939 229.455 145.182 228.97C145.341 228.625 145.42 228.107 145.42 227.416V225.106ZM148.472 229.74V226.366H146.736V227.934C146.736 228.783 146.507 229.385 146.05 229.74H148.472ZM156.036 225.792V225.106H157.408V231H156.036V230.384C155.579 230.916 154.991 231.182 154.272 231.182C153.404 231.182 152.709 230.874 152.186 230.258C151.673 229.642 151.416 228.905 151.416 228.046C151.416 227.113 151.692 226.366 152.242 225.806C152.802 225.237 153.484 224.952 154.286 224.952C155.024 224.952 155.607 225.232 156.036 225.792ZM154.454 226.184C153.969 226.184 153.572 226.366 153.264 226.73C152.966 227.094 152.816 227.542 152.816 228.074C152.816 228.597 152.966 229.04 153.264 229.404C153.572 229.768 153.969 229.95 154.454 229.95C154.921 229.95 155.313 229.787 155.63 229.46C155.957 229.133 156.12 228.676 156.12 228.088C156.12 227.481 155.957 227.015 155.63 226.688C155.313 226.352 154.921 226.184 154.454 226.184Z" fill="#E9EAF5"/>
<path d="M243.403 221.662H250.263V231H248.835V223.006H244.831V231H243.403V221.662ZM252.845 225.834C253.451 225.246 254.203 224.952 255.099 224.952C255.995 224.952 256.741 225.246 257.339 225.834C257.945 226.413 258.249 227.155 258.249 228.06C258.249 228.956 257.945 229.703 257.339 230.3C256.741 230.888 255.995 231.182 255.099 231.182C254.203 231.182 253.451 230.888 252.845 230.3C252.247 229.703 251.949 228.956 251.949 228.06C251.949 227.155 252.247 226.413 252.845 225.834ZM253.825 229.446C254.142 229.782 254.567 229.95 255.099 229.95C255.631 229.95 256.055 229.782 256.373 229.446C256.69 229.101 256.849 228.643 256.849 228.074C256.849 227.449 256.676 226.977 256.331 226.66C255.995 226.343 255.584 226.184 255.099 226.184C254.613 226.184 254.198 226.343 253.853 226.66C253.517 226.977 253.349 227.449 253.349 228.074C253.349 228.643 253.507 229.101 253.825 229.446ZM259.681 225.106H261.053V227.206L263.013 225.106H264.833L262.257 227.682L264.973 231H263.237L261.277 228.578L261.053 228.802V231H259.681V225.106ZM270.186 225.792V225.106H271.558V231H270.186V230.384C269.729 230.916 269.141 231.182 268.422 231.182C267.554 231.182 266.859 230.874 266.336 230.258C265.823 229.642 265.566 228.905 265.566 228.046C265.566 227.113 265.841 226.366 266.392 225.806C266.952 225.237 267.633 224.952 268.436 224.952C269.173 224.952 269.757 225.232 270.186 225.792ZM268.604 226.184C268.119 226.184 267.722 226.366 267.414 226.73C267.115 227.094 266.966 227.542 266.966 228.074C266.966 228.597 267.115 229.04 267.414 229.404C267.722 229.768 268.119 229.95 268.604 229.95C269.071 229.95 269.463 229.787 269.78 229.46C270.107 229.133 270.27 228.676 270.27 228.088C270.27 227.481 270.107 227.015 269.78 226.688C269.463 226.352 269.071 226.184 268.604 226.184ZM274.096 226.632L273.214 225.862C273.438 225.591 273.736 225.372 274.11 225.204C274.502 225.036 274.964 224.952 275.496 224.952C276.112 224.952 276.611 225.087 276.994 225.358C277.404 225.657 277.61 226.058 277.61 226.562C277.61 226.889 277.526 227.159 277.358 227.374C277.218 227.561 277.031 227.701 276.798 227.794C277.152 227.869 277.437 228.013 277.652 228.228C277.904 228.48 278.03 228.807 278.03 229.208C278.03 229.74 277.862 230.174 277.526 230.51C277.078 230.958 276.387 231.182 275.454 231.182C274.828 231.182 274.315 231.065 273.914 230.832C273.494 230.589 273.186 230.239 272.99 229.782L274.082 229.222C274.212 229.502 274.385 229.707 274.6 229.838C274.833 229.987 275.127 230.062 275.482 230.062C275.911 230.062 276.224 229.964 276.42 229.768C276.56 229.609 276.63 229.437 276.63 229.25C276.63 229.054 276.569 228.895 276.448 228.774C276.289 228.606 275.962 228.522 275.468 228.522H274.852V227.402H275.37C275.668 227.402 275.892 227.351 276.042 227.248C276.21 227.117 276.294 226.945 276.294 226.73C276.294 226.506 276.21 226.338 276.042 226.226C275.902 226.123 275.682 226.072 275.384 226.072C275.104 226.072 274.847 226.128 274.614 226.24C274.418 226.333 274.245 226.464 274.096 226.632ZM279.464 231V225.106H280.836V227.192H281.62C281.872 227.192 282.077 227.201 282.236 227.22C282.394 227.229 282.586 227.281 282.81 227.374C283.034 227.467 283.23 227.607 283.398 227.794C283.706 228.139 283.86 228.569 283.86 229.082C283.86 229.67 283.682 230.141 283.328 230.496C283.169 230.655 282.978 230.776 282.754 230.86C282.539 230.935 282.357 230.977 282.208 230.986C282.068 230.995 281.867 231 281.606 231H279.464ZM280.836 229.824H281.466C281.802 229.824 282.04 229.782 282.18 229.698C282.385 229.549 282.488 229.348 282.488 229.096C282.488 228.835 282.39 228.639 282.194 228.508C282.044 228.415 281.806 228.368 281.48 228.368H280.836V229.824ZM284.476 231V225.106H285.848V231H284.476Z" fill="#E9EAF5"/>
<path d="M396.163 222.88C397.087 221.956 398.245 221.494 399.635 221.494C401.026 221.494 402.183 221.956 403.107 222.88C404.031 223.804 404.493 224.957 404.493 226.338C404.493 227.719 404.031 228.872 403.107 229.796C402.183 230.72 401.026 231.182 399.635 231.182C398.245 231.182 397.087 230.72 396.163 229.796C395.239 228.872 394.777 227.719 394.777 226.338C394.777 224.957 395.239 223.804 396.163 222.88ZM397.171 228.886C397.815 229.539 398.637 229.866 399.635 229.866C400.634 229.866 401.455 229.539 402.099 228.886C402.743 228.223 403.065 227.374 403.065 226.338C403.065 225.302 402.743 224.457 402.099 223.804C401.455 223.141 400.634 222.81 399.635 222.81C398.637 222.81 397.815 223.141 397.171 223.804C396.527 224.457 396.205 225.302 396.205 226.338C396.205 227.374 396.527 228.223 397.171 228.886ZM405.25 231L407.854 227.808L405.754 225.106H407.378L408.68 226.828L409.996 225.106H411.676L409.506 227.808L412.026 231H410.374L408.68 228.802L406.93 231H405.25ZM412.979 225.106H415.289C415.877 225.106 416.325 225.223 416.633 225.456C416.997 225.745 417.179 226.123 417.179 226.59C417.179 227.122 416.946 227.505 416.479 227.738C416.778 227.794 417.044 227.925 417.277 228.13C417.585 228.41 417.739 228.788 417.739 229.264C417.739 229.833 417.525 230.281 417.095 230.608C416.741 230.869 416.288 231 415.737 231H412.979V225.106ZM414.351 227.402H415.051C415.294 227.402 415.476 227.36 415.597 227.276C415.775 227.164 415.863 227.005 415.863 226.8C415.863 226.604 415.784 226.45 415.625 226.338C415.513 226.263 415.313 226.226 415.023 226.226H414.351V227.402ZM414.351 229.88H415.373C415.681 229.88 415.919 229.824 416.087 229.712C416.274 229.591 416.367 229.418 416.367 229.194C416.367 228.951 416.279 228.779 416.101 228.676C415.943 228.573 415.714 228.522 415.415 228.522H414.351V229.88ZM423.485 225.792V225.106H424.857V231H423.485V230.384C423.027 230.916 422.439 231.182 421.721 231.182C420.853 231.182 420.157 230.874 419.635 230.258C419.121 229.642 418.865 228.905 418.865 228.046C418.865 227.113 419.14 226.366 419.691 225.806C420.251 225.237 420.932 224.952 421.735 224.952C422.472 224.952 423.055 225.232 423.485 225.792ZM421.903 226.184C421.417 226.184 421.021 226.366 420.713 226.73C420.414 227.094 420.265 227.542 420.265 228.074C420.265 228.597 420.414 229.04 420.713 229.404C421.021 229.768 421.417 229.95 421.903 229.95C422.369 229.95 422.761 229.787 423.079 229.46C423.405 229.133 423.569 228.676 423.569 228.088C423.569 227.481 423.405 227.015 423.079 226.688C422.761 226.352 422.369 226.184 421.903 226.184ZM430.657 226.366H428.935V231H427.563V226.366H425.841V225.106H430.657V226.366ZM431.641 231V225.106H433.013V227.192H433.797C434.049 227.192 434.255 227.201 434.413 227.22C434.572 227.229 434.763 227.281 434.987 227.374C435.211 227.467 435.407 227.607 435.575 227.794C435.883 228.139 436.037 228.569 436.037 229.082C436.037 229.67 435.86 230.141 435.505 230.496C435.347 230.655 435.155 230.776 434.931 230.86C434.717 230.935 434.535 230.977 434.385 230.986C434.245 230.995 434.045 231 433.783 231H431.641ZM433.013 229.824H433.643C433.979 229.824 434.217 229.782 434.357 229.698C434.563 229.549 434.665 229.348 434.665 229.096C434.665 228.835 434.567 228.639 434.371 228.508C434.222 228.415 433.984 228.368 433.657 228.368H433.013V229.824ZM436.653 231V225.106H438.025V231H436.653Z" fill="#E9EAF5"/>
<path opacity="0.5" d="M261 69H201V207H261V69Z" fill="#343A48"/>
<path d="M328 104H268V208H328V104Z" fill="url(#paint2_linear)"/>
<path d="M261 188H201V208H261V188Z" fill="url(#paint3_linear)"/>
<path opacity="0.5" d="M413 69H353V207H413V69Z" fill="#343A48"/>
<path opacity="0.5" d="M480 70H420V208H480V70Z" fill="#2B2B2B"/>
<path d="M480 85H420V208H480V85Z" fill="url(#paint4_linear)"/>
<path d="M413 148H353V208H413V148Z" fill="url(#paint5_linear)"/>
<path d="M50.3819 39V28.328H55.6779V29.448H51.5659V32.76H53.0059C55.4592 32.76 56.6859 33.7627 56.6859 35.768C56.6859 36.7707 56.3712 37.56 55.7419 38.136C55.1232 38.712 54.2859 39 53.2299 39H50.3819ZM51.5659 33.88V37.88H52.9419C53.8485 37.88 54.5045 37.6827 54.9099 37.288C55.2832 36.936 55.4699 36.4293 55.4699 35.768C55.4699 35 55.1819 34.4613 54.6059 34.152C54.2752 33.9707 53.6779 33.88 52.8139 33.88H51.5659ZM58.5782 39V32.36H59.7302V34.904H60.9142C61.8316 34.904 62.5036 35.1227 62.9302 35.56C63.2716 35.9013 63.4422 36.3653 63.4422 36.952C63.4422 37.5707 63.2449 38.0667 62.8502 38.44C62.4556 38.8133 61.8049 39 60.8982 39H58.5782ZM59.7302 37.976H60.8022C61.2822 37.976 61.6236 37.9173 61.8262 37.8C62.1142 37.608 62.2582 37.3253 62.2582 36.952C62.2582 36.568 62.1196 36.2907 61.8422 36.12C61.6502 35.992 61.3089 35.928 60.8182 35.928H59.7302V37.976ZM64.2422 39V32.36H65.3942V39H64.2422ZM72.5866 32.36V39H71.4346V33.416H69.0666V36.408C69.0666 37.272 68.8959 37.912 68.5546 38.328C68.1706 38.7973 67.6373 39.032 66.9546 39.032C66.8693 39.032 66.7519 39.0213 66.6026 39V37.944C66.7093 37.9653 66.7946 37.976 66.8586 37.976C67.2319 37.976 67.5093 37.832 67.6906 37.544C67.8399 37.3093 67.9146 36.9307 67.9146 36.408V32.36H72.5866ZM80.3817 38.2C79.7204 38.8613 78.8831 39.192 77.8697 39.192C76.8564 39.192 76.0137 38.8613 75.3417 38.2C74.6804 37.5387 74.3497 36.7067 74.3497 35.704C74.3497 34.6907 74.6804 33.8533 75.3417 33.192C76.0137 32.5307 76.8564 32.2 77.8697 32.2C78.8831 32.2 79.7204 32.5307 80.3817 33.192C81.0537 33.8533 81.3897 34.6907 81.3897 35.704C81.3897 36.7067 81.0537 37.5387 80.3817 38.2ZM79.5177 33.88C79.0697 33.4427 78.5204 33.224 77.8697 33.224C77.2191 33.224 76.6644 33.448 76.2057 33.896C75.7577 34.3333 75.5337 34.936 75.5337 35.704C75.5337 36.472 75.7631 37.0747 76.2217 37.512C76.6804 37.9493 77.2297 38.168 77.8697 38.168C78.5097 38.168 79.0591 37.9493 79.5177 37.512C79.9764 37.0747 80.2057 36.472 80.2057 35.704C80.2057 34.9253 79.9764 34.3173 79.5177 33.88Z" fill="#E9EAF5"/>
<path d="M139.64 29.208V30.68C139.213 30.2533 138.749 29.9227 138.248 29.688C137.64 29.4107 137.026 29.272 136.408 29.272C135.181 29.272 134.157 29.704 133.336 30.568C132.525 31.4213 132.12 32.472 132.12 33.72C132.12 35.064 132.562 36.1253 133.448 36.904C134.344 37.6827 135.336 38.072 136.424 38.072C137.106 38.072 137.768 37.9067 138.408 37.576C138.856 37.352 139.266 37.0533 139.64 36.68V38.152C138.669 38.8453 137.597 39.192 136.424 39.192C134.845 39.192 133.528 38.664 132.472 37.608C131.426 36.552 130.904 35.2507 130.904 33.704C130.904 32.1147 131.432 30.792 132.488 29.736C133.554 28.68 134.888 28.152 136.488 28.152C137.661 28.152 138.712 28.504 139.64 29.208ZM145.544 33.416H143.464V39H142.312V33.416H140.232V32.36H145.544V33.416ZM151.639 33.304V32.36H152.791V39H151.639V38.072C151.063 38.8187 150.306 39.192 149.367 39.192C148.471 39.192 147.708 38.8827 147.079 38.264C146.45 37.6453 146.135 36.7813 146.135 35.672C146.135 34.584 146.444 33.736 147.063 33.128C147.692 32.5093 148.46 32.2 149.367 32.2C150.327 32.2 151.084 32.568 151.639 33.304ZM149.495 33.224C148.887 33.224 148.37 33.4427 147.943 33.88C147.527 34.3067 147.319 34.904 147.319 35.672C147.319 36.408 147.511 37.0107 147.895 37.48C148.29 37.9387 148.823 38.168 149.495 38.168C150.167 38.168 150.7 37.928 151.095 37.448C151.5 36.968 151.703 36.3813 151.703 35.688C151.703 34.8987 151.479 34.2907 151.031 33.864C150.583 33.4373 150.071 33.224 149.495 33.224ZM159.997 32.36V39H158.845V33.416H156.477V36.408C156.477 37.272 156.306 37.912 155.965 38.328C155.581 38.7973 155.047 39.032 154.365 39.032C154.279 39.032 154.162 39.0213 154.013 39V37.944C154.119 37.9653 154.205 37.976 154.269 37.976C154.642 37.976 154.919 37.832 155.101 37.544C155.25 37.3093 155.325 36.9307 155.325 36.408V32.36H159.997ZM167.792 38.2C167.131 38.8613 166.293 39.192 165.28 39.192C164.267 39.192 163.424 38.8613 162.752 38.2C162.091 37.5387 161.76 36.7067 161.76 35.704C161.76 34.6907 162.091 33.8533 162.752 33.192C163.424 32.5307 164.267 32.2 165.28 32.2C166.293 32.2 167.131 32.5307 167.792 33.192C168.464 33.8533 168.8 34.6907 168.8 35.704C168.8 36.7067 168.464 37.5387 167.792 38.2ZM166.928 33.88C166.48 33.4427 165.931 33.224 165.28 33.224C164.629 33.224 164.075 33.448 163.616 33.896C163.168 34.3333 162.944 34.936 162.944 35.704C162.944 36.472 163.173 37.0747 163.632 37.512C164.091 37.9493 164.64 38.168 165.28 38.168C165.92 38.168 166.469 37.9493 166.928 37.512C167.387 37.0747 167.616 36.472 167.616 35.704C167.616 34.9253 167.387 34.3173 166.928 33.88Z" fill="#E9EAF5"/>
<path d="M41.9023 27H29.9023V39H41.9023V27Z" fill="#FBDBA3"/>
<path d="M123 27H111V39H123V27Z" fill="#FFC807"/>
<defs>
<linearGradient id="paint0_linear" x1="186" y1="159.309" x2="170.555" y2="231.671" gradientUnits="userSpaceOnUse">
<stop stop-color="#FFC807"/>
<stop offset="1" stop-color="#FFED8B"/>
</linearGradient>
<linearGradient id="paint1_linear" x1="95.5517" y1="283.9" x2="-58.0571" y2="156.63" gradientUnits="userSpaceOnUse">
<stop stop-color="#F9C367"/>
<stop offset="1" stop-color="#FFFAF2"/>
</linearGradient>
<linearGradient id="paint2_linear" x1="338" y1="100.259" x2="273.351" y2="237.14" gradientUnits="userSpaceOnUse">
<stop stop-color="#FFC807"/>
<stop offset="1" stop-color="#FFED8B"/>
</linearGradient>
<linearGradient id="paint3_linear" x1="247.552" y1="219" x2="239.861" y2="175.031" gradientUnits="userSpaceOnUse">
<stop stop-color="#F9C367"/>
<stop offset="1" stop-color="#FFFAF2"/>
</linearGradient>
<linearGradient id="paint4_linear" x1="490" y1="80.5755" x2="405.702" y2="231.488" gradientUnits="userSpaceOnUse">
<stop stop-color="#FFC807"/>
<stop offset="1" stop-color="#FFED8B"/>
</linearGradient>
<linearGradient id="paint5_linear" x1="399.552" y1="241" x2="343.617" y2="134.41" gradientUnits="userSpaceOnUse">
<stop stop-color="#F9C367"/>
<stop offset="1" stop-color="#FFFAF2"/>
</linearGradient>
</defs>
</svg>
