<svg width="525" height="260" viewBox="0 0 525 260" fill="none" xmlns="http://www.w3.org/2000/svg">
<path d="M522.518 9.47868V253.538H5.46641V9.47868H522.518ZM523.001 9H5.00098V254H523.001V9Z" fill="#3C3C3C"/>
<path d="M6.35294 15H5V8H12V9.35292H6.35294V15Z" fill="#868686"/>
<path d="M524 15H522.647V9.35292H517V8H524V15Z" fill="#868686"/>
<path d="M12 255H5V248H6.35294V253.647H12V255Z" fill="#868686"/>
<path d="M524.001 255H517.001V253.647H522.648V248H524.001V255Z" fill="#868686"/>
<path d="M494 207H35V208H494V207Z" fill="#2F2F2F"/>
<path d="M494 172H35V173H494V172Z" fill="#2F2F2F"/>
<path d="M494 138H35V139H494V138Z" fill="#2F2F2F"/>
<path d="M494 104H35V105H494V104Z" fill="#2F2F2F"/>
<path d="M494 69H35V70H494V69Z" fill="#2F2F2F"/>
<path d="M90.9354 221.328V225.552H95.5114V221.328H97.1434V232H95.5114V227.088H90.9354V232H89.3034V221.328H90.9354ZM100.094 226.096C100.787 225.424 101.646 225.088 102.67 225.088C103.694 225.088 104.547 225.424 105.23 226.096C105.923 226.757 106.27 227.605 106.27 228.64C106.27 229.664 105.923 230.517 105.23 231.2C104.547 231.872 103.694 232.208 102.67 232.208C101.646 232.208 100.787 231.872 100.094 231.2C99.411 230.517 99.0697 229.664 99.0697 228.64C99.0697 227.605 99.411 226.757 100.094 226.096ZM101.214 230.224C101.576 230.608 102.062 230.8 102.67 230.8C103.278 230.8 103.763 230.608 104.126 230.224C104.488 229.829 104.67 229.307 104.67 228.656C104.67 227.941 104.472 227.403 104.078 227.04C103.694 226.677 103.224 226.496 102.67 226.496C102.115 226.496 101.64 226.677 101.246 227.04C100.862 227.403 100.67 227.941 100.67 228.656C100.67 229.307 100.851 229.829 101.214 230.224ZM107.042 232L109.154 229.328C108.738 229.264 108.381 229.093 108.082 228.816C107.709 228.453 107.522 227.989 107.522 227.424C107.522 226.784 107.73 226.267 108.146 225.872C108.573 225.467 109.223 225.264 110.098 225.264H112.61V232H111.042V229.52H110.722L108.882 232H107.042ZM111.042 228.24V226.608H110.13C109.757 226.608 109.485 226.656 109.314 226.752C109.058 226.912 108.93 227.136 108.93 227.424C108.93 227.712 109.037 227.931 109.25 228.08C109.41 228.187 109.698 228.24 110.114 228.24H111.042ZM119.682 220.64H121.282C121.164 221.195 120.919 221.675 120.546 222.08C120.172 222.485 119.714 222.763 119.17 222.912L118.114 223.2C117.836 223.275 117.623 223.339 117.474 223.392C117.324 223.445 117.138 223.547 116.914 223.696C116.7 223.835 116.519 224.005 116.37 224.208C116.018 224.677 115.831 225.285 115.81 226.032H115.826C116.295 225.403 117.058 225.088 118.114 225.088C119.063 225.088 119.847 225.408 120.466 226.048C121.116 226.72 121.442 227.573 121.442 228.608C121.442 229.653 121.095 230.517 120.402 231.2C119.719 231.872 118.866 232.208 117.842 232.208C116.818 232.208 115.996 231.909 115.378 231.312C115.036 230.992 114.775 230.597 114.594 230.128C114.412 229.659 114.306 229.275 114.274 228.976C114.252 228.667 114.242 228.293 114.242 227.856C114.242 225.765 114.583 224.224 115.266 223.232C115.778 222.475 116.45 221.995 117.282 221.792L118.402 221.52C119.138 221.339 119.564 221.045 119.682 220.64ZM116.386 230.224C116.748 230.608 117.234 230.8 117.842 230.8C118.45 230.8 118.935 230.608 119.298 230.224C119.66 229.829 119.842 229.307 119.842 228.656C119.842 227.941 119.644 227.403 119.25 227.04C118.866 226.677 118.396 226.496 117.842 226.496C117.287 226.496 116.812 226.677 116.418 227.04C116.034 227.403 115.842 227.941 115.842 228.656C115.842 229.307 116.023 229.829 116.386 230.224ZM124.646 231.216V235.664H123.078V225.264H124.646V226C125.158 225.392 125.825 225.088 126.646 225.088C127.563 225.088 128.337 225.413 128.966 226.064C129.606 226.704 129.926 227.547 129.926 228.592C129.926 229.669 129.595 230.544 128.934 231.216C128.273 231.877 127.515 232.208 126.662 232.208C125.862 232.208 125.19 231.877 124.646 231.216ZM126.454 226.496C125.921 226.496 125.467 226.688 125.094 227.072C124.731 227.445 124.55 227.979 124.55 228.672C124.55 229.344 124.731 229.867 125.094 230.24C125.467 230.613 125.921 230.8 126.454 230.8C127.009 230.8 127.457 230.592 127.798 230.176C128.15 229.76 128.326 229.253 128.326 228.656C128.326 228.048 128.15 227.536 127.798 227.12C127.457 226.704 127.009 226.496 126.454 226.496ZM131.562 232V225.264H133.13V227.648H134.026C134.314 227.648 134.549 227.659 134.73 227.68C134.912 227.691 135.13 227.749 135.386 227.856C135.642 227.963 135.866 228.123 136.058 228.336C136.41 228.731 136.586 229.221 136.586 229.808C136.586 230.48 136.384 231.019 135.978 231.424C135.797 231.605 135.578 231.744 135.322 231.84C135.077 231.925 134.869 231.973 134.698 231.984C134.538 231.995 134.309 232 134.01 232H131.562ZM133.13 230.656H133.85C134.234 230.656 134.506 230.608 134.666 230.512C134.901 230.341 135.018 230.112 135.018 229.824C135.018 229.525 134.906 229.301 134.682 229.152C134.512 229.045 134.24 228.992 133.866 228.992H133.13V230.656Z" fill="#E9EAF5"/>
<path opacity="0.5" d="M109 69H49V207H109V69Z" fill="#2B2B2B"/>
<path d="M176 172H116V208H176V172Z" fill="url(#paint0_linear)"/>
<path d="M109 78H49V208H109V78Z" fill="url(#paint1_linear)"/>
<path d="M238.273 221.328H244.929V230.464H246.145V234.4H244.609V232H237.729V234.4H236.193V230.464C236.555 230.475 236.886 230.347 237.185 230.08C237.483 229.803 237.718 229.451 237.889 229.024C238.145 228.373 238.273 227.44 238.273 226.224V221.328ZM239.905 222.864V226.224C239.905 227.557 239.782 228.549 239.537 229.2C239.345 229.691 239.067 230.112 238.705 230.464H243.297V222.864H239.905ZM252.087 229.728L253.399 230.464C253.1 230.997 252.722 231.408 252.263 231.696C251.74 232.037 251.079 232.208 250.279 232.208C249.34 232.208 248.583 231.92 248.007 231.344C247.346 230.683 247.015 229.824 247.015 228.768C247.015 227.659 247.372 226.736 248.087 226C248.695 225.392 249.447 225.088 250.343 225.088C251.218 225.088 251.938 225.381 252.503 225.968C253.132 226.619 253.447 227.568 253.447 228.816V229.008H248.615C248.658 229.573 248.85 230.027 249.191 230.368C249.479 230.656 249.879 230.8 250.391 230.8C250.807 230.8 251.164 230.688 251.463 230.464C251.708 230.272 251.916 230.027 252.087 229.728ZM248.727 227.728H251.847C251.783 227.355 251.623 227.051 251.367 226.816C251.09 226.56 250.738 226.432 250.311 226.432C249.863 226.432 249.495 226.576 249.207 226.864C248.972 227.077 248.812 227.365 248.727 227.728ZM255.086 225.264H256.654V227.664L258.894 225.264H260.974L258.03 228.208L261.134 232H259.15L256.91 229.232L256.654 229.488V232H255.086V225.264ZM267.092 226.048V225.264H268.66V232H267.092V231.296C266.569 231.904 265.897 232.208 265.076 232.208C264.084 232.208 263.289 231.856 262.692 231.152C262.105 230.448 261.812 229.605 261.812 228.624C261.812 227.557 262.127 226.704 262.756 226.064C263.396 225.413 264.175 225.088 265.092 225.088C265.935 225.088 266.601 225.408 267.092 226.048ZM265.284 226.496C264.729 226.496 264.276 226.704 263.924 227.12C263.583 227.536 263.412 228.048 263.412 228.656C263.412 229.253 263.583 229.76 263.924 230.176C264.276 230.592 264.729 230.8 265.284 230.8C265.817 230.8 266.265 230.613 266.628 230.24C267.001 229.867 267.188 229.344 267.188 228.672C267.188 227.979 267.001 227.445 266.628 227.072C266.265 226.688 265.817 226.496 265.284 226.496ZM275.736 220.64H277.336C277.219 221.195 276.974 221.675 276.6 222.08C276.227 222.485 275.768 222.763 275.224 222.912L274.168 223.2C273.891 223.275 273.678 223.339 273.528 223.392C273.379 223.445 273.192 223.547 272.968 223.696C272.755 223.835 272.574 224.005 272.424 224.208C272.072 224.677 271.886 225.285 271.864 226.032H271.88C272.35 225.403 273.112 225.088 274.168 225.088C275.118 225.088 275.902 225.408 276.52 226.048C277.171 226.72 277.496 227.573 277.496 228.608C277.496 229.653 277.15 230.517 276.456 231.2C275.774 231.872 274.92 232.208 273.896 232.208C272.872 232.208 272.051 231.909 271.432 231.312C271.091 230.992 270.83 230.597 270.648 230.128C270.467 229.659 270.36 229.275 270.328 228.976C270.307 228.667 270.296 228.293 270.296 227.856C270.296 225.765 270.638 224.224 271.32 223.232C271.832 222.475 272.504 221.995 273.336 221.792L274.456 221.52C275.192 221.339 275.619 221.045 275.736 220.64ZM272.44 230.224C272.803 230.608 273.288 230.8 273.896 230.8C274.504 230.8 274.99 230.608 275.352 230.224C275.715 229.829 275.896 229.307 275.896 228.656C275.896 227.941 275.699 227.403 275.304 227.04C274.92 226.677 274.451 226.496 273.896 226.496C273.342 226.496 272.867 226.677 272.472 227.04C272.088 227.403 271.896 227.941 271.896 228.656C271.896 229.307 272.078 229.829 272.44 230.224ZM280.701 231.216V235.664H279.133V225.264H280.701V226C281.213 225.392 281.879 225.088 282.701 225.088C283.618 225.088 284.391 225.413 285.021 226.064C285.661 226.704 285.981 227.547 285.981 228.592C285.981 229.669 285.65 230.544 284.989 231.216C284.327 231.877 283.57 232.208 282.717 232.208C281.917 232.208 281.245 231.877 280.701 231.216ZM282.509 226.496C281.975 226.496 281.522 226.688 281.149 227.072C280.786 227.445 280.605 227.979 280.605 228.672C280.605 229.344 280.786 229.867 281.149 230.24C281.522 230.613 281.975 230.8 282.509 230.8C283.063 230.8 283.511 230.592 283.853 230.176C284.205 229.76 284.381 229.253 284.381 228.656C284.381 228.048 284.205 227.536 283.853 227.12C283.511 226.704 283.063 226.496 282.509 226.496ZM287.617 232V225.264H289.185V227.648H290.081C290.369 227.648 290.604 227.659 290.785 227.68C290.966 227.691 291.185 227.749 291.441 227.856C291.697 227.963 291.921 228.123 292.113 228.336C292.465 228.731 292.641 229.221 292.641 229.808C292.641 230.48 292.438 231.019 292.033 231.424C291.852 231.605 291.633 231.744 291.377 231.84C291.132 231.925 290.924 231.973 290.753 231.984C290.593 231.995 290.364 232 290.065 232H287.617ZM289.185 230.656H289.905C290.289 230.656 290.561 230.608 290.721 230.512C290.956 230.341 291.073 230.112 291.073 229.824C291.073 229.525 290.961 229.301 290.737 229.152C290.566 229.045 290.294 228.992 289.921 228.992H289.185V230.656Z" fill="#E9EAF5"/>
<path opacity="0.5" d="M261 69H201V207H261V69Z" fill="#2B2B2B"/>
<path d="M328 131H268V208H328V131Z" fill="url(#paint2_linear)"/>
<path d="M261 139H201V208H261V139Z" fill="url(#paint3_linear)"/>
<path d="M393.367 232L396.535 227.552C395.906 227.477 395.356 227.237 394.887 226.832C394.279 226.299 393.975 225.541 393.975 224.56C393.975 223.664 394.247 222.923 394.791 222.336C395.079 222.027 395.42 221.792 395.815 221.632C396.21 221.472 396.53 221.381 396.775 221.36C397.02 221.339 397.324 221.328 397.687 221.328H400.311V232H398.679V227.728H398.295L395.383 232H393.367ZM398.679 222.832H397.879C397.004 222.832 396.396 222.997 396.055 223.328C395.714 223.648 395.543 224.059 395.543 224.56C395.543 225.136 395.746 225.563 396.151 225.84C396.535 226.096 397.079 226.224 397.783 226.224H398.679V222.832ZM402.586 232V225.264H404.154V227.76H406.938V225.264H408.506V232H406.938V229.2H404.154V232H402.586ZM410.492 225.264H413.132C413.804 225.264 414.316 225.397 414.668 225.664C415.084 225.995 415.292 226.427 415.292 226.96C415.292 227.568 415.025 228.005 414.492 228.272C414.833 228.336 415.137 228.485 415.404 228.72C415.756 229.04 415.932 229.472 415.932 230.016C415.932 230.667 415.687 231.179 415.196 231.552C414.791 231.851 414.273 232 413.644 232H410.492V225.264ZM412.06 227.888H412.86C413.137 227.888 413.345 227.84 413.484 227.744C413.687 227.616 413.788 227.435 413.788 227.2C413.788 226.976 413.697 226.8 413.516 226.672C413.388 226.587 413.159 226.544 412.828 226.544H412.06V227.888ZM412.06 230.72H413.228C413.58 230.72 413.852 230.656 414.044 230.528C414.257 230.389 414.364 230.192 414.364 229.936C414.364 229.659 414.263 229.461 414.06 229.344C413.879 229.227 413.617 229.168 413.276 229.168H412.06V230.72ZM422.498 226.048V225.264H424.066V232H422.498V231.296C421.975 231.904 421.303 232.208 420.482 232.208C419.49 232.208 418.695 231.856 418.098 231.152C417.511 230.448 417.218 229.605 417.218 228.624C417.218 227.557 417.533 226.704 418.162 226.064C418.802 225.413 419.581 225.088 420.498 225.088C421.341 225.088 422.007 225.408 422.498 226.048ZM420.69 226.496C420.135 226.496 419.682 226.704 419.33 227.12C418.989 227.536 418.818 228.048 418.818 228.656C418.818 229.253 418.989 229.76 419.33 230.176C419.682 230.592 420.135 230.8 420.69 230.8C421.223 230.8 421.671 230.613 422.034 230.24C422.407 229.867 422.594 229.344 422.594 228.672C422.594 227.979 422.407 227.445 422.034 227.072C421.671 226.688 421.223 226.496 420.69 226.496ZM427.623 231.216V235.664H426.055V225.264H427.623V226C428.135 225.392 428.801 225.088 429.623 225.088C430.54 225.088 431.313 225.413 431.943 226.064C432.583 226.704 432.903 227.547 432.903 228.592C432.903 229.669 432.572 230.544 431.911 231.216C431.249 231.877 430.492 232.208 429.639 232.208C428.839 232.208 428.167 231.877 427.623 231.216ZM429.431 226.496C428.897 226.496 428.444 226.688 428.071 227.072C427.708 227.445 427.527 227.979 427.527 228.672C427.527 229.344 427.708 229.867 428.071 230.24C428.444 230.613 428.897 230.8 429.431 230.8C429.985 230.8 430.433 230.592 430.775 230.176C431.127 229.76 431.303 229.253 431.303 228.656C431.303 228.048 431.127 227.536 430.775 227.12C430.433 226.704 429.985 226.496 429.431 226.496ZM434.539 232V225.264H436.107V227.648H437.003C437.291 227.648 437.526 227.659 437.707 227.68C437.888 227.691 438.107 227.749 438.363 227.856C438.619 227.963 438.843 228.123 439.035 228.336C439.387 228.731 439.563 229.221 439.563 229.808C439.563 230.48 439.36 231.019 438.955 231.424C438.774 231.605 438.555 231.744 438.299 231.84C438.054 231.925 437.846 231.973 437.675 231.984C437.515 231.995 437.286 232 436.987 232H434.539ZM436.107 230.656H436.827C437.211 230.656 437.483 230.608 437.643 230.512C437.878 230.341 437.995 230.112 437.995 229.824C437.995 229.525 437.883 229.301 437.659 229.152C437.488 229.045 437.216 228.992 436.843 228.992H436.107V230.656Z" fill="#E9EAF5"/>
<path opacity="0.5" d="M413 69H353V207H413V69Z" fill="#2B2B2B"/>
<path opacity="0.5" d="M480 70H420V208H480V70Z" fill="#2B2B2B"/>
<path d="M480 94H420V208H480V94Z" fill="url(#paint4_linear)"/>
<path d="M413 165H353V208H413V165Z" fill="url(#paint5_linear)"/>
<path d="M50.3819 39V28.328H51.5659V37.88H56.9739V28.328H58.1579V37.88H59.3739V41.24H58.2539V39H50.3819ZM65.6156 36.776L66.5756 37.304C66.3516 37.7307 66.0796 38.088 65.7596 38.376C65.1516 38.92 64.4156 39.192 63.5516 39.192C62.6556 39.192 61.8823 38.904 61.2316 38.328C60.5916 37.7413 60.2716 36.872 60.2716 35.72C60.2716 34.7067 60.5596 33.8693 61.1356 33.208C61.7223 32.536 62.5063 32.2 63.4876 32.2C64.5969 32.2 65.4343 32.6053 65.9996 33.416C66.4476 34.056 66.6556 34.888 66.6236 35.912H61.4556C61.4663 36.584 61.6743 37.128 62.0796 37.544C62.4849 37.96 62.9809 38.168 63.5676 38.168C64.0903 38.168 64.5436 38.008 64.9276 37.688C65.2263 37.432 65.4556 37.128 65.6156 36.776ZM61.5356 34.952H65.4396C65.3436 34.4293 65.1143 34.0133 64.7516 33.704C64.3996 33.384 63.9783 33.224 63.4876 33.224C63.0076 33.224 62.5809 33.3893 62.2076 33.72C61.8449 34.04 61.6209 34.4507 61.5356 34.952ZM68.3907 39V32.36H69.5427V35.08H72.6787V32.36H73.8307V39H72.6787V36.136H69.5427V39H68.3907ZM81.0881 33.304V32.36H82.2401V39H81.0881V38.072C80.5121 38.8187 79.7548 39.192 78.8161 39.192C77.9201 39.192 77.1574 38.8827 76.5281 38.264C75.8988 37.6453 75.5841 36.7813 75.5841 35.672C75.5841 34.584 75.8934 33.736 76.5121 33.128C77.1414 32.5093 77.9094 32.2 78.8161 32.2C79.7761 32.2 80.5334 32.568 81.0881 33.304ZM78.9441 33.224C78.3361 33.224 77.8188 33.4427 77.3921 33.88C76.9761 34.3067 76.7681 34.904 76.7681 35.672C76.7681 36.408 76.9601 37.0107 77.3441 37.48C77.7388 37.9387 78.2721 38.168 78.9441 38.168C79.6161 38.168 80.1494 37.928 80.5441 37.448C80.9494 36.968 81.1521 36.3813 81.1521 35.688C81.1521 34.8987 80.9281 34.2907 80.4801 33.864C80.0321 33.4373 79.5201 33.224 78.9441 33.224Z" fill="#E9EAF5"/>
<path d="M132.568 28.328H139.064V39H137.88V29.448H133.752V35.176C133.752 35.6773 133.746 36.056 133.736 36.312C133.725 36.5573 133.64 36.9093 133.48 37.368C133.33 37.816 133.101 38.1787 132.792 38.456C132.312 38.8827 131.704 39.096 130.968 39.096C130.797 39.096 130.584 39.064 130.328 39V37.88C130.541 37.944 130.738 37.976 130.92 37.976C131.336 37.976 131.682 37.8373 131.96 37.56C132.152 37.368 132.296 37.096 132.392 36.744C132.488 36.3813 132.541 36.0773 132.552 35.832C132.562 35.5867 132.568 35.208 132.568 34.696V28.328ZM141.535 32.36H142.687V36.744L147.231 31.848V39H146.079V34.568L141.535 39.464V32.36ZM149.89 32.36H154.562V37.944H155.554V40.76H154.498V39H149.442V40.76H148.386V37.944C148.941 37.9333 149.352 37.6453 149.618 37.08C149.8 36.7067 149.89 36.12 149.89 35.32V32.36ZM153.41 37.944V33.416H151.042V35.912C151.042 36.7973 150.776 37.4747 150.242 37.944H153.41ZM156.77 39V32.36H157.922V34.904H159.106C160.023 34.904 160.695 35.1227 161.122 35.56C161.463 35.9013 161.634 36.3653 161.634 36.952C161.634 37.5707 161.436 38.0667 161.042 38.44C160.647 38.8133 159.996 39 159.09 39H156.77ZM157.922 37.976H158.994C159.474 37.976 159.815 37.9173 160.018 37.8C160.306 37.608 160.45 37.3253 160.45 36.952C160.45 36.568 160.311 36.2907 160.034 36.12C159.842 35.992 159.5 35.928 159.01 35.928H157.922V37.976ZM162.434 39V32.36H163.586V39H162.434Z" fill="#E9EAF5"/>
<path d="M41.9023 27H29.9023V39H41.9023V27Z" fill="#FBDBA3"/>
<path d="M123 27H111V39H123V27Z" fill="#FFC807"/>
<defs>
<linearGradient id="paint0_linear" x1="186" y1="170.705" x2="176.772" y2="227.148" gradientUnits="userSpaceOnUse">
<stop stop-color="#FFC807"/>
<stop offset="1" stop-color="#FFED8B"/>
</linearGradient>
<linearGradient id="paint1_linear" x1="95.5517" y1="279.5" x2="-50.5144" y2="151.032" gradientUnits="userSpaceOnUse">
<stop stop-color="#F9C367"/>
<stop offset="1" stop-color="#FFFAF2"/>
</linearGradient>
<linearGradient id="paint2_linear" x1="338" y1="128.23" x2="299.379" y2="238.676" gradientUnits="userSpaceOnUse">
<stop stop-color="#FFC807"/>
<stop offset="1" stop-color="#FFED8B"/>
</linearGradient>
<linearGradient id="paint3_linear" x1="247.552" y1="245.95" x2="178.394" y2="131.351" gradientUnits="userSpaceOnUse">
<stop stop-color="#F9C367"/>
<stop offset="1" stop-color="#FFFAF2"/>
</linearGradient>
<linearGradient id="paint4_linear" x1="490" y1="89.8993" x2="415.075" y2="234.622" gradientUnits="userSpaceOnUse">
<stop stop-color="#FFC807"/>
<stop offset="1" stop-color="#FFED8B"/>
</linearGradient>
<linearGradient id="paint5_linear" x1="399.552" y1="231.65" x2="367.452" y2="146.296" gradientUnits="userSpaceOnUse">
<stop stop-color="#F9C367"/>
<stop offset="1" stop-color="#FFFAF2"/>
</linearGradient>
</defs>
</svg>
