<svg width="529" height="260" viewBox="0 0 529 260" fill="none" xmlns="http://www.w3.org/2000/svg">
<path d="M492 204H70V205H492V204Z" fill="#2A4370"/>
<path d="M492 168H70V169H492V168Z" fill="#2A4370"/>
<path d="M492 132H70V133H492V132Z" fill="#2A4370"/>
<path d="M492 97H70V98H492V97Z" fill="#2A4370"/>
<path d="M492 61H70V62H492V61Z" fill="#2A4370"/>
<path d="M326 124H236V204H326V124Z" fill="url(#paint0_linear)"/>
<path d="M326 124H236V204H326V124Z" fill="url(#paint1_linear)"/>
<path d="M211 168H121V204H211V168Z" fill="url(#paint2_linear)"/>
<path d="M139.985 215.328H147.825V226H146.641V216.448H141.169V226H139.985V215.328ZM155.907 225.2C155.246 225.861 154.408 226.192 153.395 226.192C152.382 226.192 151.539 225.861 150.867 225.2C150.206 224.539 149.875 223.707 149.875 222.704C149.875 221.691 150.206 220.853 150.867 220.192C151.539 219.531 152.382 219.2 153.395 219.2C154.408 219.2 155.246 219.531 155.907 220.192C156.579 220.853 156.915 221.691 156.915 222.704C156.915 223.707 156.579 224.539 155.907 225.2ZM155.043 220.88C154.595 220.443 154.046 220.224 153.395 220.224C152.744 220.224 152.19 220.448 151.731 220.896C151.283 221.333 151.059 221.936 151.059 222.704C151.059 223.472 151.288 224.075 151.747 224.512C152.206 224.949 152.755 225.168 153.395 225.168C154.035 225.168 154.584 224.949 155.043 224.512C155.502 224.075 155.731 223.472 155.731 222.704C155.731 221.925 155.502 221.317 155.043 220.88ZM158.682 219.36H159.834V222.08L162.522 219.36H163.93L161.05 222.32L164.282 226H162.778L160.186 223.088L159.834 223.424V226H158.682V219.36ZM165.416 229.68L167.528 225.376L164.472 219.36H165.784L168.136 224.112L170.296 219.36H171.576L166.696 229.68H165.416ZM172.791 219.36H178.135V226H176.983V220.416H173.943V226H172.791V219.36ZM180.307 219.36H181.459V222.08L184.147 219.36H185.555L182.675 222.32L185.907 226H184.403L181.811 223.088L181.459 223.424V226H180.307V219.36ZM192.145 220.304V219.36H193.297V226H192.145V225.072C191.569 225.819 190.811 226.192 189.873 226.192C188.977 226.192 188.214 225.883 187.585 225.264C186.955 224.645 186.641 223.781 186.641 222.672C186.641 221.584 186.95 220.736 187.569 220.128C188.198 219.509 188.966 219.2 189.873 219.2C190.833 219.2 191.59 219.568 192.145 220.304ZM190.001 220.224C189.393 220.224 188.875 220.443 188.449 220.88C188.033 221.307 187.825 221.904 187.825 222.672C187.825 223.408 188.017 224.011 188.401 224.48C188.795 224.939 189.329 225.168 190.001 225.168C190.673 225.168 191.206 224.928 191.601 224.448C192.006 223.968 192.209 223.381 192.209 222.688C192.209 221.899 191.985 221.291 191.537 220.864C191.089 220.437 190.577 220.224 190.001 220.224Z" fill="#E9EAF5"/>
<path d="M243.169 216.208V217.68C242.742 217.253 242.278 216.923 241.777 216.688C241.169 216.411 240.555 216.272 239.937 216.272C238.71 216.272 237.686 216.704 236.865 217.568C236.054 218.421 235.649 219.472 235.649 220.72C235.649 222.064 236.091 223.125 236.977 223.904C237.873 224.683 238.865 225.072 239.953 225.072C240.635 225.072 241.297 224.907 241.937 224.576C242.385 224.352 242.795 224.053 243.169 223.68V225.152C242.198 225.845 241.126 226.192 239.953 226.192C238.374 226.192 237.057 225.664 236.001 224.608C234.955 223.552 234.433 222.251 234.433 220.704C234.433 219.115 234.961 217.792 236.017 216.736C237.083 215.68 238.417 215.152 240.017 215.152C241.19 215.152 242.241 215.504 243.169 216.208ZM250.153 220.304V219.36H251.305V226H250.153V225.072C249.577 225.819 248.819 226.192 247.881 226.192C246.985 226.192 246.222 225.883 245.593 225.264C244.963 224.645 244.649 223.781 244.649 222.672C244.649 221.584 244.958 220.736 245.577 220.128C246.206 219.509 246.974 219.2 247.881 219.2C248.841 219.2 249.598 219.568 250.153 220.304ZM248.009 220.224C247.401 220.224 246.883 220.443 246.457 220.88C246.041 221.307 245.833 221.904 245.833 222.672C245.833 223.408 246.025 224.011 246.409 224.48C246.803 224.939 247.337 225.168 248.009 225.168C248.681 225.168 249.214 224.928 249.609 224.448C250.014 223.968 250.217 223.381 250.217 222.688C250.217 221.899 249.993 221.291 249.545 220.864C249.097 220.437 248.585 220.224 248.009 220.224ZM253.486 214.336H254.638V226H253.486V214.336ZM256.815 214.336H257.967V226H256.815V214.336ZM260.143 219.36H261.295V226H260.143V219.36ZM260.143 217.424C259.983 217.264 259.903 217.072 259.903 216.848C259.903 216.624 259.983 216.432 260.143 216.272C260.303 216.112 260.495 216.032 260.719 216.032C260.943 216.032 261.135 216.112 261.295 216.272C261.455 216.432 261.535 216.624 261.535 216.848C261.535 217.072 261.455 217.264 261.295 217.424C261.135 217.584 260.943 217.664 260.719 217.664C260.495 217.664 260.303 217.584 260.143 217.424ZM264.623 225.072V226H263.471V214.336H264.623V220.288C265.209 219.563 265.967 219.2 266.895 219.2C267.887 219.2 268.671 219.552 269.247 220.256C269.833 220.949 270.127 221.771 270.127 222.72C270.127 223.68 269.839 224.501 269.263 225.184C268.687 225.856 267.913 226.192 266.943 226.192C265.972 226.192 265.199 225.819 264.623 225.072ZM266.783 225.168C267.433 225.168 267.956 224.933 268.351 224.464C268.745 223.984 268.943 223.403 268.943 222.72C268.943 221.952 268.724 221.344 268.287 220.896C267.849 220.448 267.343 220.224 266.767 220.224C266.191 220.224 265.679 220.448 265.231 220.896C264.783 221.344 264.559 221.947 264.559 222.704C264.559 223.397 264.761 223.984 265.167 224.464C265.583 224.933 266.121 225.168 266.783 225.168ZM271.893 226V219.36H273.045V220.08C273.418 219.493 273.919 219.2 274.549 219.2C274.869 219.2 275.21 219.291 275.573 219.472L275.029 220.512C274.815 220.363 274.591 220.288 274.357 220.288C273.951 220.288 273.642 220.427 273.429 220.704C273.173 221.045 273.045 221.643 273.045 222.496V226H271.893ZM276.627 219.36H277.779V226H276.627V219.36ZM276.627 217.424C276.467 217.264 276.387 217.072 276.387 216.848C276.387 216.624 276.467 216.432 276.627 216.272C276.787 216.112 276.979 216.032 277.203 216.032C277.427 216.032 277.619 216.112 277.779 216.272C277.939 216.432 278.019 216.624 278.019 216.848C278.019 217.072 277.939 217.264 277.779 217.424C277.619 217.584 277.427 217.664 277.203 217.664C276.979 217.664 276.787 217.584 276.627 217.424ZM284.554 221.056L283.754 220.4C284.01 220.027 284.292 219.749 284.602 219.568C285.018 219.323 285.503 219.2 286.058 219.2C286.73 219.2 287.252 219.355 287.626 219.664C288.01 219.995 288.202 220.416 288.202 220.928C288.202 221.547 287.951 222.011 287.45 222.32C287.77 222.395 288.026 222.539 288.218 222.752C288.527 223.083 288.682 223.488 288.682 223.968C288.682 224.683 288.394 225.253 287.818 225.68C287.348 226.021 286.719 226.192 285.93 226.192C285.226 226.192 284.634 226.005 284.154 225.632C283.791 225.365 283.498 224.987 283.274 224.496L284.266 224.08C284.383 224.379 284.58 224.629 284.858 224.832C285.156 225.056 285.519 225.168 285.946 225.168C286.447 225.168 286.82 225.083 287.066 224.912C287.375 224.709 287.53 224.4 287.53 223.984C287.53 223.643 287.396 223.387 287.13 223.216C286.906 223.067 286.543 222.992 286.042 222.992H285.37V221.936H285.93C286.335 221.936 286.623 221.877 286.794 221.76C287.028 221.611 287.146 221.408 287.146 221.152C287.146 220.853 287.05 220.624 286.858 220.464C286.676 220.304 286.394 220.224 286.01 220.224C285.679 220.224 285.375 220.309 285.098 220.48C284.863 220.629 284.682 220.821 284.554 221.056ZM290.44 219.36H292.952C293.56 219.36 294.024 219.488 294.344 219.744C294.728 220.053 294.92 220.469 294.92 220.992C294.92 221.568 294.68 222.011 294.2 222.32C294.53 222.405 294.808 222.555 295.032 222.768C295.384 223.109 295.56 223.536 295.56 224.048C295.56 224.688 295.33 225.189 294.872 225.552C294.477 225.851 293.954 226 293.304 226H290.44V219.36ZM291.592 222.064H292.808C293.117 222.064 293.362 222 293.544 221.872C293.757 221.712 293.864 221.483 293.864 221.184C293.864 220.917 293.757 220.704 293.544 220.544C293.384 220.437 293.074 220.384 292.616 220.384H291.592V222.064ZM291.592 224.976H293.016C293.506 224.976 293.853 224.901 294.056 224.752C294.312 224.56 294.44 224.315 294.44 224.016C294.44 223.696 294.328 223.445 294.104 223.264C293.901 223.104 293.554 223.024 293.064 223.024H291.592V224.976ZM302.931 225.2C302.269 225.861 301.432 226.192 300.419 226.192C299.405 226.192 298.563 225.861 297.891 225.2C297.229 224.539 296.899 223.707 296.899 222.704C296.899 221.691 297.229 220.853 297.891 220.192C298.563 219.531 299.405 219.2 300.419 219.2C301.432 219.2 302.269 219.531 302.931 220.192C303.603 220.853 303.939 221.691 303.939 222.704C303.939 223.707 303.603 224.539 302.931 225.2ZM302.067 220.88C301.619 220.443 301.069 220.224 300.419 220.224C299.768 220.224 299.213 220.448 298.755 220.896C298.307 221.333 298.083 221.936 298.083 222.704C298.083 223.472 298.312 224.075 298.771 224.512C299.229 224.949 299.779 225.168 300.419 225.168C301.059 225.168 301.608 224.949 302.067 224.512C302.525 224.075 302.755 223.472 302.755 222.704C302.755 221.925 302.525 221.317 302.067 220.88ZM305.705 226V219.36H306.857V222.08H309.993V219.36H311.145V226H309.993V223.136H306.857V226H305.705ZM318.931 225.2C318.269 225.861 317.432 226.192 316.419 226.192C315.405 226.192 314.563 225.861 313.891 225.2C313.229 224.539 312.899 223.707 312.899 222.704C312.899 221.691 313.229 220.853 313.891 220.192C314.563 219.531 315.405 219.2 316.419 219.2C317.432 219.2 318.269 219.531 318.931 220.192C319.603 220.853 319.939 221.691 319.939 222.704C319.939 223.707 319.603 224.539 318.931 225.2ZM318.067 220.88C317.619 220.443 317.069 220.224 316.419 220.224C315.768 220.224 315.213 220.448 314.755 220.896C314.307 221.333 314.083 221.936 314.083 222.704C314.083 223.472 314.312 224.075 314.771 224.512C315.229 224.949 315.779 225.168 316.419 225.168C317.059 225.168 317.608 224.949 318.067 224.512C318.525 224.075 318.755 223.472 318.755 222.704C318.755 221.925 318.525 221.317 318.067 220.88ZM321.705 219.36H322.857V222.08L325.545 219.36H326.953L324.073 222.32L327.305 226H325.801L323.209 223.088L322.857 223.424V226H321.705V219.36Z" fill="#E9EAF5"/>
<path d="M356.708 216.208V217.68C356.281 217.253 355.817 216.923 355.316 216.688C354.708 216.411 354.095 216.272 353.476 216.272C352.249 216.272 351.225 216.704 350.404 217.568C349.593 218.421 349.188 219.472 349.188 220.72C349.188 222.064 349.631 223.125 350.516 223.904C351.412 224.683 352.404 225.072 353.492 225.072C354.175 225.072 354.836 224.907 355.476 224.576C355.924 224.352 356.335 224.053 356.708 223.68V225.152C355.737 225.845 354.665 226.192 353.492 226.192C351.913 226.192 350.596 225.664 349.54 224.608C348.495 223.552 347.972 222.251 347.972 220.704C347.972 219.115 348.5 217.792 349.556 216.736C350.623 215.68 351.956 215.152 353.556 215.152C354.729 215.152 355.78 215.504 356.708 216.208ZM363.692 220.304V219.36H364.844V226H363.692V225.072C363.116 225.819 362.358 226.192 361.42 226.192C360.524 226.192 359.761 225.883 359.132 225.264C358.502 224.645 358.188 223.781 358.188 222.672C358.188 221.584 358.497 220.736 359.116 220.128C359.745 219.509 360.513 219.2 361.42 219.2C362.38 219.2 363.137 219.568 363.692 220.304ZM361.548 220.224C360.94 220.224 360.422 220.443 359.996 220.88C359.58 221.307 359.372 221.904 359.372 222.672C359.372 223.408 359.564 224.011 359.948 224.48C360.342 224.939 360.876 225.168 361.548 225.168C362.22 225.168 362.753 224.928 363.148 224.448C363.553 223.968 363.756 223.381 363.756 222.688C363.756 221.899 363.532 221.291 363.084 220.864C362.636 220.437 362.124 220.224 361.548 220.224ZM367.026 214.336H368.178V226H367.026V214.336ZM370.354 214.336H371.506V226H370.354V214.336ZM373.682 219.36H374.834V226H373.682V219.36ZM373.682 217.424C373.522 217.264 373.442 217.072 373.442 216.848C373.442 216.624 373.522 216.432 373.682 216.272C373.842 216.112 374.034 216.032 374.258 216.032C374.482 216.032 374.674 216.112 374.834 216.272C374.994 216.432 375.074 216.624 375.074 216.848C375.074 217.072 374.994 217.264 374.834 217.424C374.674 217.584 374.482 217.664 374.258 217.664C374.034 217.664 373.842 217.584 373.682 217.424ZM378.162 225.072V226H377.01V214.336H378.162V220.288C378.749 219.563 379.506 219.2 380.434 219.2C381.426 219.2 382.21 219.552 382.786 220.256C383.373 220.949 383.666 221.771 383.666 222.72C383.666 223.68 383.378 224.501 382.802 225.184C382.226 225.856 381.453 226.192 380.482 226.192C379.511 226.192 378.738 225.819 378.162 225.072ZM380.322 225.168C380.973 225.168 381.495 224.933 381.89 224.464C382.285 223.984 382.482 223.403 382.482 222.72C382.482 221.952 382.263 221.344 381.826 220.896C381.389 220.448 380.882 220.224 380.306 220.224C379.73 220.224 379.218 220.448 378.77 220.896C378.322 221.344 378.098 221.947 378.098 222.704C378.098 223.397 378.301 223.984 378.706 224.464C379.122 224.933 379.661 225.168 380.322 225.168ZM385.432 226V219.36H386.584V220.08C386.957 219.493 387.458 219.2 388.088 219.2C388.408 219.2 388.749 219.291 389.112 219.472L388.568 220.512C388.354 220.363 388.13 220.288 387.896 220.288C387.49 220.288 387.181 220.427 386.968 220.704C386.712 221.045 386.584 221.643 386.584 222.496V226H385.432ZM390.166 219.36H391.318V226H390.166V219.36ZM390.166 217.424C390.006 217.264 389.926 217.072 389.926 216.848C389.926 216.624 390.006 216.432 390.166 216.272C390.326 216.112 390.518 216.032 390.742 216.032C390.966 216.032 391.158 216.112 391.318 216.272C391.478 216.432 391.558 216.624 391.558 216.848C391.558 217.072 391.478 217.264 391.318 217.424C391.158 217.584 390.966 217.664 390.742 217.664C390.518 217.664 390.326 217.584 390.166 217.424ZM397.709 219.36H402.381V224.944H403.373V227.76H402.317V226H397.261V227.76H396.205V224.944C396.759 224.933 397.17 224.645 397.437 224.08C397.618 223.707 397.709 223.12 397.709 222.32V219.36ZM401.229 224.944V220.416H398.861V222.912C398.861 223.797 398.594 224.475 398.061 224.944H401.229ZM409.676 220.304V219.36H410.828V226H409.676V225.072C409.1 225.819 408.343 226.192 407.404 226.192C406.508 226.192 405.745 225.883 405.116 225.264C404.487 224.645 404.172 223.781 404.172 222.672C404.172 221.584 404.481 220.736 405.1 220.128C405.729 219.509 406.497 219.2 407.404 219.2C408.364 219.2 409.121 219.568 409.676 220.304ZM407.532 220.224C406.924 220.224 406.407 220.443 405.98 220.88C405.564 221.307 405.356 221.904 405.356 222.672C405.356 223.408 405.548 224.011 405.932 224.48C406.327 224.939 406.86 225.168 407.532 225.168C408.204 225.168 408.737 224.928 409.132 224.448C409.537 223.968 409.74 223.381 409.74 222.688C409.74 221.899 409.516 221.291 409.068 220.864C408.62 220.437 408.108 220.224 407.532 220.224ZM413.01 226V219.36H414.162V222.08H417.298V219.36H418.45V226H417.298V223.136H414.162V226H413.01ZM420.619 226V219.36H421.771V222.08H424.907V219.36H426.059V226H424.907V223.136H421.771V226H420.619ZM428.229 226V219.36H429.381V221.904H430.565C431.482 221.904 432.154 222.123 432.581 222.56C432.922 222.901 433.093 223.365 433.093 223.952C433.093 224.571 432.895 225.067 432.501 225.44C432.106 225.813 431.455 226 430.549 226H428.229ZM429.381 224.976H430.453C430.933 224.976 431.274 224.917 431.477 224.8C431.765 224.608 431.909 224.325 431.909 223.952C431.909 223.568 431.77 223.291 431.493 223.12C431.301 222.992 430.959 222.928 430.469 222.928H429.381V224.976ZM433.893 226V219.36H435.045V226H433.893ZM442.141 223.776L443.101 224.304C442.877 224.731 442.605 225.088 442.285 225.376C441.677 225.92 440.941 226.192 440.077 226.192C439.181 226.192 438.408 225.904 437.757 225.328C437.117 224.741 436.797 223.872 436.797 222.72C436.797 221.707 437.085 220.869 437.661 220.208C438.248 219.536 439.032 219.2 440.013 219.2C441.122 219.2 441.96 219.605 442.525 220.416C442.973 221.056 443.181 221.888 443.149 222.912H437.981C437.992 223.584 438.2 224.128 438.605 224.544C439.01 224.96 439.506 225.168 440.093 225.168C440.616 225.168 441.069 225.008 441.453 224.688C441.752 224.432 441.981 224.128 442.141 223.776ZM438.061 221.952H441.965C441.869 221.429 441.64 221.013 441.277 220.704C440.925 220.384 440.504 220.224 440.013 220.224C439.533 220.224 439.106 220.389 438.733 220.72C438.37 221.04 438.146 221.451 438.061 221.952Z" fill="#E9EAF5"/>
<path d="M441 61H351V204H441V61Z" fill="url(#paint3_linear)"/>
<path d="M521.592 9.62168V253.772H6.4637V9.62168H521.592ZM522.073 9.14282H6V254.233H522.073V9.14282Z" fill="#2A4370"/>
<path d="M7.13077 16.4968H5.55078V8.3562H13.7255V9.92957H7.13077V16.4968Z" fill="#446197"/>
<path d="M523.221 16.4968H521.642V9.92957H515.047V8.3562H523.221V16.4968Z" fill="#446197"/>
<path d="M13.7255 255.02H5.55078V246.88H7.13077V253.447H13.7255V255.02Z" fill="#446197"/>
<path d="M523.221 255.02H515.047V253.447H521.642V246.88H523.221V255.02Z" fill="#446197"/>
<path d="M48.4607 207.207C47.9147 207.831 47.2603 208.143 46.4977 208.143C45.735 208.143 45.0807 207.831 44.5347 207.207C43.798 206.366 43.4297 205.188 43.4297 203.671C43.4297 202.146 43.798 200.963 44.5347 200.122C45.0807 199.498 45.735 199.186 46.4977 199.186C47.2603 199.186 47.9147 199.498 48.4607 200.122C49.1973 200.963 49.5657 202.146 49.5657 203.671C49.5657 205.188 49.1973 206.366 48.4607 207.207ZM47.6677 201.071C47.3557 200.594 46.9657 200.356 46.4977 200.356C46.0297 200.356 45.6397 200.594 45.3277 201.071C44.929 201.66 44.7297 202.523 44.7297 203.658C44.7297 204.785 44.929 205.651 45.3277 206.258C45.6397 206.735 46.0297 206.973 46.4977 206.973C46.9657 206.973 47.3557 206.735 47.6677 206.258C48.0663 205.651 48.2657 204.785 48.2657 203.658C48.2657 202.523 48.0663 201.66 47.6677 201.071Z" fill="#E9EAF5"/>
<path d="M42.8501 171V163.551H41.3421L42.0701 162.329H44.1761V171H42.8501ZM51.6662 170.207C51.1202 170.831 50.4659 171.143 49.7032 171.143C48.9406 171.143 48.2862 170.831 47.7402 170.207C47.0036 169.366 46.6352 168.188 46.6352 166.671C46.6352 165.146 47.0036 163.963 47.7402 163.122C48.2862 162.498 48.9406 162.186 49.7032 162.186C50.4659 162.186 51.1202 162.498 51.6662 163.122C52.4029 163.963 52.7712 165.146 52.7712 166.671C52.7712 168.188 52.4029 169.366 51.6662 170.207ZM50.8732 164.071C50.5612 163.594 50.1712 163.356 49.7032 163.356C49.2352 163.356 48.8452 163.594 48.5332 164.071C48.1346 164.66 47.9352 165.523 47.9352 166.658C47.9352 167.785 48.1346 168.651 48.5332 169.258C48.8452 169.735 49.2352 169.973 49.7032 169.973C50.1712 169.973 50.5612 169.735 50.8732 169.258C51.2719 168.651 51.4712 167.785 51.4712 166.658C51.4712 165.523 51.2719 164.66 50.8732 164.071Z" fill="#E9EAF5"/>
<path d="M45.3773 136.778V138H39.5533L42.5563 134.36C43.007 133.814 43.3537 133.363 43.5963 133.008C43.8997 132.557 44.0513 132.141 44.0513 131.76C44.0513 131.37 43.9257 131.041 43.6743 130.772C43.423 130.495 43.0677 130.356 42.6083 130.356C42.149 130.356 41.785 130.508 41.5163 130.811C41.2477 131.114 41.1003 131.487 41.0743 131.929H39.8003C39.835 131.166 40.0777 130.534 40.5283 130.031C41.031 129.468 41.707 129.186 42.5563 129.186C43.4317 129.186 44.1163 129.442 44.6103 129.953C45.1043 130.464 45.3513 131.08 45.3513 131.799C45.3513 132.397 45.1433 133.004 44.7273 133.619C44.502 133.957 44.0903 134.477 43.4923 135.179L42.1403 136.778H45.3773ZM52.155 137.207C51.609 137.831 50.9547 138.143 50.192 138.143C49.4293 138.143 48.775 137.831 48.229 137.207C47.4923 136.366 47.124 135.188 47.124 133.671C47.124 132.146 47.4923 130.963 48.229 130.122C48.775 129.498 49.4293 129.186 50.192 129.186C50.9547 129.186 51.609 129.498 52.155 130.122C52.8917 130.963 53.26 132.146 53.26 133.671C53.26 135.188 52.8917 136.366 52.155 137.207ZM51.362 131.071C51.05 130.594 50.66 130.356 50.192 130.356C49.724 130.356 49.334 130.594 49.022 131.071C48.6233 131.66 48.424 132.523 48.424 133.658C48.424 134.785 48.6233 135.651 49.022 136.258C49.334 136.735 49.724 136.973 50.192 136.973C50.66 136.973 51.05 136.735 51.362 136.258C51.7607 135.651 51.96 134.785 51.96 133.658C51.96 132.523 51.7607 131.66 51.362 131.071Z" fill="#E9EAF5"/>
<path d="M44.9353 91.692V98.14H45.8713V99.362H44.9353V101H43.6613V99.362H39.3713L44.9353 91.692ZM41.6853 98.166H43.6613V95.371L41.6853 98.166ZM52.155 100.207C51.609 100.831 50.9547 101.143 50.192 101.143C49.4293 101.143 48.775 100.831 48.229 100.207C47.4923 99.3663 47.124 98.1877 47.124 96.671C47.124 95.1457 47.4923 93.9627 48.229 93.122C48.775 92.498 49.4293 92.186 50.192 92.186C50.9547 92.186 51.609 92.498 52.155 93.122C52.8917 93.9627 53.26 95.1457 53.26 96.671C53.26 98.1877 52.8917 99.3663 52.155 100.207ZM51.362 94.071C51.05 93.5943 50.66 93.356 50.192 93.356C49.724 93.356 49.334 93.5943 49.022 94.071C48.6233 94.6603 48.424 95.5227 48.424 96.658C48.424 97.7847 48.6233 98.6513 49.022 99.258C49.334 99.7347 49.724 99.973 50.192 99.973C50.66 99.973 51.05 99.7347 51.362 99.258C51.7607 98.6513 51.96 97.7847 51.96 96.658C51.96 95.5227 51.7607 94.6603 51.362 94.071Z" fill="#E9EAF5"/>
<path d="M45.3123 55.329V56.551H42.6343L42.2053 57.994C42.3787 57.9767 42.513 57.968 42.6083 57.968C43.423 57.968 44.0903 58.2237 44.6103 58.735C45.1737 59.281 45.4553 60.022 45.4553 60.958C45.4553 61.9027 45.1607 62.6697 44.5713 63.259C43.9733 63.8483 43.1717 64.143 42.1663 64.143C41.5077 64.143 40.953 64.013 40.5023 63.753C40.0863 63.5017 39.744 63.168 39.4753 62.752L40.4763 61.92C40.5977 62.2147 40.8187 62.466 41.1393 62.674C41.434 62.8733 41.811 62.973 42.2703 62.973C42.8163 62.973 43.2583 62.8127 43.5963 62.492C43.969 62.1193 44.1553 61.6297 44.1553 61.023C44.1553 60.4163 43.982 59.9483 43.6353 59.619C43.2973 59.2983 42.825 59.138 42.2183 59.138C41.8717 59.138 41.5337 59.1987 41.2043 59.32C40.9097 59.4327 40.654 59.5627 40.4373 59.71L41.7243 55.329H45.3123ZM52.155 63.207C51.609 63.831 50.9547 64.143 50.192 64.143C49.4293 64.143 48.775 63.831 48.229 63.207C47.4923 62.3663 47.124 61.1877 47.124 59.671C47.124 58.1457 47.4923 56.9627 48.229 56.122C48.775 55.498 49.4293 55.186 50.192 55.186C50.9547 55.186 51.609 55.498 52.155 56.122C52.8917 56.9627 53.26 58.1457 53.26 59.671C53.26 61.1877 52.8917 62.3663 52.155 63.207ZM51.362 57.071C51.05 56.5943 50.66 56.356 50.192 56.356C49.724 56.356 49.334 56.5943 49.022 57.071C48.6233 57.6603 48.424 58.5227 48.424 59.658C48.424 60.7847 48.6233 61.6513 49.022 62.258C49.334 62.7347 49.724 62.973 50.192 62.973C50.66 62.973 51.05 62.7347 51.362 62.258C51.7607 61.6513 51.96 60.7847 51.96 59.658C51.96 58.5227 51.7607 57.6603 51.362 57.071Z" fill="#E9EAF5"/>
<defs>
<linearGradient id="paint0_linear" x1="281" y1="124" x2="281" y2="204" gradientUnits="userSpaceOnUse">
<stop stop-color="#FFED8B"/>
<stop offset="1" stop-color="white" stop-opacity="0"/>
</linearGradient>
<linearGradient id="paint1_linear" x1="336" y1="110.5" x2="210.05" y2="211.918" gradientUnits="userSpaceOnUse">
<stop stop-color="#F9C367"/>
<stop offset="1" stop-color="#FFFAF2"/>
</linearGradient>
<linearGradient id="paint2_linear" x1="221" y1="161.925" x2="171.59" y2="250.338" gradientUnits="userSpaceOnUse">
<stop stop-color="#F9C367"/>
<stop offset="1" stop-color="#FFFAF2"/>
</linearGradient>
<linearGradient id="paint3_linear" x1="473.391" y1="227.61" x2="390.827" y2="-21.7627" gradientUnits="userSpaceOnUse">
<stop stop-color="#FFC807"/>
<stop offset="1" stop-color="#FFED8B"/>
</linearGradient>
</defs>
</svg>
