<svg width="44" height="44" viewBox="0 0 44 44" fill="none" xmlns="http://www.w3.org/2000/svg">
<g clip-path="url(#clip0)">
<path d="M37.0287 26.2243C37.2655 25.4533 37.444 24.657 37.5601 23.841L39.3737 23.4548C42.5246 22.7837 44.5422 19.6743 43.8711 16.5233L43.0453 12.646L39.6386 13.3716C38.365 13.6428 37.2443 14.3155 36.4142 15.291C36.1326 14.6352 35.8083 13.9988 35.4421 13.3877L36.5689 11.9663C37.5384 10.7433 37.9736 9.21597 37.7944 7.66568C37.6152 6.1154 36.8429 4.72774 35.6199 3.75827L32.5133 1.29562L30.3496 4.02503C29.3801 5.24799 28.9449 6.77532 29.1241 8.32561C29.2998 9.84423 30.0455 11.2057 31.2253 12.172C33.7072 14.621 35.1301 18.0596 35.1301 21.6138C35.1301 28.861 29.2341 34.7569 21.9871 34.7569C14.74 34.7569 8.84411 28.8608 8.84411 21.6138C8.84411 18.0134 10.3023 14.5756 12.86 12.1007C13.9904 11.1392 14.7044 9.80713 14.8756 8.32552C15.0549 6.77523 14.6197 5.24799 13.6502 4.02494L11.4865 1.29553L8.37995 3.75818C5.85536 5.75943 5.42967 9.44149 7.43092 11.9661L8.55397 13.3828C8.18488 13.9916 7.85798 14.6248 7.57422 15.2773C6.74529 14.3091 5.62888 13.6415 4.36124 13.3715L0.954649 12.6459L0.128819 16.5233C-0.542232 19.6743 1.47523 22.7837 4.62619 23.4548L6.41347 23.8354C6.52943 24.6519 6.70767 25.4484 6.94441 26.2198C5.7187 26.0289 4.4237 26.223 3.2532 26.8619L0.195855 28.5305L2.09512 32.0102C2.84279 33.3801 4.07912 34.3768 5.57643 34.8168C6.12204 34.9771 6.67834 35.0564 7.23162 35.0564C8.1967 35.0564 9.15195 34.8148 10.0226 34.3396L11.6428 33.4553C12.1594 33.9072 12.7058 34.3258 13.2785 34.7079C12.1683 35.3532 11.3059 36.3399 10.8135 37.5488L9.49972 40.7746L13.1712 42.2698C13.883 42.5597 14.6293 42.7046 15.3754 42.7046C16.1443 42.7046 16.9129 42.5508 17.6428 42.2434C19.0811 41.6376 20.1974 40.508 20.786 39.0626L21.489 37.3365C21.6546 37.3417 21.8205 37.3452 21.9872 37.3452C22.1625 37.3452 22.3367 37.3413 22.5107 37.3356L23.2141 39.0627C23.8027 40.5081 24.919 41.6377 26.3573 42.2434C27.0872 42.5508 27.8557 42.7047 28.6247 42.7047C29.3707 42.7047 30.1172 42.5598 30.8289 42.2699L34.5004 40.7747L33.1866 37.5488C32.6922 36.335 31.8247 35.3453 30.708 34.7001C31.28 34.3177 31.8255 33.8988 32.3415 33.4468L33.9775 34.3397C34.8482 34.8149 35.8034 35.0565 36.7685 35.0565C37.3216 35.0565 37.8782 34.9771 38.4237 34.8168C39.921 34.3769 41.1573 33.3802 41.905 32.0103L43.8042 28.5306L40.7468 26.8619C39.5678 26.2183 38.2623 26.0262 37.0287 26.2243ZM18.3889 38.0863C18.061 38.8913 17.4392 39.5205 16.6382 39.8579C15.837 40.1953 14.9525 40.2006 14.1475 39.8727L12.8731 39.3536L13.2106 38.525C13.5385 37.7199 14.1602 37.0907 14.9613 36.7533C15.7624 36.4159 16.6469 36.4105 17.452 36.7385L18.7264 37.2576L18.3889 38.0863ZM31.1269 39.3537L29.8526 39.8728C29.0474 40.2006 28.1629 40.1954 27.3619 39.858C26.5607 39.5206 25.939 38.8914 25.6112 38.0863L25.2736 37.2577L26.548 36.7386C27.3531 36.4108 28.2376 36.416 29.0387 36.7534C29.8398 37.0908 30.4616 37.72 30.7894 38.5251L31.1269 39.3537ZM38.1258 17.3146C38.5989 16.5854 39.3277 16.084 40.1778 15.903L41.053 15.7166L41.3397 17.0625C41.5208 17.9126 41.3599 18.7825 40.8868 19.5117C40.4136 20.2409 39.6849 20.7422 38.8347 20.9233L37.9595 21.1097L37.6729 19.7638C37.4918 18.9136 37.6526 18.0438 38.1258 17.3146ZM32.3779 5.63286L32.9338 4.9317L34.0121 5.78652C34.6934 6.32652 35.1235 7.09946 35.2234 7.9629C35.3232 8.82643 35.0808 9.67711 34.5408 10.3583L33.985 11.0595L32.9067 10.2047C31.5003 9.08992 31.2632 7.03898 32.3779 5.63286ZM8.77673 7.96282C8.87655 7.09937 9.30672 6.32643 9.98796 5.78643L11.0663 4.93161L11.6221 5.63277C12.6342 6.90939 12.5318 8.71738 11.4521 9.87382C11.3409 9.97416 11.2315 10.0761 11.1236 10.1794C11.1134 10.1877 11.1038 10.1964 11.0935 10.2045L10.0151 11.0593L9.45934 10.3581C8.91926 9.67702 8.67683 8.82635 8.77673 7.96282ZM5.16533 20.9232C4.31517 20.7421 3.5864 20.2409 3.11326 19.5116C2.64013 18.7824 2.47922 17.9125 2.66032 17.0624L2.94701 15.7165L3.82219 15.9029C4.67235 16.084 5.4012 16.5853 5.87434 17.3145C6.34747 18.0437 6.50829 18.9135 6.32728 19.7638L6.04068 21.1096L5.16533 20.9232ZM8.7826 32.0677C8.01958 32.4841 7.14017 32.5785 6.30606 32.3335C5.47204 32.0885 4.78347 31.5333 4.36693 30.7703L3.7077 29.5624L4.49315 29.1337C5.25626 28.7173 6.13567 28.623 6.96969 28.8679C7.80372 29.1129 8.49228 29.6681 8.90882 30.4311L9.56805 31.639L8.7826 32.0677ZM39.633 30.7703C39.2166 31.5333 38.5279 32.0884 37.6939 32.3335C36.8598 32.5786 35.9804 32.4841 35.2173 32.0677L34.4319 31.639L35.0911 30.4311C35.5076 29.6681 36.1962 29.113 37.0302 28.8679C37.8644 28.6228 38.7438 28.7173 39.5068 29.1337L40.2922 29.5624L39.633 30.7703Z" fill="black"/>
<path d="M16.5331 23.4385L15.8727 30.0958L22 27.4101L28.1273 30.0954L27.4665 23.4381L31.9139 18.4405L25.3782 17.0117L21.9995 11.2377L18.621 17.0119L12.0854 18.441L16.5331 23.4385ZM20.2821 19.2982L21.9995 16.3628L23.7172 19.2981L27.0397 20.0244L24.7787 22.565L25.1147 25.9493L21.9998 24.5841L18.8849 25.9494L19.2207 22.5651L16.9597 20.0247L20.2821 19.2982Z" fill="white"/>
</g>
<defs>
<clipPath id="clip0">
<rect width="44" height="44" fill="white"/>
</clipPath>
</defs>
</svg>
