<svg width="31" height="29" viewBox="0 0 31 29" fill="none" xmlns="http://www.w3.org/2000/svg">
<path d="M18.2874 0.770584C15.5667 -0.800231 12.0933 0.130129 10.5223 2.85129L0.771727 19.7396C-1.74452 24.0978 2.28769 29.3799 7.16582 28.0726C8.63246 27.6795 9.85827 26.739 10.6175 25.424L20.3679 8.53562C21.9352 5.82125 21.0018 2.33779 18.2874 0.770584Z" fill="#F4DC4D"/>
<path d="M11.1854 21.1105C10.3723 18.0761 7.25852 16.2777 4.22336 17.091C-0.65651 18.3986 -1.50381 24.9895 2.85242 27.5046C7.19856 30.0139 12.5 26.0168 11.1854 21.1105Z" fill="#A0ED83"/>
<path d="M30.2395 19.7395L20.489 2.85117C19.7299 1.5362 18.504 0.595631 17.0374 0.202615C12.1577 -1.10513 8.12815 4.17928 10.6433 8.53557L20.3938 25.424C21.9642 28.144 25.4373 29.076 28.1589 27.5047C30.8733 25.9374 31.8067 22.454 30.2395 19.7395Z" fill="#86BFF2"/>
<path d="M11.1854 21.1105C10.3723 18.0761 7.25852 16.2777 4.22336 17.091C-0.65651 18.3986 -1.50381 24.9895 2.85242 27.5046C7.19856 30.0139 12.5 26.0168 11.1854 21.1105Z" fill="#A0ED83"/>
</svg>
