<svg width="42" height="42" viewBox="0 0 42 42" fill="none" xmlns="http://www.w3.org/2000/svg">
<path d="M37.8 2.09998C35.4851 2.0958 33.605 3.96906 33.6008 6.28407C33.5989 7.37517 34.0225 8.4241 34.7816 9.20783L27.1082 24.5519C26.94 24.524 26.7703 24.5067 26.6 24.5001C26.0578 24.5012 25.521 24.6077 25.0194 24.8137L19.0624 18.1147C19.4102 17.4999 19.5952 16.8065 19.6001 16.1001C19.6001 13.7805 17.7197 11.9001 15.4001 11.9001C13.0805 11.9001 11.2001 13.7805 11.2001 16.1001C11.2042 17.1027 11.5701 18.0701 12.2304 18.8245L4.95042 31.5756C4.70302 31.528 4.45192 31.5027 4.2 31.5C1.8804 31.5 0 33.3804 0 35.7C0 38.0196 1.8804 39.9 4.2 39.9C6.5196 39.9 8.4 38.0196 8.4 35.7C8.3959 34.6974 8.02996 33.73 7.36961 32.9756L14.6496 20.2244C15.4311 20.3788 16.241 20.2959 16.9751 19.9864L22.9321 26.6854C22.5863 27.3007 22.4031 27.9941 22.4001 28.7C22.3931 31.0196 24.2678 32.9057 26.5874 32.9126C28.907 32.9196 30.7931 31.045 30.8 28.7254C30.8033 27.6311 30.3794 26.5787 29.6184 25.7922L37.2918 10.4482C37.46 10.4761 37.6297 10.4934 37.8 10.5C40.1196 10.5 42 8.61958 42 6.29998C42 3.98038 40.1196 2.09998 37.8 2.09998ZM4.2 37.1C3.42677 37.1 2.79997 36.4732 2.79997 35.7C2.79997 34.9268 3.42677 34.3 4.2 34.3C4.97323 34.3 5.60003 34.9268 5.60003 35.7C5.60003 36.4732 4.97323 37.1 4.2 37.1ZM15.4 17.5C14.6267 17.5 13.9999 16.8732 13.9999 16.0999C13.9999 15.3267 14.6267 14.6999 15.4 14.6999C16.1732 14.6999 16.8 15.3267 16.8 16.0999C16.8 16.8732 16.1732 17.5 15.4 17.5ZM26.6 30.1C25.8268 30.1 25.2 29.4732 25.2 28.6999C25.2 27.9267 25.8268 27.2999 26.6 27.2999C27.3733 27.2999 28.0001 27.9267 28.0001 28.6999C28 29.4732 27.3732 30.1 26.6 30.1ZM37.8 7.70001C37.0268 7.70001 36.4 7.07321 36.4 6.29998C36.4 5.52676 37.0268 4.89996 37.8 4.89996C38.5732 4.89996 39.2 5.52676 39.2 6.29998C39.2 7.07321 38.5732 7.70001 37.8 7.70001Z" fill="black"/>
<mask id="mask0" mask-type="alpha" maskUnits="userSpaceOnUse" x="0" y="2" width="42" height="38">
<path d="M37.8 2.09998C35.4851 2.0958 33.605 3.96906 33.6008 6.28407C33.5989 7.37517 34.0225 8.4241 34.7816 9.20783L27.1082 24.5519C26.94 24.524 26.7703 24.5067 26.6 24.5001C26.0578 24.5012 25.521 24.6077 25.0194 24.8137L19.0624 18.1147C19.4102 17.4999 19.5952 16.8065 19.6001 16.1001C19.6001 13.7805 17.7197 11.9001 15.4001 11.9001C13.0805 11.9001 11.2001 13.7805 11.2001 16.1001C11.2042 17.1027 11.5701 18.0701 12.2304 18.8245L4.95042 31.5756C4.70302 31.528 4.45192 31.5027 4.2 31.5C1.8804 31.5 0 33.3804 0 35.7C0 38.0196 1.8804 39.9 4.2 39.9C6.5196 39.9 8.4 38.0196 8.4 35.7C8.3959 34.6974 8.02996 33.73 7.36961 32.9756L14.6496 20.2244C15.4311 20.3788 16.241 20.2959 16.9751 19.9864L22.9321 26.6854C22.5863 27.3007 22.4031 27.9941 22.4001 28.7C22.3931 31.0196 24.2678 32.9057 26.5874 32.9126C28.907 32.9196 30.7931 31.045 30.8 28.7254C30.8033 27.6311 30.3794 26.5787 29.6184 25.7922L37.2918 10.4482C37.46 10.4761 37.6297 10.4934 37.8 10.5C40.1196 10.5 42 8.61958 42 6.29998C42 3.98038 40.1196 2.09998 37.8 2.09998ZM4.2 37.1C3.42677 37.1 2.79997 36.4732 2.79997 35.7C2.79997 34.9268 3.42677 34.3 4.2 34.3C4.97323 34.3 5.60003 34.9268 5.60003 35.7C5.60003 36.4732 4.97323 37.1 4.2 37.1ZM15.4 17.5C14.6267 17.5 13.9999 16.8732 13.9999 16.0999C13.9999 15.3267 14.6267 14.6999 15.4 14.6999C16.1732 14.6999 16.8 15.3267 16.8 16.0999C16.8 16.8732 16.1732 17.5 15.4 17.5ZM26.6 30.1C25.8268 30.1 25.2 29.4732 25.2 28.6999C25.2 27.9267 25.8268 27.2999 26.6 27.2999C27.3733 27.2999 28.0001 27.9267 28.0001 28.6999C28 29.4732 27.3732 30.1 26.6 30.1ZM37.8 7.70001C37.0268 7.70001 36.4 7.07321 36.4 6.29998C36.4 5.52676 37.0268 4.89996 37.8 4.89996C38.5732 4.89996 39.2 5.52676 39.2 6.29998C39.2 7.07321 38.5732 7.70001 37.8 7.70001Z" fill="black"/>
</mask>
<g mask="url(#mask0)">
<circle cx="37.5" cy="6.5" r="4.5" fill="white"/>
<ellipse cx="4" cy="35.5" rx="5" ry="4.5" fill="white"/>
</g>
</svg>
