<svg width="31" height="31" viewBox="0 0 31 31" fill="none" xmlns="http://www.w3.org/2000/svg">
<path d="M3.67888 8.46947C3.20589 8.46947 2.82251 8.08597 2.82251 7.6131V3.67888C2.82251 3.20601 3.20589 2.82251 3.67888 2.82251H7.61322C8.08621 2.82251 8.4696 3.20601 8.4696 3.67888C8.4696 4.15176 8.08621 4.53526 7.61322 4.53526H4.5352V7.61316C4.5352 8.08609 4.15182 8.46947 3.67888 8.46947Z" fill="#FFC807"/>
<path d="M27.3212 28.1775H23.3869C22.9139 28.1775 22.5305 27.794 22.5305 27.3212C22.5305 26.8483 22.9139 26.4648 23.3869 26.4648H26.4649V23.3869C26.4649 22.914 26.8482 22.5305 27.3212 22.5305C27.7942 22.5305 28.1776 22.914 28.1776 23.3869V27.3212C28.1776 27.7941 27.7941 28.1775 27.3212 28.1775Z" fill="#FFC807"/>
<path d="M30.1436 31H0.856375C0.383383 31 0 30.6166 0 30.1436V0.856375C0 0.383504 0.383383 0 0.856375 0H30.1437C30.6166 0 31 0.383504 31 0.856375V30.1437C31 30.6166 30.6166 31 30.1436 31ZM1.71269 29.2873H29.2873V1.71269H1.71269V29.2873Z" fill="#FFC807"/>
<rect x="1" y="1" width="29" height="29" fill="#FFC807"/>
<path d="M20.8443 11.5608L20.8414 6.11556C20.8413 5.79503 20.5814 5.5354 20.2609 5.5354H17.0241C14.0793 5.5354 11.1079 7.70994 11.1079 12.5681C11.1079 15.0845 12.1743 17.0445 14.1294 18.159L10.1494 25.4647H14.012L17.3642 18.8843H17.609V25.4647H20.8506L20.8464 16.6132L20.8443 11.5608ZM16.9476 8.45043H17.6091V15.9692H17.1771C15.5023 15.9692 14.5025 14.6021 14.5025 12.3122C14.5025 9.46495 15.7656 8.45043 16.9476 8.45043Z" fill="#FFC807"/>
<path d="M20.8506 26.321H17.609C17.136 26.321 16.7526 25.9375 16.7526 25.4646V21.9712L14.7751 25.8533C14.6289 26.1403 14.334 26.321 14.012 26.321H10.1494C9.84726 26.321 9.56742 26.1618 9.41308 25.9018C9.25875 25.6421 9.25276 25.3202 9.39734 25.0549L12.9993 18.4432C11.2203 17.1255 10.2514 15.07 10.2514 12.568C10.2514 10.106 10.9756 8.05438 12.3455 6.6351C13.5632 5.37367 15.2248 4.67896 17.0241 4.67896H20.2609C21.0528 4.67896 21.6974 5.32317 21.6977 6.11513L21.7005 11.5602C21.7008 12.0331 21.3176 12.4167 20.8446 12.417C20.8444 12.417 20.8442 12.417 20.8441 12.417C20.3713 12.417 19.9881 12.0339 19.9878 11.5611L19.985 6.39158H17.024C14.6899 6.39158 11.964 8.00915 11.964 12.568C11.964 14.7731 12.8595 16.4491 14.5534 17.4149C14.9586 17.646 15.1044 18.1589 14.8813 18.5686L11.591 24.6082H13.487L16.601 18.4954C16.7472 18.2085 17.042 18.0278 17.3641 18.0278H17.6089C18.0819 18.0278 18.4653 18.4113 18.4653 18.8842V24.6082H19.9938L19.9901 16.6137C19.9899 16.1408 20.373 15.7572 20.846 15.7569C20.8461 15.7569 20.8463 15.7569 20.8464 15.7569C21.3193 15.7569 21.7026 16.14 21.7028 16.6128L21.707 25.4642C21.7071 25.6913 21.6169 25.9093 21.4563 26.0699C21.2958 26.2306 21.0778 26.321 20.8506 26.321ZM17.6091 16.8256H17.1772C14.9991 16.8256 13.6462 15.0962 13.6462 12.3122C13.6462 8.82975 15.4247 7.59404 16.9477 7.59404H17.6092C18.0822 7.59404 18.4656 7.97755 18.4656 8.45042V15.9692C18.4654 16.4422 18.0821 16.8256 17.6091 16.8256ZM16.7527 9.32272C15.8876 9.467 15.3589 10.5847 15.3589 12.3122C15.3589 13.2563 15.5515 14.7782 16.7527 15.0653V9.32272Z" fill="#151515"/>
</svg>
