<svg width="50" height="50" viewBox="0 0 50 50" fill="none" xmlns="http://www.w3.org/2000/svg">
<circle cx="25" cy="25" r="25" fill="#161616"/>
<path d="M25 13C20.4297 13 16.6211 16.7613 16.6211 21.5485C16.6211 23.367 17.1542 24.999 18.1903 26.5222L24.3602 36.4488C24.5125 36.6975 24.7563 36.8063 25.0001 36.8063C25.2438 36.8063 25.4876 36.6975 25.6398 36.4488L31.8402 26.4911C32.8458 25.0301 33.3789 23.3204 33.3789 21.5485C33.3789 16.839 29.6161 13 25 13ZM25 25.4342C22.8999 25.4342 21.1914 23.6911 21.1914 21.5485C21.1914 19.4059 22.8999 17.6628 25 17.6628C27.1001 17.6628 28.8086 19.4059 28.8086 21.5485C28.8086 23.6911 27.1001 25.4342 25 25.4342Z" fill="#FFDC62"/>
<path d="M25 13V17.6628C27.1001 17.6628 28.8086 19.406 28.8086 21.5485C28.8086 23.6911 27.1001 25.4342 25 25.4342V36.8063C25.2437 36.8063 25.4875 36.6975 25.6398 36.4489L31.8402 26.4911C32.8458 25.0301 33.3789 23.3204 33.3789 21.5485C33.3789 16.839 29.6161 13 25 13Z" fill="#FFC807"/>
</svg>
