<svg width="52" height="52" viewBox="0 0 52 52" fill="none" xmlns="http://www.w3.org/2000/svg">
<g clip-path="url(#clip0)">
<path d="M44.7587 19.639L41.1959 20.605C40.54 20.7828 40.1525 21.4587 40.3303 22.1146C40.5081 22.7705 41.184 23.158 41.8399 22.9802L45.4027 22.0142C46.0585 21.8364 46.4461 21.1605 46.2683 20.5046C46.0904 19.8488 45.4145 19.4612 44.7587 19.639Z" fill="white"/>
<path d="M45.2493 27.5288L42.2301 25.7976C41.6406 25.4596 40.8887 25.6635 40.5506 26.253C40.2125 26.8425 40.4163 27.5944 41.006 27.9325L44.0251 29.6637C44.6146 30.0017 45.3667 29.7978 45.7046 29.2083C46.0427 28.6188 45.8388 27.8669 45.2493 27.5288Z" fill="white"/>
<path d="M41.3855 13.2777C40.7961 12.9397 40.0441 13.1436 39.706 13.733L37.9748 16.7522C37.6368 17.3417 37.8406 18.0936 38.4302 18.4317C39.0197 18.7697 39.7717 18.5658 40.1097 17.9763L41.8409 14.9572C42.1789 14.3676 41.975 13.6157 41.3855 13.2777Z" fill="white"/>
<path d="M29.0189 8.60789C27.235 9.09154 26.1107 10.8111 26.3177 12.5941L25.5281 13.9712C24.1538 16.3679 21.6823 18.2464 18.9165 18.9963L11.791 20.9282C10.2428 21.348 9.19193 22.6988 9.07647 24.214L8.8722 24.2694C6.25285 24.9796 4.69962 27.6884 5.4098 30.3077C6.11999 32.9271 8.82879 34.4803 11.4481 33.7701L11.6524 33.7148C12.2848 34.6281 13.3042 35.2127 14.4119 35.2971L16.0773 41.4393C16.6099 43.4038 18.6416 44.5687 20.6061 44.0361C22.5705 43.5035 23.7355 41.4719 23.2028 39.5073L21.5929 33.5694L22.7805 33.2474C25.5461 32.4975 28.6281 32.8704 31.0249 34.2446L32.4019 35.0342C33.1239 36.6776 34.9629 37.5937 36.7467 37.1101C38.7112 36.5775 39.8761 34.5459 39.3435 32.5813L33.5476 11.2047C33.015 9.24017 30.9834 8.07525 29.0189 8.60789ZM10.8042 31.395C9.49448 31.7501 8.14008 30.9734 7.78499 29.6638C7.42989 28.3541 8.20651 26.9997 9.51619 26.6446L10.8042 31.395ZM20.8276 40.1513C21.0052 40.8062 20.6169 41.4834 19.962 41.6609C19.3072 41.8385 18.63 41.4502 18.4525 40.7953L16.8425 34.8574L19.2177 34.2134L20.8276 40.1513ZM20.9489 31.1942L15.0109 32.8042C14.3561 32.9817 13.6789 32.5934 13.5013 31.9386L11.5694 24.813C11.3918 24.1582 11.7801 23.481 12.435 23.3034L18.3729 21.6935L20.9489 31.1942ZM31.4526 31.6905C28.9754 30.498 26.1034 30.1185 23.3307 30.6062L20.7257 20.9977C23.3649 20.0181 25.6519 18.2399 27.1874 15.9594L31.4526 31.6905ZM36.9683 33.2253C37.1458 33.8802 36.7575 34.5574 36.1028 34.7349L36.1027 34.7349C35.4478 34.9125 34.7706 34.5241 34.5931 33.8693L28.7972 12.4927C28.6197 11.8378 29.008 11.1606 29.6629 10.9831C30.3177 10.8055 30.9949 11.1938 31.1724 11.8487L36.9683 33.2253Z" fill="black"/>
</g>
<defs>
<clipPath id="clip0">
<rect width="42" height="42" fill="white" transform="translate(0.236328 11.2271) rotate(-15.1699)"/>
</clipPath>
</defs>
</svg>
