<svg width="41" height="41" viewBox="0 0 41 41" fill="none" xmlns="http://www.w3.org/2000/svg">
<path d="M4.86553 11.2016C4.23996 11.2016 3.73291 10.6944 3.73291 10.0689V4.86563C3.73291 4.24022 4.23996 3.733 4.86553 3.733H10.069C10.6946 3.733 11.2016 4.24022 11.2016 4.86563C11.2016 5.49104 10.6946 5.99825 10.069 5.99825H5.99808V10.069C5.99808 10.6945 5.49102 11.2016 4.86553 11.2016Z" fill="black"/>
<path d="M36.1344 37.267H30.931C30.3054 37.267 29.7983 36.7598 29.7983 36.1344C29.7983 35.509 30.3054 35.0018 30.931 35.0018H35.0018V30.931C35.0018 30.3056 35.5089 29.7984 36.1344 29.7984C36.76 29.7984 37.2671 30.3056 37.2671 30.931V36.1344C37.2671 36.7599 36.7598 37.267 36.1344 37.267Z" fill="black"/>
<path d="M39.8674 41H1.13262C0.507055 41 0 40.4929 0 39.8674V1.13262C0 0.507215 0.507055 0 1.13262 0H39.8675C40.4929 0 41 0.507215 41 1.13262V39.8675C41 40.4929 40.4929 41 39.8674 41ZM2.26517 38.7348H38.7347V2.26517H2.26517V38.7348Z" fill="black"/>
<path d="M27.5682 15.29L27.5644 8.08828C27.5642 7.66434 27.2205 7.32097 26.7966 7.32097H22.5157C18.621 7.32097 14.691 10.197 14.691 16.6223C14.691 19.9504 16.1015 22.5426 18.6872 24.0167L13.4233 33.6791H18.5319L22.9654 24.976H23.2893V33.6791H27.5765L27.571 21.9723L27.5682 15.29ZM22.4145 11.1763H23.2894V21.1205H22.7181C20.503 21.1205 19.1806 19.3124 19.1806 16.2839C19.1806 12.5181 20.8511 11.1763 22.4145 11.1763Z" fill="white"/>
<path d="M27.5767 34.8116H23.2894C22.6638 34.8116 22.1568 34.3044 22.1568 33.679V29.0587L19.5413 34.193C19.348 34.5726 18.958 34.8116 18.532 34.8116H13.4235C13.0239 34.8116 12.6538 34.601 12.4496 34.2572C12.2455 33.9137 12.2376 33.488 12.4288 33.137L17.1927 24.3926C14.8398 22.6498 13.5584 19.9313 13.5584 16.6222C13.5584 13.3659 14.5161 10.6525 16.3281 8.77543C17.9385 7.10708 20.1361 6.18826 22.5158 6.18826H26.7967C27.8442 6.18826 28.6967 7.04029 28.697 8.08772L28.7008 15.2893C28.7011 15.9147 28.1943 16.4221 27.5687 16.4225C27.5685 16.4225 27.5682 16.4225 27.5681 16.4225C26.9428 16.4225 26.4359 15.9158 26.4355 15.2904L26.4319 8.45335H22.5157C19.4286 8.45335 15.8235 10.5927 15.8235 16.6221C15.8235 19.5386 17.0078 21.7553 19.2481 23.0326C19.7841 23.3382 19.9769 24.0166 19.6818 24.5584L15.3301 32.5463H17.8378L21.9563 24.4617C22.1496 24.0821 22.5395 23.8432 22.9655 23.8432H23.2893C23.9149 23.8432 24.4219 24.3504 24.4219 24.9758V32.5463H26.4435L26.4386 21.9729C26.4383 21.3475 26.945 20.8401 27.5706 20.8397C27.5707 20.8397 27.5709 20.8397 27.5712 20.8397C28.1965 20.8397 28.7036 21.3464 28.7038 21.9717L28.7093 33.6784C28.7094 33.9788 28.5902 34.2671 28.3778 34.4795C28.1654 34.6921 27.8772 34.8116 27.5767 34.8116ZM23.2895 22.2531H22.7183C19.8376 22.2531 18.0483 19.9659 18.0483 16.2839C18.0483 11.678 20.4005 10.0437 22.4148 10.0437H23.2896C23.9152 10.0437 24.4223 10.5509 24.4223 11.1763V21.1205C24.4221 21.7461 23.9151 22.2531 23.2895 22.2531ZM22.1569 12.33C21.0127 12.5208 20.3135 13.9991 20.3135 16.2839C20.3135 17.5325 20.5682 19.5453 22.1569 19.925V12.33Z" fill="black"/>
</svg>
