<svg width="533" height="262" viewBox="0 0 533 262" fill="none" xmlns="http://www.w3.org/2000/svg">
<g clip-path="url(#clip0)">
<path d="M521.225 23.9974V261.551H6.50874V23.9974H521.225ZM521.705 23.5315H6.04541V262H521.705V23.5315Z" fill="#3C3C3C"/>
<path d="M7.62436 29.2749H6.04541V23.5315H14.2148V24.6416H7.62436V29.2749Z" fill="#868686"/>
<path d="M521.917 28.77H520.338V24.1367H513.748V23.0266H521.917V28.77Z" fill="#868686"/>
<path d="M522.026 260.9H513.856V259.79H520.447V255.157H522.026V260.9Z" fill="#868686"/>
<path d="M14.282 262.142H6.04541V253.938H7.63735V260.556H14.282V262.142Z" fill="#868686"/>
</g>
<path d="M500.758 208.231H30.2266V209.209H500.758V208.231Z" fill="#2F2F2F"/>
<path d="M500.758 174.015H30.2266V174.993H500.758V174.015Z" fill="#2F2F2F"/>
<path d="M500.758 140.776H30.2266V141.754H500.758V140.776Z" fill="#2F2F2F"/>
<path d="M500.758 107.537H30.2266V108.515H500.758V107.537Z" fill="#2F2F2F"/>
<path d="M500.758 73.3208H30.2266V74.2984H500.758V73.3208Z" fill="#2F2F2F"/>
<path d="M67.3409 231.783L69.8209 227.063L66.9409 221.383H68.8289L70.7489 225.319L72.7009 221.383H74.4609L69.1009 231.783H67.3409ZM75.5556 221.383H78.1956C78.8676 221.383 79.3796 221.516 79.7316 221.783C80.1476 222.114 80.3556 222.546 80.3556 223.079C80.3556 223.687 80.089 224.124 79.5556 224.391C79.897 224.455 80.201 224.604 80.4676 224.839C80.8196 225.159 80.9956 225.591 80.9956 226.135C80.9956 226.786 80.7503 227.298 80.2596 227.671C79.8543 227.97 79.337 228.119 78.7076 228.119H75.5556V221.383ZM77.1236 224.007H77.9236C78.201 224.007 78.409 223.959 78.5476 223.863C78.7503 223.735 78.8516 223.554 78.8516 223.319C78.8516 223.095 78.761 222.919 78.5796 222.791C78.4516 222.706 78.2223 222.663 77.8916 222.663H77.1236V224.007ZM77.1236 226.839H78.2916C78.6436 226.839 78.9156 226.775 79.1076 226.647C79.321 226.508 79.4276 226.311 79.4276 226.055C79.4276 225.778 79.3263 225.58 79.1236 225.463C78.9423 225.346 78.681 225.287 78.3396 225.287H77.1236V226.839ZM87.3538 225.847L88.6658 226.583C88.3671 227.116 87.9884 227.527 87.5298 227.815C87.0071 228.156 86.3458 228.327 85.5458 228.327C84.6071 228.327 83.8498 228.039 83.2738 227.463C82.6124 226.802 82.2818 225.943 82.2818 224.887C82.2818 223.778 82.6391 222.855 83.3538 222.119C83.9618 221.511 84.7138 221.207 85.6098 221.207C86.4844 221.207 87.2044 221.5 87.7698 222.087C88.3991 222.738 88.7138 223.687 88.7138 224.935V225.127H83.8818C83.9244 225.692 84.1164 226.146 84.4578 226.487C84.7458 226.775 85.1458 226.919 85.6578 226.919C86.0738 226.919 86.4311 226.807 86.7298 226.583C86.9751 226.391 87.1831 226.146 87.3538 225.847ZM83.9938 223.847H87.1138C87.0498 223.474 86.8898 223.17 86.6338 222.935C86.3564 222.679 86.0044 222.551 85.5778 222.551C85.1298 222.551 84.7618 222.695 84.4738 222.983C84.2391 223.196 84.0791 223.484 83.9938 223.847ZM95.8885 221.383V228.119H94.3205V222.823H92.3365V225.495C92.3365 226.327 92.1232 226.972 91.6965 227.431C91.1525 228.039 90.4165 228.268 89.4885 228.119V226.679C89.9472 226.786 90.3152 226.684 90.5925 226.375C90.7525 226.183 90.8325 225.89 90.8325 225.495V221.383H95.8885ZM97.8681 221.383H99.4361V225.207L104.044 220.775V228.119H102.476V224.199L97.8681 228.631V221.383ZM109.672 228.119V225.511C109.192 225.607 108.734 225.655 108.296 225.655C107.528 225.655 106.936 225.49 106.52 225.159C106.083 224.807 105.864 224.268 105.864 223.543V221.383H107.432V223.223C107.432 223.682 107.566 223.991 107.832 224.151C108.014 224.258 108.275 224.311 108.616 224.311C109 224.311 109.352 224.252 109.672 224.135V221.383H111.24V228.119H109.672ZM117.948 225.847L119.26 226.583C118.961 227.116 118.582 227.527 118.124 227.815C117.601 228.156 116.94 228.327 116.14 228.327C115.201 228.327 114.444 228.039 113.868 227.463C113.206 226.802 112.876 225.943 112.876 224.887C112.876 223.778 113.233 222.855 113.948 222.119C114.556 221.511 115.308 221.207 116.204 221.207C117.078 221.207 117.798 221.5 118.364 222.087C118.993 222.738 119.308 223.687 119.308 224.935V225.127H114.476C114.518 225.692 114.71 226.146 115.052 226.487C115.34 226.775 115.74 226.919 116.252 226.919C116.668 226.919 117.025 226.807 117.324 226.583C117.569 226.391 117.777 226.146 117.948 225.847ZM114.588 223.847H117.708C117.644 223.474 117.484 223.17 117.228 222.935C116.95 222.679 116.598 222.551 116.172 222.551C115.724 222.551 115.356 222.695 115.068 222.983C114.833 223.196 114.673 223.484 114.588 223.847ZM120.946 228.119V221.383H122.514V223.879H125.298V221.383H126.866V228.119H125.298V225.319H122.514V228.119H120.946ZM128.853 221.383H130.421V225.207L135.029 220.775V228.119H133.461V224.199L128.853 228.631V221.383ZM141.729 225.847L143.041 226.583C142.742 227.116 142.363 227.527 141.905 227.815C141.382 228.156 140.721 228.327 139.921 228.327C138.982 228.327 138.225 228.039 137.649 227.463C136.987 226.802 136.657 225.943 136.657 224.887C136.657 223.778 137.014 222.855 137.729 222.119C138.337 221.511 139.089 221.207 139.985 221.207C140.859 221.207 141.579 221.5 142.145 222.087C142.774 222.738 143.089 223.687 143.089 224.935V225.127H138.257C138.299 225.692 138.491 226.146 138.833 226.487C139.121 226.775 139.521 226.919 140.033 226.919C140.449 226.919 140.806 226.807 141.105 226.583C141.35 226.391 141.558 226.146 141.729 225.847ZM138.369 223.847H141.489C141.425 223.474 141.265 223.17 141.009 222.935C140.731 222.679 140.379 222.551 139.953 222.551C139.505 222.551 139.137 222.695 138.849 222.983C138.614 223.196 138.454 223.484 138.369 223.847ZM55.1239 242.127L54.1159 241.247C54.3719 240.938 54.7132 240.687 55.1399 240.495C55.5879 240.303 56.1159 240.207 56.7239 240.207C57.4279 240.207 57.9986 240.362 58.4359 240.671C58.9052 241.012 59.1399 241.471 59.1399 242.047C59.1399 242.42 59.0439 242.73 58.8519 242.975C58.6919 243.188 58.4786 243.348 58.2119 243.455C58.6172 243.54 58.9426 243.706 59.1879 243.951C59.4759 244.239 59.6199 244.612 59.6199 245.071C59.6199 245.679 59.4279 246.175 59.0439 246.559C58.5319 247.071 57.7426 247.327 56.6759 247.327C55.9612 247.327 55.3746 247.194 54.9159 246.927C54.4359 246.65 54.0839 246.25 53.8599 245.727L55.1079 245.087C55.2572 245.407 55.4546 245.642 55.6999 245.791C55.9666 245.962 56.3026 246.047 56.7079 246.047C57.1986 246.047 57.5559 245.935 57.7799 245.711C57.9399 245.53 58.0199 245.332 58.0199 245.119C58.0199 244.895 57.9506 244.714 57.8119 244.575C57.6306 244.383 57.2572 244.287 56.6919 244.287H55.9879V243.007H56.5799C56.9212 243.007 57.1772 242.948 57.3479 242.831C57.5399 242.682 57.6359 242.484 57.6359 242.239C57.6359 241.983 57.5399 241.791 57.3479 241.663C57.1879 241.546 56.9372 241.487 56.5959 241.487C56.2759 241.487 55.9826 241.551 55.7159 241.679C55.4919 241.786 55.2946 241.935 55.1239 242.127ZM66.1868 241.167V240.383H67.7548V247.119H66.1868V246.415C65.6641 247.023 64.9921 247.327 64.1708 247.327C63.1788 247.327 62.3841 246.975 61.7868 246.271C61.2001 245.567 60.9068 244.724 60.9068 243.743C60.9068 242.676 61.2214 241.823 61.8508 241.183C62.4908 240.532 63.2694 240.207 64.1868 240.207C65.0294 240.207 65.6961 240.527 66.1868 241.167ZM64.3788 241.615C63.8241 241.615 63.3708 241.823 63.0188 242.239C62.6774 242.655 62.5068 243.167 62.5068 243.775C62.5068 244.372 62.6774 244.879 63.0188 245.295C63.3708 245.711 63.8241 245.919 64.3788 245.919C64.9121 245.919 65.3601 245.732 65.7228 245.359C66.0961 244.986 66.2828 244.463 66.2828 243.791C66.2828 243.098 66.0961 242.564 65.7228 242.191C65.3601 241.807 64.9121 241.615 64.3788 241.615ZM68.8791 247.119L70.9911 244.447C70.5751 244.383 70.2178 244.212 69.9191 243.935C69.5458 243.572 69.3591 243.108 69.3591 242.543C69.3591 241.903 69.5671 241.386 69.9831 240.991C70.4098 240.586 71.0605 240.383 71.9351 240.383H74.4471V247.119H72.8791V244.639H72.5591L70.7191 247.119H68.8791ZM72.8791 243.359V241.727H71.9671C71.5938 241.727 71.3218 241.775 71.1511 241.871C70.8951 242.031 70.7671 242.255 70.7671 242.543C70.7671 242.831 70.8738 243.05 71.0871 243.199C71.2471 243.306 71.5351 243.359 71.9511 243.359H72.8791ZM76.4306 240.383H79.0706C79.7426 240.383 80.2546 240.516 80.6066 240.783C81.0226 241.114 81.2306 241.546 81.2306 242.079C81.2306 242.687 80.964 243.124 80.4306 243.391C80.772 243.455 81.076 243.604 81.3426 243.839C81.6946 244.159 81.8706 244.591 81.8706 245.135C81.8706 245.786 81.6253 246.298 81.1346 246.671C80.7293 246.97 80.212 247.119 79.5826 247.119H76.4306V240.383ZM77.9986 243.007H78.7986C79.076 243.007 79.284 242.959 79.4226 242.863C79.6253 242.735 79.7266 242.554 79.7266 242.319C79.7266 242.095 79.636 241.919 79.4546 241.791C79.3266 241.706 79.0973 241.663 78.7666 241.663H77.9986V243.007ZM77.9986 245.839H79.1666C79.5186 245.839 79.7906 245.775 79.9826 245.647C80.196 245.508 80.3026 245.311 80.3026 245.055C80.3026 244.778 80.2013 244.58 79.9986 244.463C79.8173 244.346 79.556 244.287 79.2146 244.287H77.9986V245.839ZM84.1808 241.215C84.8741 240.543 85.7328 240.207 86.7568 240.207C87.7808 240.207 88.6341 240.543 89.3168 241.215C90.0101 241.876 90.3568 242.724 90.3568 243.759C90.3568 244.783 90.0101 245.636 89.3168 246.319C88.6341 246.991 87.7808 247.327 86.7568 247.327C85.7328 247.327 84.8741 246.991 84.1808 246.319C83.4981 245.636 83.1568 244.783 83.1568 243.759C83.1568 242.724 83.4981 241.876 84.1808 241.215ZM85.3008 245.343C85.6634 245.727 86.1488 245.919 86.7568 245.919C87.3648 245.919 87.8501 245.727 88.2128 245.343C88.5754 244.948 88.7568 244.426 88.7568 243.775C88.7568 243.06 88.5594 242.522 88.1648 242.159C87.7808 241.796 87.3114 241.615 86.7568 241.615C86.2021 241.615 85.7274 241.796 85.3328 242.159C84.9488 242.522 84.7568 243.06 84.7568 243.775C84.7568 244.426 84.9381 244.948 85.3008 245.343ZM91.9931 240.383H93.5611V242.783L95.8011 240.383H97.8811L94.9371 243.327L98.0411 247.119H96.0571L93.8171 244.351L93.5611 244.607V247.119H91.9931V240.383ZM102.806 240.383H105.446C106.118 240.383 106.63 240.516 106.982 240.783C107.398 241.114 107.606 241.546 107.606 242.079C107.606 242.687 107.339 243.124 106.806 243.391C107.147 243.455 107.451 243.604 107.718 243.839C108.07 244.159 108.246 244.591 108.246 245.135C108.246 245.786 108 246.298 107.51 246.671C107.104 246.97 106.587 247.119 105.958 247.119H102.806V240.383ZM104.374 243.007H105.174C105.451 243.007 105.659 242.959 105.798 242.863C106 242.735 106.102 242.554 106.102 242.319C106.102 242.095 106.011 241.919 105.83 241.791C105.702 241.706 105.472 241.663 105.142 241.663H104.374V243.007ZM104.374 245.839H105.542C105.894 245.839 106.166 245.775 106.358 245.647C106.571 245.508 106.678 245.311 106.678 245.055C106.678 244.778 106.576 244.58 106.374 244.463C106.192 244.346 105.931 244.287 105.59 244.287H104.374V245.839ZM116.626 247.119V237.951H114.77L115.666 236.447H118.258V247.119H116.626ZM127.477 246.143C126.805 246.911 125.999 247.295 125.061 247.295C124.122 247.295 123.317 246.911 122.645 246.143C121.738 245.108 121.285 243.658 121.285 241.791C121.285 239.914 121.738 238.458 122.645 237.423C123.317 236.655 124.122 236.271 125.061 236.271C125.999 236.271 126.805 236.655 127.477 237.423C128.383 238.458 128.837 239.914 128.837 241.791C128.837 243.658 128.383 245.108 127.477 246.143ZM126.501 238.591C126.117 238.004 125.637 237.711 125.061 237.711C124.485 237.711 124.005 238.004 123.621 238.591C123.13 239.316 122.885 240.378 122.885 241.775C122.885 243.162 123.13 244.228 123.621 244.975C124.005 245.562 124.485 245.855 125.061 245.855C125.637 245.855 126.117 245.562 126.501 244.975C126.991 244.228 127.237 243.162 127.237 241.775C127.237 240.378 126.991 239.316 126.501 238.591ZM135.905 246.335V250.783H134.337V240.383H135.905V241.119C136.417 240.511 137.084 240.207 137.905 240.207C138.822 240.207 139.596 240.532 140.225 241.183C140.865 241.823 141.185 242.666 141.185 243.711C141.185 244.788 140.854 245.663 140.193 246.335C139.532 246.996 138.774 247.327 137.921 247.327C137.121 247.327 136.449 246.996 135.905 246.335ZM137.713 241.615C137.18 241.615 136.726 241.807 136.353 242.191C135.99 242.564 135.809 243.098 135.809 243.791C135.809 244.463 135.99 244.986 136.353 245.359C136.726 245.732 137.18 245.919 137.713 245.919C138.268 245.919 138.716 245.711 139.057 245.295C139.409 244.879 139.585 244.372 139.585 243.775C139.585 243.167 139.409 242.655 139.057 242.239C138.716 241.823 138.268 241.615 137.713 241.615ZM147.749 241.167V240.383H149.317V247.119H147.749V246.415C147.227 247.023 146.555 247.327 145.733 247.327C144.741 247.327 143.947 246.975 143.349 246.271C142.763 245.567 142.469 244.724 142.469 243.743C142.469 242.676 142.784 241.823 143.413 241.183C144.053 240.532 144.832 240.207 145.749 240.207C146.592 240.207 147.259 240.527 147.749 241.167ZM145.941 241.615C145.387 241.615 144.933 241.823 144.581 242.239C144.24 242.655 144.069 243.167 144.069 243.775C144.069 244.372 144.24 244.879 144.581 245.295C144.933 245.711 145.387 245.919 145.941 245.919C146.475 245.919 146.923 245.732 147.285 245.359C147.659 244.986 147.845 244.463 147.845 243.791C147.845 243.098 147.659 242.564 147.285 242.191C146.923 241.807 146.475 241.615 145.941 241.615ZM152.218 242.127L151.21 241.247C151.466 240.938 151.807 240.687 152.234 240.495C152.682 240.303 153.21 240.207 153.818 240.207C154.522 240.207 155.092 240.362 155.53 240.671C155.999 241.012 156.234 241.471 156.234 242.047C156.234 242.42 156.138 242.73 155.946 242.975C155.786 243.188 155.572 243.348 155.306 243.455C155.711 243.54 156.036 243.706 156.282 243.951C156.57 244.239 156.714 244.612 156.714 245.071C156.714 245.679 156.522 246.175 156.138 246.559C155.626 247.071 154.836 247.327 153.77 247.327C153.055 247.327 152.468 247.194 152.01 246.927C151.53 246.65 151.178 246.25 150.954 245.727L152.202 245.087C152.351 245.407 152.548 245.642 152.794 245.791C153.06 245.962 153.396 246.047 153.802 246.047C154.292 246.047 154.65 245.935 154.874 245.711C155.034 245.53 155.114 245.332 155.114 245.119C155.114 244.895 155.044 244.714 154.906 244.575C154.724 244.383 154.351 244.287 153.786 244.287H153.082V243.007H153.674C154.015 243.007 154.271 242.948 154.442 242.831C154.634 242.682 154.73 242.484 154.73 242.239C154.73 241.983 154.634 241.791 154.442 241.663C154.282 241.546 154.031 241.487 153.69 241.487C153.37 241.487 153.076 241.551 152.81 241.679C152.586 241.786 152.388 241.935 152.218 242.127Z" fill="#E9EAF5"/>
<path d="M65.8599 54.0596V43.3876H71.1559V44.5076H67.0439V47.8196H68.4839C70.9372 47.8196 72.1639 48.8222 72.1639 50.8276C72.1639 51.8302 71.8492 52.6196 71.2199 53.1956C70.6012 53.7716 69.7639 54.0596 68.7079 54.0596H65.8599ZM67.0439 48.9396V52.9396H68.4199C69.3266 52.9396 69.9826 52.7422 70.3879 52.3476C70.7612 51.9956 70.9479 51.4889 70.9479 50.8276C70.9479 50.0596 70.6599 49.5209 70.0839 49.2116C69.7532 49.0302 69.1559 48.9396 68.2919 48.9396H67.0439ZM74.0563 54.0596V47.4196H75.2083V49.9636H76.3923C77.3096 49.9636 77.9816 50.1822 78.4083 50.6196C78.7496 50.9609 78.9203 51.4249 78.9203 52.0116C78.9203 52.6302 78.7229 53.1262 78.3283 53.4996C77.9336 53.8729 77.2829 54.0596 76.3763 54.0596H74.0563ZM75.2083 53.0356H76.2803C76.7603 53.0356 77.1016 52.9769 77.3043 52.8596C77.5923 52.6676 77.7363 52.3849 77.7363 52.0116C77.7363 51.6276 77.5976 51.3502 77.3203 51.1796C77.1283 51.0516 76.7869 50.9876 76.2963 50.9876H75.2083V53.0356ZM79.7203 54.0596V47.4196H80.8723V54.0596H79.7203ZM88.0646 47.4196V54.0596H86.9126V48.4756H84.5446V51.4676C84.5446 52.3316 84.374 52.9716 84.0326 53.3876C83.6486 53.8569 83.1153 54.0916 82.4326 54.0916C82.3473 54.0916 82.23 54.0809 82.0806 54.0596V53.0036C82.1873 53.0249 82.2726 53.0356 82.3366 53.0356C82.71 53.0356 82.9873 52.8916 83.1686 52.6036C83.318 52.3689 83.3926 51.9902 83.3926 51.4676V47.4196H88.0646ZM95.8598 53.2596C95.1984 53.9209 94.3611 54.2516 93.3478 54.2516C92.3344 54.2516 91.4918 53.9209 90.8198 53.2596C90.1584 52.5982 89.8278 51.7662 89.8278 50.7636C89.8278 49.7502 90.1584 48.9129 90.8198 48.2516C91.4918 47.5902 92.3344 47.2596 93.3478 47.2596C94.3611 47.2596 95.1984 47.5902 95.8598 48.2516C96.5318 48.9129 96.8678 49.7502 96.8678 50.7636C96.8678 51.7662 96.5318 52.5982 95.8598 53.2596ZM94.9958 48.9396C94.5478 48.5022 93.9984 48.2836 93.3478 48.2836C92.6971 48.2836 92.1424 48.5076 91.6838 48.9556C91.2358 49.3929 91.0118 49.9956 91.0118 50.7636C91.0118 51.5316 91.2411 52.1342 91.6998 52.5716C92.1584 53.0089 92.7078 53.2276 93.3478 53.2276C93.9878 53.2276 94.5371 53.0089 94.9958 52.5716C95.4544 52.1342 95.6838 51.5316 95.6838 50.7636C95.6838 49.9849 95.4544 49.3769 94.9958 48.9396Z" fill="#E9EAF5"/>
<path d="M161.678 44.2676V45.7396C161.251 45.3129 160.787 44.9822 160.286 44.7476C159.678 44.4702 159.064 44.3316 158.446 44.3316C157.219 44.3316 156.195 44.7636 155.374 45.6276C154.563 46.4809 154.158 47.5316 154.158 48.7796C154.158 50.1236 154.6 51.1849 155.486 51.9636C156.382 52.7422 157.374 53.1316 158.462 53.1316C159.144 53.1316 159.806 52.9662 160.446 52.6356C160.894 52.4116 161.304 52.1129 161.678 51.7396V53.2116C160.707 53.9049 159.635 54.2516 158.462 54.2516C156.883 54.2516 155.566 53.7236 154.51 52.6676C153.464 51.6116 152.942 50.3102 152.942 48.7636C152.942 47.1742 153.47 45.8516 154.526 44.7956C155.592 43.7396 156.926 43.2116 158.526 43.2116C159.699 43.2116 160.75 43.5636 161.678 44.2676ZM167.582 48.4756H165.502V54.0596H164.35V48.4756H162.27V47.4196H167.582V48.4756ZM173.677 48.3636V47.4196H174.829V54.0596H173.677V53.1316C173.101 53.8782 172.344 54.2516 171.405 54.2516C170.509 54.2516 169.746 53.9422 169.117 53.3236C168.488 52.7049 168.173 51.8409 168.173 50.7316C168.173 49.6436 168.482 48.7956 169.101 48.1876C169.73 47.5689 170.498 47.2596 171.405 47.2596C172.365 47.2596 173.122 47.6276 173.677 48.3636ZM171.533 48.2836C170.925 48.2836 170.408 48.5022 169.981 48.9396C169.565 49.3662 169.357 49.9636 169.357 50.7316C169.357 51.4676 169.549 52.0702 169.933 52.5396C170.328 52.9982 170.861 53.2276 171.533 53.2276C172.205 53.2276 172.738 52.9876 173.133 52.5076C173.538 52.0276 173.741 51.4409 173.741 50.7476C173.741 49.9582 173.517 49.3502 173.069 48.9236C172.621 48.4969 172.109 48.2836 171.533 48.2836ZM182.035 47.4196V54.0596H180.883V48.4756H178.515V51.4676C178.515 52.3316 178.344 52.9716 178.003 53.3876C177.619 53.8569 177.086 54.0916 176.403 54.0916C176.318 54.0916 176.2 54.0809 176.051 54.0596V53.0036C176.158 53.0249 176.243 53.0356 176.307 53.0356C176.68 53.0356 176.958 52.8916 177.139 52.6036C177.288 52.3689 177.363 51.9902 177.363 51.4676V47.4196H182.035ZM189.83 53.2596C189.169 53.9209 188.331 54.2516 187.318 54.2516C186.305 54.2516 185.462 53.9209 184.79 53.2596C184.129 52.5982 183.798 51.7662 183.798 50.7636C183.798 49.7502 184.129 48.9129 184.79 48.2516C185.462 47.5902 186.305 47.2596 187.318 47.2596C188.331 47.2596 189.169 47.5902 189.83 48.2516C190.502 48.9129 190.838 49.7502 190.838 50.7636C190.838 51.7662 190.502 52.5982 189.83 53.2596ZM188.966 48.9396C188.518 48.5022 187.969 48.2836 187.318 48.2836C186.667 48.2836 186.113 48.5076 185.654 48.9556C185.206 49.3929 184.982 49.9956 184.982 50.7636C184.982 51.5316 185.211 52.1342 185.67 52.5716C186.129 53.0089 186.678 53.2276 187.318 53.2276C187.958 53.2276 188.507 53.0089 188.966 52.5716C189.425 52.1342 189.654 51.5316 189.654 50.7636C189.654 49.9849 189.425 49.3769 188.966 48.9396Z" fill="#E9EAF5"/>
<path opacity="0.5" d="M101.764 73.3208H41.3101V209.209H101.764V73.3208Z" fill="#2B2B2B"/>
<path d="M101.764 179.88H41.3101V209.209H101.764V179.88Z" fill="url(#paint0_linear)"/>
<path d="M53.4008 42.0371H41.3101V53.7685H53.4008V42.0371Z" fill="url(#paint1_linear)"/>
<path d="M169.271 73.3208H108.817V209.209H169.271V73.3208Z" fill="url(#paint2_linear)"/>
<path d="M141.059 42.0371H128.968V53.7685H141.059V42.0371Z" fill="url(#paint3_linear)"/>
<path d="M225.137 231.783L227.617 227.063L224.737 221.383H226.625L228.545 225.319L230.497 221.383H232.257L226.897 231.783H225.137ZM232.584 228.119L234.216 220.775L237 225.911L239.784 220.775L241.416 228.119H239.816L239.144 224.743L237 228.631L234.856 224.743L234.184 228.119H232.584ZM247.353 225.847L248.665 226.583C248.366 227.117 247.987 227.527 247.529 227.815C247.006 228.157 246.345 228.327 245.545 228.327C244.606 228.327 243.849 228.039 243.273 227.463C242.611 226.802 242.281 225.943 242.281 224.887C242.281 223.778 242.638 222.855 243.353 222.119C243.961 221.511 244.713 221.207 245.609 221.207C246.483 221.207 247.203 221.501 247.769 222.087C248.398 222.738 248.713 223.687 248.713 224.935V225.127H243.881C243.923 225.693 244.115 226.146 244.457 226.487C244.745 226.775 245.145 226.919 245.657 226.919C246.073 226.919 246.43 226.807 246.729 226.583C246.974 226.391 247.182 226.146 247.353 225.847ZM243.993 223.847H247.113C247.049 223.474 246.889 223.17 246.633 222.935C246.355 222.679 246.003 222.551 245.577 222.551C245.129 222.551 244.761 222.695 244.473 222.983C244.238 223.197 244.078 223.485 243.993 223.847ZM250.352 228.119V221.383H251.92V223.879H254.704V221.383H256.272V228.119H254.704V225.319H251.92V228.119H250.352ZM258.258 228.119V221.383H259.826V223.767H260.722C261.01 223.767 261.244 223.778 261.426 223.799C261.607 223.81 261.826 223.869 262.082 223.975C262.338 224.082 262.562 224.242 262.754 224.455C263.106 224.85 263.282 225.341 263.282 225.927C263.282 226.599 263.079 227.138 262.674 227.543C262.492 227.725 262.274 227.863 262.018 227.959C261.772 228.045 261.564 228.093 261.394 228.103C261.234 228.114 261.004 228.119 260.706 228.119H258.258ZM259.826 226.775H260.546C260.93 226.775 261.202 226.727 261.362 226.631C261.596 226.461 261.714 226.231 261.714 225.943C261.714 225.645 261.602 225.421 261.378 225.271C261.207 225.165 260.935 225.111 260.562 225.111H259.826V226.775ZM264.664 228.119V221.383H266.232V226.679H268.472V221.383H270.04V226.679H272.28V221.383H273.848V228.119H264.664ZM280.556 225.847L281.868 226.583C281.569 227.117 281.191 227.527 280.732 227.815C280.209 228.157 279.548 228.327 278.748 228.327C277.809 228.327 277.052 228.039 276.476 227.463C275.815 226.802 275.484 225.943 275.484 224.887C275.484 223.778 275.841 222.855 276.556 222.119C277.164 221.511 277.916 221.207 278.812 221.207C279.687 221.207 280.407 221.501 280.972 222.087C281.601 222.738 281.916 223.687 281.916 224.935V225.127H277.084C277.127 225.693 277.319 226.146 277.66 226.487C277.948 226.775 278.348 226.919 278.86 226.919C279.276 226.919 279.633 226.807 279.932 226.583C280.177 226.391 280.385 226.146 280.556 225.847ZM277.196 223.847H280.316C280.252 223.474 280.092 223.17 279.836 222.935C279.559 222.679 279.207 222.551 278.78 222.551C278.332 222.551 277.964 222.695 277.676 222.983C277.441 223.197 277.281 223.485 277.196 223.847ZM283.555 228.119V221.383H285.123V223.879H287.907V221.383H289.475V228.119H287.907V225.319H285.123V228.119H283.555ZM291.461 221.383H293.029V225.207L297.637 220.775V228.119H296.069V224.199L291.461 228.631V221.383ZM304.337 225.847L305.649 226.583C305.351 227.117 304.972 227.527 304.513 227.815C303.991 228.157 303.329 228.327 302.529 228.327C301.591 228.327 300.833 228.039 300.257 227.463C299.596 226.802 299.265 225.943 299.265 224.887C299.265 223.778 299.623 222.855 300.337 222.119C300.945 221.511 301.697 221.207 302.593 221.207C303.468 221.207 304.188 221.501 304.753 222.087C305.383 222.738 305.697 223.687 305.697 224.935V225.127H300.865C300.908 225.693 301.1 226.146 301.441 226.487C301.729 226.775 302.129 226.919 302.641 226.919C303.057 226.919 303.415 226.807 303.713 226.583C303.959 226.391 304.167 226.146 304.337 225.847ZM300.977 223.847H304.097C304.033 223.474 303.873 223.17 303.617 222.935C303.34 222.679 302.988 222.551 302.561 222.551C302.113 222.551 301.745 222.695 301.457 222.983C301.223 223.197 301.063 223.485 300.977 223.847ZM224.32 247.119V240.383H225.888V245.679H228.544V240.383H230.112V245.679H231.232V249.039H229.792V247.119H224.32ZM237.072 244.847L238.384 245.583C238.085 246.117 237.706 246.527 237.248 246.815C236.725 247.157 236.064 247.327 235.264 247.327C234.325 247.327 233.568 247.039 232.992 246.463C232.33 245.802 232 244.943 232 243.887C232 242.778 232.357 241.855 233.072 241.119C233.68 240.511 234.432 240.207 235.328 240.207C236.202 240.207 236.922 240.501 237.488 241.087C238.117 241.738 238.432 242.687 238.432 243.935V244.127H233.6C233.642 244.693 233.834 245.146 234.176 245.487C234.464 245.775 234.864 245.919 235.376 245.919C235.792 245.919 236.149 245.807 236.448 245.583C236.693 245.391 236.901 245.146 237.072 244.847ZM233.712 242.847H236.832C236.768 242.474 236.608 242.17 236.352 241.935C236.074 241.679 235.722 241.551 235.296 241.551C234.848 241.551 234.48 241.695 234.192 241.983C233.957 242.197 233.797 242.485 233.712 242.847ZM240.07 247.119V240.383H241.638V242.879H244.422V240.383H245.99V247.119H244.422V244.319H241.638V247.119H240.07ZM247.977 247.119V240.383H249.545V242.767H250.441C250.729 242.767 250.963 242.778 251.145 242.799C251.326 242.81 251.545 242.869 251.801 242.975C252.057 243.082 252.281 243.242 252.473 243.455C252.825 243.85 253.001 244.341 253.001 244.927C253.001 245.599 252.798 246.138 252.393 246.543C252.211 246.725 251.993 246.863 251.737 246.959C251.491 247.045 251.283 247.093 251.113 247.103C250.953 247.114 250.723 247.119 250.425 247.119H247.977ZM249.545 245.775H250.265C250.649 245.775 250.921 245.727 251.081 245.631C251.315 245.461 251.433 245.231 251.433 244.943C251.433 244.645 251.321 244.421 251.097 244.271C250.926 244.165 250.654 244.111 250.281 244.111H249.545V245.775ZM253.705 247.119V240.383H255.273V247.119H253.705ZM260.992 240.383H263.632C264.304 240.383 264.816 240.517 265.168 240.783C265.584 241.114 265.792 241.546 265.792 242.079C265.792 242.687 265.526 243.125 264.992 243.391C265.334 243.455 265.638 243.605 265.904 243.839C266.256 244.159 266.432 244.591 266.432 245.135C266.432 245.786 266.187 246.298 265.696 246.671C265.291 246.97 264.774 247.119 264.144 247.119H260.992V240.383ZM262.56 243.007H263.36C263.638 243.007 263.846 242.959 263.984 242.863C264.187 242.735 264.288 242.554 264.288 242.319C264.288 242.095 264.198 241.919 264.016 241.791C263.888 241.706 263.659 241.663 263.328 241.663H262.56V243.007ZM262.56 245.839H263.728C264.08 245.839 264.352 245.775 264.544 245.647C264.758 245.509 264.864 245.311 264.864 245.055C264.864 244.778 264.763 244.581 264.56 244.463C264.379 244.346 264.118 244.287 263.776 244.287H262.56V245.839ZM276.381 236.079L277.565 236.959L275.021 240.175C275.234 240.133 275.458 240.111 275.693 240.111C276.695 240.111 277.517 240.442 278.157 241.103C278.786 241.765 279.101 242.597 279.101 243.599C279.101 244.698 278.749 245.594 278.045 246.287C277.362 246.959 276.445 247.295 275.293 247.295C274.13 247.295 273.213 246.949 272.541 246.255C271.922 245.605 271.613 244.799 271.613 243.839C271.613 243.135 271.783 242.453 272.125 241.791C272.199 241.642 272.274 241.503 272.349 241.375C272.434 241.237 272.525 241.093 272.621 240.943C272.727 240.794 272.807 240.687 272.861 240.623C272.914 240.549 273.01 240.421 273.149 240.239C273.298 240.047 273.389 239.93 273.421 239.887L276.381 236.079ZM276.877 242.095C276.482 241.701 275.981 241.503 275.373 241.503C274.765 241.503 274.253 241.701 273.837 242.095C273.421 242.49 273.213 243.018 273.213 243.679C273.213 244.341 273.421 244.869 273.837 245.263C274.253 245.658 274.765 245.855 275.373 245.855C275.981 245.855 276.482 245.658 276.877 245.263C277.293 244.847 277.501 244.319 277.501 243.679C277.501 243.039 277.293 242.511 276.877 242.095ZM286.201 246.335V250.783H284.633V240.383H286.201V241.119C286.713 240.511 287.379 240.207 288.201 240.207C289.118 240.207 289.891 240.533 290.521 241.183C291.161 241.823 291.481 242.666 291.481 243.711C291.481 244.789 291.15 245.663 290.489 246.335C289.827 246.997 289.07 247.327 288.217 247.327C287.417 247.327 286.745 246.997 286.201 246.335ZM288.009 241.615C287.475 241.615 287.022 241.807 286.649 242.191C286.286 242.565 286.105 243.098 286.105 243.791C286.105 244.463 286.286 244.986 286.649 245.359C287.022 245.733 287.475 245.919 288.009 245.919C288.563 245.919 289.011 245.711 289.353 245.295C289.705 244.879 289.881 244.373 289.881 243.775C289.881 243.167 289.705 242.655 289.353 242.239C289.011 241.823 288.563 241.615 288.009 241.615ZM298.045 241.167V240.383H299.613V247.119H298.045V246.415C297.523 247.023 296.851 247.327 296.029 247.327C295.037 247.327 294.243 246.975 293.645 246.271C293.059 245.567 292.765 244.725 292.765 243.743C292.765 242.677 293.08 241.823 293.709 241.183C294.349 240.533 295.128 240.207 296.045 240.207C296.888 240.207 297.555 240.527 298.045 241.167ZM296.237 241.615C295.683 241.615 295.229 241.823 294.877 242.239C294.536 242.655 294.365 243.167 294.365 243.775C294.365 244.373 294.536 244.879 294.877 245.295C295.229 245.711 295.683 245.919 296.237 245.919C296.771 245.919 297.219 245.733 297.581 245.359C297.955 244.986 298.141 244.463 298.141 243.791C298.141 243.098 297.955 242.565 297.581 242.191C297.219 241.807 296.771 241.615 296.237 241.615ZM302.514 242.127L301.506 241.247C301.762 240.938 302.103 240.687 302.53 240.495C302.978 240.303 303.506 240.207 304.114 240.207C304.818 240.207 305.388 240.362 305.826 240.671C306.295 241.013 306.53 241.471 306.53 242.047C306.53 242.421 306.434 242.73 306.242 242.975C306.082 243.189 305.868 243.349 305.602 243.455C306.007 243.541 306.332 243.706 306.578 243.951C306.866 244.239 307.01 244.613 307.01 245.071C307.01 245.679 306.818 246.175 306.434 246.559C305.922 247.071 305.132 247.327 304.066 247.327C303.351 247.327 302.764 247.194 302.306 246.927C301.826 246.65 301.474 246.25 301.25 245.727L302.498 245.087C302.647 245.407 302.844 245.642 303.09 245.791C303.356 245.962 303.692 246.047 304.098 246.047C304.588 246.047 304.946 245.935 305.17 245.711C305.33 245.53 305.41 245.333 305.41 245.119C305.41 244.895 305.34 244.714 305.202 244.575C305.02 244.383 304.647 244.287 304.082 244.287H303.378V243.007H303.97C304.311 243.007 304.567 242.949 304.738 242.831C304.93 242.682 305.026 242.485 305.026 242.239C305.026 241.983 304.93 241.791 304.738 241.663C304.578 241.546 304.327 241.487 303.986 241.487C303.666 241.487 303.372 241.551 303.106 241.679C302.882 241.786 302.684 241.935 302.514 242.127Z" fill="#E9EAF5"/>
<path opacity="0.5" d="M329.473 73.3208H269.019V209.209H329.473V73.3208Z" fill="#2B2B2B"/>
<path opacity="0.5" d="M261.966 73.3208H201.513V208.231H261.966V73.3208Z" fill="#2B2B2B"/>
<path d="M261.966 87.0076H201.512V209.209H261.966V87.0076Z" fill="url(#paint4_linear)"/>
<path d="M329.473 175.97H269.019V209.209H329.473V175.97Z" fill="url(#paint5_linear)"/>
<path d="M261.966 87.0076H201.512V209.209H261.966V87.0076Z" fill="url(#paint6_linear)"/>
<path d="M387.746 231.783L390.226 227.063L387.346 221.383H389.234L391.154 225.319L393.106 221.383H394.866L389.506 231.783H387.746ZM395.96 221.383H398.6C399.272 221.383 399.784 221.517 400.136 221.783C400.552 222.114 400.76 222.546 400.76 223.079C400.76 223.687 400.494 224.125 399.96 224.391C400.302 224.455 400.606 224.605 400.872 224.839C401.224 225.159 401.4 225.591 401.4 226.135C401.4 226.786 401.155 227.298 400.664 227.671C400.259 227.97 399.742 228.119 399.112 228.119H395.96V221.383ZM397.528 224.007H398.328C398.606 224.007 398.814 223.959 398.952 223.863C399.155 223.735 399.256 223.554 399.256 223.319C399.256 223.095 399.166 222.919 398.984 222.791C398.856 222.706 398.627 222.663 398.296 222.663H397.528V224.007ZM397.528 226.839H398.696C399.048 226.839 399.32 226.775 399.512 226.647C399.726 226.509 399.832 226.311 399.832 226.055C399.832 225.778 399.731 225.581 399.528 225.463C399.347 225.346 399.086 225.287 398.744 225.287H397.528V226.839ZM407.759 225.847L409.071 226.583C408.772 227.117 408.393 227.527 407.935 227.815C407.412 228.157 406.751 228.327 405.951 228.327C405.012 228.327 404.255 228.039 403.679 227.463C403.017 226.802 402.687 225.943 402.687 224.887C402.687 223.778 403.044 222.855 403.759 222.119C404.367 221.511 405.119 221.207 406.015 221.207C406.889 221.207 407.609 221.501 408.175 222.087C408.804 222.738 409.119 223.687 409.119 224.935V225.127H404.287C404.329 225.693 404.521 226.146 404.863 226.487C405.151 226.775 405.551 226.919 406.063 226.919C406.479 226.919 406.836 226.807 407.135 226.583C407.38 226.391 407.588 226.146 407.759 225.847ZM404.399 223.847H407.519C407.455 223.474 407.295 223.17 407.039 222.935C406.761 222.679 406.409 222.551 405.983 222.551C405.535 222.551 405.167 222.695 404.879 222.983C404.644 223.197 404.484 223.485 404.399 223.847ZM416.293 221.383V228.119H414.725V222.823H412.741V225.495C412.741 226.327 412.528 226.973 412.101 227.431C411.557 228.039 410.821 228.269 409.893 228.119V226.679C410.352 226.786 410.72 226.685 410.997 226.375C411.157 226.183 411.237 225.89 411.237 225.495V221.383H416.293ZM418.273 221.383H419.841V225.207L424.449 220.775V228.119H422.881V224.199L418.273 228.631V221.383ZM430.077 228.119V225.511C429.597 225.607 429.139 225.655 428.701 225.655C427.933 225.655 427.341 225.49 426.925 225.159C426.488 224.807 426.269 224.269 426.269 223.543V221.383H427.837V223.223C427.837 223.682 427.971 223.991 428.237 224.151C428.419 224.258 428.68 224.311 429.021 224.311C429.405 224.311 429.757 224.253 430.077 224.135V221.383H431.645V228.119H430.077ZM438.352 225.847L439.664 226.583C439.366 227.117 438.987 227.527 438.528 227.815C438.006 228.157 437.344 228.327 436.544 228.327C435.606 228.327 434.848 228.039 434.272 227.463C433.611 226.802 433.28 225.943 433.28 224.887C433.28 223.778 433.638 222.855 434.352 222.119C434.96 221.511 435.712 221.207 436.608 221.207C437.483 221.207 438.203 221.501 438.768 222.087C439.398 222.738 439.712 223.687 439.712 224.935V225.127H434.88C434.923 225.693 435.115 226.146 435.456 226.487C435.744 226.775 436.144 226.919 436.656 226.919C437.072 226.919 437.43 226.807 437.728 226.583C437.974 226.391 438.182 226.146 438.352 225.847ZM434.992 223.847H438.112C438.048 223.474 437.888 223.17 437.632 222.935C437.355 222.679 437.003 222.551 436.576 222.551C436.128 222.551 435.76 222.695 435.472 222.983C435.238 223.197 435.078 223.485 434.992 223.847ZM441.351 228.119V221.383H442.919V223.879H445.703V221.383H447.271V228.119H445.703V225.319H442.919V228.119H441.351ZM449.257 221.383H450.825V225.207L455.433 220.775V228.119H453.865V224.199L449.257 228.631V221.383ZM462.134 225.847L463.446 226.583C463.147 227.117 462.768 227.527 462.31 227.815C461.787 228.157 461.126 228.327 460.326 228.327C459.387 228.327 458.63 228.039 458.054 227.463C457.392 226.802 457.062 225.943 457.062 224.887C457.062 223.778 457.419 222.855 458.134 222.119C458.742 221.511 459.494 221.207 460.39 221.207C461.264 221.207 461.984 221.501 462.55 222.087C463.179 222.738 463.494 223.687 463.494 224.935V225.127H458.662C458.704 225.693 458.896 226.146 459.238 226.487C459.526 226.775 459.926 226.919 460.438 226.919C460.854 226.919 461.211 226.807 461.51 226.583C461.755 226.391 461.963 226.146 462.134 225.847ZM458.774 223.847H461.894C461.83 223.474 461.67 223.17 461.414 222.935C461.136 222.679 460.784 222.551 460.358 222.551C459.91 222.551 459.542 222.695 459.254 222.983C459.019 223.197 458.859 223.485 458.774 223.847ZM372.804 241.823H370.836V247.119H369.268V241.823H367.3V240.383H372.804V241.823ZM375.497 246.335V250.783H373.929V240.383H375.497V241.119C376.009 240.511 376.676 240.207 377.497 240.207C378.415 240.207 379.188 240.533 379.817 241.183C380.457 241.823 380.777 242.666 380.777 243.711C380.777 244.789 380.447 245.663 379.785 246.335C379.124 246.997 378.367 247.327 377.513 247.327C376.713 247.327 376.041 246.997 375.497 246.335ZM377.305 241.615C376.772 241.615 376.319 241.807 375.945 242.191C375.583 242.565 375.401 243.098 375.401 243.791C375.401 244.463 375.583 244.986 375.945 245.359C376.319 245.733 376.772 245.919 377.305 245.919C377.86 245.919 378.308 245.711 378.649 245.295C379.001 244.879 379.177 244.373 379.177 243.775C379.177 243.167 379.001 242.655 378.649 242.239C378.308 241.823 377.86 241.615 377.305 241.615ZM387.342 241.167V240.383H388.91V247.119H387.342V246.415C386.819 247.023 386.147 247.327 385.326 247.327C384.334 247.327 383.539 246.975 382.942 246.271C382.355 245.567 382.062 244.725 382.062 243.743C382.062 242.677 382.376 241.823 383.006 241.183C383.646 240.533 384.424 240.207 385.342 240.207C386.184 240.207 386.851 240.527 387.342 241.167ZM385.534 241.615C384.979 241.615 384.526 241.823 384.174 242.239C383.832 242.655 383.662 243.167 383.662 243.775C383.662 244.373 383.832 244.879 384.174 245.295C384.526 245.711 384.979 245.919 385.534 245.919C386.067 245.919 386.515 245.733 386.878 245.359C387.251 244.986 387.438 244.463 387.438 243.791C387.438 243.098 387.251 242.565 386.878 242.191C386.515 241.807 386.067 241.615 385.534 241.615ZM394.482 250.783V247.231C393.33 247.242 392.407 246.949 391.714 246.351C390.957 245.711 390.578 244.842 390.578 243.743C390.578 242.655 390.951 241.791 391.698 241.151C392.381 240.565 393.309 240.271 394.482 240.271V236.447H396.05V240.271C397.223 240.271 398.151 240.565 398.834 241.151C399.581 241.791 399.954 242.655 399.954 243.743C399.954 244.842 399.575 245.711 398.818 246.351C398.125 246.949 397.202 247.242 396.05 247.231V250.783H394.482ZM394.482 245.823V241.679C393.863 241.679 393.373 241.797 393.01 242.031C392.455 242.362 392.178 242.933 392.178 243.743C392.178 244.501 392.439 245.061 392.962 245.423C393.367 245.711 393.874 245.845 394.482 245.823ZM396.05 241.679V245.823C396.658 245.845 397.165 245.711 397.57 245.423C398.093 245.061 398.354 244.501 398.354 243.743C398.354 242.933 398.077 242.362 397.522 242.031C397.159 241.797 396.669 241.679 396.05 241.679ZM401.617 240.383H403.185V244.207L407.793 239.775V247.119H406.225V243.199L401.617 247.631V240.383ZM409.773 240.383H411.341V242.783L413.581 240.383H415.661L412.717 243.327L415.821 247.119H413.837L411.597 244.351L411.341 244.607V247.119H409.773V240.383ZM421.779 241.167V240.383H423.347V247.119H421.779V246.415C421.256 247.023 420.584 247.327 419.763 247.327C418.771 247.327 417.976 246.975 417.379 246.271C416.792 245.567 416.499 244.725 416.499 243.743C416.499 242.677 416.814 241.823 417.443 241.183C418.083 240.533 418.862 240.207 419.779 240.207C420.622 240.207 421.288 240.527 421.779 241.167ZM419.971 241.615C419.416 241.615 418.963 241.823 418.611 242.239C418.27 242.655 418.099 243.167 418.099 243.775C418.099 244.373 418.27 244.879 418.611 245.295C418.963 245.711 419.416 245.919 419.971 245.919C420.504 245.919 420.952 245.733 421.315 245.359C421.688 244.986 421.875 244.463 421.875 243.791C421.875 243.098 421.688 242.565 421.315 242.191C420.952 241.807 420.504 241.615 419.971 241.615ZM429.07 240.383H431.71C432.382 240.383 432.894 240.517 433.246 240.783C433.662 241.114 433.87 241.546 433.87 242.079C433.87 242.687 433.603 243.125 433.07 243.391C433.411 243.455 433.715 243.605 433.982 243.839C434.334 244.159 434.51 244.591 434.51 245.135C434.51 245.786 434.264 246.298 433.774 246.671C433.368 246.97 432.851 247.119 432.222 247.119H429.07V240.383ZM430.638 243.007H431.438C431.715 243.007 431.923 242.959 432.062 242.863C432.264 242.735 432.366 242.554 432.366 242.319C432.366 242.095 432.275 241.919 432.094 241.791C431.966 241.706 431.736 241.663 431.406 241.663H430.638V243.007ZM430.638 245.839H431.806C432.158 245.839 432.43 245.775 432.622 245.647C432.835 245.509 432.942 245.311 432.942 245.055C432.942 244.778 432.84 244.581 432.638 244.463C432.456 244.346 432.195 244.287 431.854 244.287H430.638V245.839ZM446.058 235.663V243.599H447.21V245.103H446.058V247.119H444.49V245.103H439.21L446.058 235.663ZM442.058 243.631H444.49V240.191L442.058 243.631ZM454.278 246.335V250.783H452.71V240.383H454.278V241.119C454.79 240.511 455.457 240.207 456.278 240.207C457.196 240.207 457.969 240.533 458.598 241.183C459.238 241.823 459.558 242.666 459.558 243.711C459.558 244.789 459.228 245.663 458.566 246.335C457.905 246.997 457.148 247.327 456.294 247.327C455.494 247.327 454.822 246.997 454.278 246.335ZM456.086 241.615C455.553 241.615 455.1 241.807 454.726 242.191C454.364 242.565 454.182 243.098 454.182 243.791C454.182 244.463 454.364 244.986 454.726 245.359C455.1 245.733 455.553 245.919 456.086 245.919C456.641 245.919 457.089 245.711 457.43 245.295C457.782 244.879 457.958 244.373 457.958 243.775C457.958 243.167 457.782 242.655 457.43 242.239C457.089 241.823 456.641 241.615 456.086 241.615ZM466.123 241.167V240.383H467.691V247.119H466.123V246.415C465.6 247.023 464.928 247.327 464.107 247.327C463.115 247.327 462.32 246.975 461.723 246.271C461.136 245.567 460.843 244.725 460.843 243.743C460.843 242.677 461.157 241.823 461.787 241.183C462.427 240.533 463.205 240.207 464.123 240.207C464.965 240.207 465.632 240.527 466.123 241.167ZM464.315 241.615C463.76 241.615 463.307 241.823 462.955 242.239C462.613 242.655 462.443 243.167 462.443 243.775C462.443 244.373 462.613 244.879 462.955 245.295C463.307 245.711 463.76 245.919 464.315 245.919C464.848 245.919 465.296 245.733 465.659 245.359C466.032 244.986 466.219 244.463 466.219 243.791C466.219 243.098 466.032 242.565 465.659 242.191C465.296 241.807 464.848 241.615 464.315 241.615ZM470.591 242.127L469.583 241.247C469.839 240.938 470.181 240.687 470.607 240.495C471.055 240.303 471.583 240.207 472.191 240.207C472.895 240.207 473.466 240.362 473.903 240.671C474.373 241.013 474.607 241.471 474.607 242.047C474.607 242.421 474.511 242.73 474.319 242.975C474.159 243.189 473.946 243.349 473.679 243.455C474.085 243.541 474.41 243.706 474.655 243.951C474.943 244.239 475.087 244.613 475.087 245.071C475.087 245.679 474.895 246.175 474.511 246.559C473.999 247.071 473.21 247.327 472.143 247.327C471.429 247.327 470.842 247.194 470.383 246.927C469.903 246.65 469.551 246.25 469.327 245.727L470.575 245.087C470.725 245.407 470.922 245.642 471.167 245.791C471.434 245.962 471.77 246.047 472.175 246.047C472.666 246.047 473.023 245.935 473.247 245.711C473.407 245.53 473.487 245.333 473.487 245.119C473.487 244.895 473.418 244.714 473.279 244.575C473.098 244.383 472.725 244.287 472.159 244.287H471.455V243.007H472.047C472.389 243.007 472.645 242.949 472.815 242.831C473.007 242.682 473.103 242.485 473.103 242.239C473.103 241.983 473.007 241.791 472.815 241.663C472.655 241.546 472.405 241.487 472.063 241.487C471.743 241.487 471.45 241.551 471.183 241.679C470.959 241.786 470.762 241.935 470.591 242.127ZM481.654 241.167V240.383H483.222V247.119H481.654V246.415C481.131 247.023 480.459 247.327 479.638 247.327C478.646 247.327 477.851 246.975 477.254 246.271C476.667 245.567 476.374 244.725 476.374 243.743C476.374 242.677 476.689 241.823 477.318 241.183C477.958 240.533 478.737 240.207 479.654 240.207C480.497 240.207 481.163 240.527 481.654 241.167ZM479.846 241.615C479.291 241.615 478.838 241.823 478.486 242.239C478.145 242.655 477.974 243.167 477.974 243.775C477.974 244.373 478.145 244.879 478.486 245.295C478.838 245.711 479.291 245.919 479.846 245.919C480.379 245.919 480.827 245.733 481.19 245.359C481.563 244.986 481.75 244.463 481.75 243.791C481.75 243.098 481.563 242.565 481.19 242.191C480.827 241.807 480.379 241.615 479.846 241.615Z" fill="#E9EAF5"/>
<path opacity="0.5" d="M422.169 73.3208H361.715V209.209H422.169V73.3208Z" fill="#2B2B2B"/>
<path opacity="0.5" d="M489.675 73.3208H429.222V209.209H489.675V73.3208Z" fill="#2B2B2B"/>
<path d="M422.169 169.127H361.715V209.209H422.169V169.127Z" fill="url(#paint7_linear)"/>
<path d="M489.675 104.604H429.221V209.209H489.675V104.604Z" fill="url(#paint8_linear)"/>
<defs>
<linearGradient id="paint0_linear" x1="88.2138" y1="225.339" x2="72.3266" y2="162.934" gradientUnits="userSpaceOnUse">
<stop stop-color="#F9C367"/>
<stop offset="1" stop-color="#FFFAF2"/>
</linearGradient>
<linearGradient id="paint1_linear" x1="50.6908" y1="60.2207" x2="39.9435" y2="39.113" gradientUnits="userSpaceOnUse">
<stop stop-color="#F9C367"/>
<stop offset="1" stop-color="#FFFAF2"/>
</linearGradient>
<linearGradient id="paint2_linear" x1="179.346" y1="68.4327" x2="81.9165" y2="227.505" gradientUnits="userSpaceOnUse">
<stop stop-color="#FFC807"/>
<stop offset="1" stop-color="#FFED8B"/>
</linearGradient>
<linearGradient id="paint3_linear" x1="143.074" y1="41.6151" x2="138.407" y2="59.266" gradientUnits="userSpaceOnUse">
<stop stop-color="#FFC807"/>
<stop offset="1" stop-color="#FFED8B"/>
</linearGradient>
<linearGradient id="paint4_linear" x1="272.042" y1="82.6118" x2="188.911" y2="233.539" gradientUnits="userSpaceOnUse">
<stop stop-color="#FFC807"/>
<stop offset="1" stop-color="#FFED8B"/>
</linearGradient>
<linearGradient id="paint5_linear" x1="339.548" y1="174.775" x2="331.708" y2="227.106" gradientUnits="userSpaceOnUse">
<stop stop-color="#FFC807"/>
<stop offset="1" stop-color="#FFED8B"/>
</linearGradient>
<linearGradient id="paint6_linear" x1="248.416" y1="276.42" x2="110.22" y2="146.139" gradientUnits="userSpaceOnUse">
<stop stop-color="#F9C367"/>
<stop offset="1" stop-color="#FFFAF2"/>
</linearGradient>
<linearGradient id="paint7_linear" x1="408.619" y1="231.254" x2="380.433" y2="150.246" gradientUnits="userSpaceOnUse">
<stop stop-color="#F9C367"/>
<stop offset="1" stop-color="#FFFAF2"/>
</linearGradient>
<linearGradient id="paint8_linear" x1="499.75" y1="100.842" x2="434.797" y2="238.605" gradientUnits="userSpaceOnUse">
<stop stop-color="#FFC807"/>
<stop offset="1" stop-color="#FFED8B"/>
</linearGradient>
<clipPath id="clip0">
<rect width="533" height="262" fill="white"/>
</clipPath>
</defs>
</svg>
