<svg width="525" height="260" viewBox="0 0 525 260" fill="none" xmlns="http://www.w3.org/2000/svg">
<path d="M522.518 9.47868V253.538H5.46568V9.47868H522.518ZM523 9H5.00024V254H523V9Z" fill="#3C3C3C"/>
<path d="M6.35245 15H4.99951V8H11.9995V9.35292H6.35245V15Z" fill="#868686"/>
<path d="M524 15H522.647V9.35292H517V8H524V15Z" fill="#868686"/>
<path d="M11.9995 255H4.99951V248H6.35245V253.647H11.9995V255Z" fill="#868686"/>
<path d="M524 255H517V253.647H522.648V248H524V255Z" fill="#868686"/>
<path d="M494 207H35V208H494V207Z" fill="#303645"/>
<path d="M494 172H35V173H494V172Z" fill="#303645"/>
<path d="M494 138H35V139H494V138Z" fill="#303645"/>
<path d="M494 104H35V105H494V104Z" fill="#303645"/>
<path d="M494 69H35V70H494V69Z" fill="#303645"/>
<path opacity="0.5" d="M109 69H49V207H109V69Z" fill="#343A48"/>
<path d="M176 80H116V208H176V80Z" fill="url(#paint0_linear)"/>
<path d="M109 192H49V208H109V192Z" fill="url(#paint1_linear)"/>
<path d="M362.744 34V27.714L356.444 34.42V24.662H357.872V30.976L364.172 24.27V34H362.744ZM367.531 30.29H368.469C368.562 29.7393 368.819 29.2493 369.239 28.82C369.818 28.2413 370.55 27.952 371.437 27.952C372.314 27.952 373.047 28.246 373.635 28.834C374.232 29.4127 374.531 30.1547 374.531 31.06C374.531 31.956 374.232 32.7027 373.635 33.3C373.047 33.888 372.314 34.182 371.437 34.182C370.504 34.182 369.748 33.8693 369.169 33.244C368.74 32.7773 368.497 32.2127 368.441 31.55H367.531V34H366.159V28.106H367.531V30.29ZM372.641 29.66C372.314 29.3427 371.913 29.184 371.437 29.184C370.961 29.184 370.56 29.3427 370.233 29.66C369.906 29.9773 369.743 30.4487 369.743 31.074C369.743 31.6993 369.906 32.1707 370.233 32.488C370.56 32.796 370.961 32.95 371.437 32.95C371.913 32.95 372.314 32.796 372.641 32.488C372.968 32.1707 373.131 31.6993 373.131 31.074C373.131 30.4487 372.968 29.9773 372.641 29.66ZM375.962 34V28.106H377.334V30.29H379.77V28.106H381.142V34H379.77V31.55H377.334V34H375.962ZM382.88 34V28.106H384.252V30.192H385.036C385.288 30.192 385.493 30.2013 385.652 30.22C385.81 30.2293 386.002 30.2807 386.226 30.374C386.45 30.4673 386.646 30.6073 386.814 30.794C387.122 31.1393 387.276 31.5687 387.276 32.082C387.276 32.67 387.098 33.1413 386.744 33.496C386.585 33.6547 386.394 33.776 386.17 33.86C385.955 33.9347 385.773 33.9767 385.624 33.986C385.484 33.9953 385.283 34 385.022 34H382.88ZM384.252 32.824H384.882C385.218 32.824 385.456 32.782 385.596 32.698C385.801 32.5487 385.904 32.348 385.904 32.096C385.904 31.8347 385.806 31.6387 385.61 31.508C385.46 31.4147 385.222 31.368 384.896 31.368H384.252V32.824ZM397.633 32.684V34H391.361L394.595 30.08C395.08 29.492 395.453 29.0067 395.715 28.624C396.041 28.1387 396.205 27.6907 396.205 27.28C396.205 26.86 396.069 26.5053 395.799 26.216C395.528 25.9173 395.145 25.768 394.651 25.768C394.156 25.768 393.764 25.9313 393.475 26.258C393.185 26.5847 393.027 26.986 392.999 27.462H391.627C391.664 26.6407 391.925 25.9593 392.411 25.418C392.952 24.8113 393.68 24.508 394.595 24.508C395.537 24.508 396.275 24.7833 396.807 25.334C397.339 25.8847 397.605 26.5473 397.605 27.322C397.605 27.966 397.381 28.6193 396.933 29.282C396.69 29.646 396.247 30.206 395.603 30.962L394.147 32.684H397.633ZM404.932 33.146C404.344 33.818 403.639 34.154 402.818 34.154C401.996 34.154 401.292 33.818 400.704 33.146C399.91 32.2407 399.514 30.9713 399.514 29.338C399.514 27.6953 399.91 26.4213 400.704 25.516C401.292 24.844 401.996 24.508 402.818 24.508C403.639 24.508 404.344 24.844 404.932 25.516C405.725 26.4213 406.122 27.6953 406.122 29.338C406.122 30.9713 405.725 32.2407 404.932 33.146ZM404.078 26.538C403.742 26.0247 403.322 25.768 402.818 25.768C402.314 25.768 401.894 26.0247 401.558 26.538C401.128 27.1727 400.914 28.1013 400.914 29.324C400.914 30.5373 401.128 31.4707 401.558 32.124C401.894 32.6373 402.314 32.894 402.818 32.894C403.322 32.894 403.742 32.6373 404.078 32.124C404.507 31.4707 404.722 30.5373 404.722 29.324C404.722 28.1013 404.507 27.1727 404.078 26.538ZM409.082 34V25.978H407.458L408.242 24.662H410.51V34H409.082ZM414.691 34.322L413.655 33.552L415.853 30.738C415.695 30.7753 415.527 30.794 415.349 30.794C414.472 30.794 413.744 30.5047 413.165 29.926C412.596 29.3567 412.311 28.6473 412.311 27.798C412.311 26.874 412.619 26.0947 413.235 25.46C413.851 24.8253 414.654 24.508 415.643 24.508C416.651 24.508 417.454 24.816 418.051 25.432C418.593 25.992 418.863 26.6967 418.863 27.546C418.863 28.1527 418.714 28.7453 418.415 29.324C418.35 29.4547 418.28 29.5807 418.205 29.702C418.14 29.814 418.061 29.9353 417.967 30.066C417.883 30.1967 417.818 30.2947 417.771 30.36C417.725 30.416 417.636 30.528 417.505 30.696C417.384 30.8547 417.309 30.9527 417.281 30.99L414.691 34.322ZM415.573 29.576C416.105 29.576 416.553 29.3893 416.917 29.016C417.281 28.6333 417.463 28.1713 417.463 27.63C417.463 27.0887 417.281 26.6453 416.917 26.3C416.544 25.9453 416.101 25.768 415.587 25.768C415.074 25.768 414.631 25.9453 414.257 26.3C413.893 26.664 413.711 27.1213 413.711 27.672C413.711 28.232 413.893 28.694 414.257 29.058C414.621 29.4033 415.06 29.576 415.573 29.576ZM423.536 31.732V30.304H426.896V31.732H423.536ZM431.141 34L433.913 30.108C433.363 30.0427 432.882 29.8327 432.471 29.478C431.939 29.0113 431.673 28.3487 431.673 27.49C431.673 26.706 431.911 26.0573 432.387 25.544C432.639 25.2733 432.938 25.068 433.283 24.928C433.629 24.788 433.909 24.7087 434.123 24.69C434.338 24.6713 434.604 24.662 434.921 24.662H437.217V34H435.789V30.262H435.453L432.905 34H431.141ZM435.789 25.978H435.089C434.324 25.978 433.792 26.1227 433.493 26.412C433.195 26.692 433.045 27.0513 433.045 27.49C433.045 27.994 433.223 28.3673 433.577 28.61C433.913 28.834 434.389 28.946 435.005 28.946H435.789V25.978ZM439.208 34V28.106H440.58V30.29H443.016V28.106H444.388V34H443.016V31.55H440.58V34H439.208ZM446.126 28.106H448.436C449.024 28.106 449.472 28.2227 449.78 28.456C450.144 28.7453 450.326 29.1233 450.326 29.59C450.326 30.122 450.092 30.5047 449.626 30.738C449.924 30.794 450.19 30.9247 450.424 31.13C450.732 31.41 450.886 31.788 450.886 32.264C450.886 32.8333 450.671 33.2813 450.242 33.608C449.887 33.8693 449.434 34 448.884 34H446.126V28.106ZM447.498 30.402H448.198C448.44 30.402 448.622 30.36 448.744 30.276C448.921 30.164 449.01 30.0053 449.01 29.8C449.01 29.604 448.93 29.45 448.772 29.338C448.66 29.2633 448.459 29.226 448.17 29.226H447.498V30.402ZM447.498 32.88H448.52C448.828 32.88 449.066 32.824 449.234 32.712C449.42 32.5907 449.514 32.418 449.514 32.194C449.514 31.9513 449.425 31.7787 449.248 31.676C449.089 31.5733 448.86 31.522 448.562 31.522H447.498V32.88ZM456.631 28.792V28.106H458.003V34H456.631V33.384C456.174 33.916 455.586 34.182 454.867 34.182C453.999 34.182 453.304 33.874 452.781 33.258C452.268 32.642 452.011 31.9047 452.011 31.046C452.011 30.1127 452.287 29.366 452.837 28.806C453.397 28.2367 454.079 27.952 454.881 27.952C455.619 27.952 456.202 28.232 456.631 28.792ZM455.049 29.184C454.564 29.184 454.167 29.366 453.859 29.73C453.561 30.094 453.411 30.542 453.411 31.074C453.411 31.5967 453.561 32.04 453.859 32.404C454.167 32.768 454.564 32.95 455.049 32.95C455.516 32.95 455.908 32.7867 456.225 32.46C456.552 32.1333 456.715 31.676 456.715 31.088C456.715 30.4813 456.552 30.0147 456.225 29.688C455.908 29.352 455.516 29.184 455.049 29.184ZM461.115 33.314V37.206H459.743V28.106H461.115V28.75C461.563 28.218 462.146 27.952 462.865 27.952C463.668 27.952 464.344 28.2367 464.895 28.806C465.455 29.366 465.735 30.1033 465.735 31.018C465.735 31.9607 465.446 32.726 464.867 33.314C464.288 33.8927 463.626 34.182 462.879 34.182C462.179 34.182 461.591 33.8927 461.115 33.314ZM462.697 29.184C462.23 29.184 461.834 29.352 461.507 29.688C461.19 30.0147 461.031 30.4813 461.031 31.088C461.031 31.676 461.19 32.1333 461.507 32.46C461.834 32.7867 462.23 32.95 462.697 32.95C463.182 32.95 463.574 32.768 463.873 32.404C464.181 32.04 464.335 31.5967 464.335 31.074C464.335 30.542 464.181 30.094 463.873 29.73C463.574 29.366 463.182 29.184 462.697 29.184ZM467.167 34V28.106H468.539V30.192H469.323C469.575 30.192 469.78 30.2013 469.939 30.22C470.097 30.2293 470.289 30.2807 470.513 30.374C470.737 30.4673 470.933 30.6073 471.101 30.794C471.409 31.1393 471.563 31.5687 471.563 32.082C471.563 32.67 471.385 33.1413 471.031 33.496C470.872 33.6547 470.681 33.776 470.457 33.86C470.242 33.9347 470.06 33.9767 469.911 33.986C469.771 33.9953 469.57 34 469.309 34H467.167ZM468.539 32.824H469.169C469.505 32.824 469.743 32.782 469.883 32.698C470.088 32.5487 470.191 32.348 470.191 32.096C470.191 31.8347 470.093 31.6387 469.897 31.508C469.747 31.4147 469.509 31.368 469.183 31.368H468.539V32.824ZM481.92 32.684V34H475.648L478.882 30.08C479.367 29.492 479.741 29.0067 480.002 28.624C480.329 28.1387 480.492 27.6907 480.492 27.28C480.492 26.86 480.357 26.5053 480.086 26.216C479.815 25.9173 479.433 25.768 478.938 25.768C478.443 25.768 478.051 25.9313 477.762 26.258C477.473 26.5847 477.314 26.986 477.286 27.462H475.914C475.951 26.6407 476.213 25.9593 476.698 25.418C477.239 24.8113 477.967 24.508 478.882 24.508C479.825 24.508 480.562 24.7833 481.094 25.334C481.626 25.8847 481.892 26.5473 481.892 27.322C481.892 27.966 481.668 28.6193 481.22 29.282C480.977 29.646 480.534 30.206 479.89 30.962L478.434 32.684H481.92ZM489.219 33.146C488.631 33.818 487.926 34.154 487.105 34.154C486.284 34.154 485.579 33.818 484.991 33.146C484.198 32.2407 483.801 30.9713 483.801 29.338C483.801 27.6953 484.198 26.4213 484.991 25.516C485.579 24.844 486.284 24.508 487.105 24.508C487.926 24.508 488.631 24.844 489.219 25.516C490.012 26.4213 490.409 27.6953 490.409 29.338C490.409 30.9713 490.012 32.2407 489.219 33.146ZM488.365 26.538C488.029 26.0247 487.609 25.768 487.105 25.768C486.601 25.768 486.181 26.0247 485.845 26.538C485.416 27.1727 485.201 28.1013 485.201 29.324C485.201 30.5373 485.416 31.4707 485.845 32.124C486.181 32.6373 486.601 32.894 487.105 32.894C487.609 32.894 488.029 32.6373 488.365 32.124C488.794 31.4707 489.009 30.5373 489.009 29.324C489.009 28.1013 488.794 27.1727 488.365 26.538ZM497.834 32.684V34H491.562L494.796 30.08C495.281 29.492 495.655 29.0067 495.916 28.624C496.243 28.1387 496.406 27.6907 496.406 27.28C496.406 26.86 496.271 26.5053 496 26.216C495.729 25.9173 495.347 25.768 494.852 25.768C494.357 25.768 493.965 25.9313 493.676 26.258C493.387 26.5847 493.228 26.986 493.2 27.462H491.828C491.865 26.6407 492.127 25.9593 492.612 25.418C493.153 24.8113 493.881 24.508 494.796 24.508C495.739 24.508 496.476 24.7833 497.008 25.334C497.54 25.8847 497.806 26.5473 497.806 27.322C497.806 27.966 497.582 28.6193 497.134 29.282C496.891 29.646 496.448 30.206 495.804 30.962L494.348 32.684H497.834ZM505.133 33.146C504.545 33.818 503.84 34.154 503.019 34.154C502.198 34.154 501.493 33.818 500.905 33.146C500.112 32.2407 499.715 30.9713 499.715 29.338C499.715 27.6953 500.112 26.4213 500.905 25.516C501.493 24.844 502.198 24.508 503.019 24.508C503.84 24.508 504.545 24.844 505.133 25.516C505.926 26.4213 506.323 27.6953 506.323 29.338C506.323 30.9713 505.926 32.2407 505.133 33.146ZM504.279 26.538C503.943 26.0247 503.523 25.768 503.019 25.768C502.515 25.768 502.095 26.0247 501.759 26.538C501.33 27.1727 501.115 28.1013 501.115 29.324C501.115 30.5373 501.33 31.4707 501.759 32.124C502.095 32.6373 502.515 32.894 503.019 32.894C503.523 32.894 503.943 32.6373 504.279 32.124C504.708 31.4707 504.923 30.5373 504.923 29.324C504.923 28.1013 504.708 27.1727 504.279 26.538Z" fill="#A3A9BA"/>
<path d="M84.3751 221.662V225.386L87.9871 221.662H89.8631L85.6491 225.89L89.8911 231H87.9871L84.6551 226.856L84.3751 227.136V231H82.9471V221.662H84.3751ZM91.0488 225.834C91.6554 225.246 92.4068 224.952 93.3028 224.952C94.1988 224.952 94.9454 225.246 95.5428 225.834C96.1494 226.413 96.4528 227.155 96.4528 228.06C96.4528 228.956 96.1494 229.703 95.5428 230.3C94.9454 230.888 94.1988 231.182 93.3028 231.182C92.4068 231.182 91.6554 230.888 91.0488 230.3C90.4514 229.703 90.1528 228.956 90.1528 228.06C90.1528 227.155 90.4514 226.413 91.0488 225.834ZM92.0288 229.446C92.3461 229.782 92.7708 229.95 93.3028 229.95C93.8348 229.95 94.2594 229.782 94.5768 229.446C94.8941 229.101 95.0528 228.643 95.0528 228.074C95.0528 227.449 94.8801 226.977 94.5348 226.66C94.1988 226.343 93.7881 226.184 93.3028 226.184C92.8174 226.184 92.4021 226.343 92.0568 226.66C91.7208 226.977 91.5528 227.449 91.5528 228.074C91.5528 228.643 91.7114 229.101 92.0288 229.446ZM97.8846 231V225.106H99.2566V227.29H101.693V225.106H103.065V231H101.693V228.55H99.2566V231H97.8846ZM104.803 225.106H107.113C107.701 225.106 108.149 225.223 108.457 225.456C108.821 225.745 109.003 226.123 109.003 226.59C109.003 227.122 108.769 227.505 108.303 227.738C108.601 227.794 108.867 227.925 109.101 228.13C109.409 228.41 109.563 228.788 109.563 229.264C109.563 229.833 109.348 230.281 108.919 230.608C108.564 230.869 108.111 231 107.561 231H104.803V225.106ZM106.175 227.402H106.875C107.117 227.402 107.299 227.36 107.421 227.276C107.598 227.164 107.687 227.005 107.687 226.8C107.687 226.604 107.607 226.45 107.449 226.338C107.337 226.263 107.136 226.226 106.847 226.226H106.175V227.402ZM106.175 229.88H107.197C107.505 229.88 107.743 229.824 107.911 229.712C108.097 229.591 108.191 229.418 108.191 229.194C108.191 228.951 108.102 228.779 107.925 228.676C107.766 228.573 107.537 228.522 107.239 228.522H106.175V229.88ZM115.126 229.012L116.274 229.656C116.013 230.123 115.681 230.482 115.28 230.734C114.823 231.033 114.244 231.182 113.544 231.182C112.723 231.182 112.06 230.93 111.556 230.426C110.977 229.847 110.688 229.096 110.688 228.172C110.688 227.201 111.001 226.394 111.626 225.75C112.158 225.218 112.816 224.952 113.6 224.952C114.365 224.952 114.995 225.209 115.49 225.722C116.041 226.291 116.316 227.122 116.316 228.214V228.382H112.088C112.125 228.877 112.293 229.273 112.592 229.572C112.844 229.824 113.194 229.95 113.642 229.95C114.006 229.95 114.319 229.852 114.58 229.656C114.795 229.488 114.977 229.273 115.126 229.012ZM112.186 227.262H114.916C114.86 226.935 114.72 226.669 114.496 226.464C114.253 226.24 113.945 226.128 113.572 226.128C113.18 226.128 112.858 226.254 112.606 226.506C112.401 226.693 112.261 226.945 112.186 227.262ZM119.122 230.314V234.206H117.75V225.106H119.122V225.75C119.57 225.218 120.153 224.952 120.872 224.952C121.675 224.952 122.351 225.237 122.902 225.806C123.462 226.366 123.742 227.103 123.742 228.018C123.742 228.961 123.453 229.726 122.874 230.314C122.295 230.893 121.633 231.182 120.886 231.182C120.186 231.182 119.598 230.893 119.122 230.314ZM120.704 226.184C120.237 226.184 119.841 226.352 119.514 226.688C119.197 227.015 119.038 227.481 119.038 228.088C119.038 228.676 119.197 229.133 119.514 229.46C119.841 229.787 120.237 229.95 120.704 229.95C121.189 229.95 121.581 229.768 121.88 229.404C122.188 229.04 122.342 228.597 122.342 228.074C122.342 227.542 122.188 227.094 121.88 226.73C121.581 226.366 121.189 226.184 120.704 226.184ZM129.738 225.372V226.912C129.243 226.427 128.688 226.184 128.072 226.184C127.549 226.184 127.115 226.357 126.77 226.702C126.434 227.038 126.266 227.491 126.266 228.06C126.266 228.648 126.443 229.119 126.798 229.474C127.134 229.791 127.549 229.95 128.044 229.95C128.725 229.95 129.29 229.698 129.738 229.194V230.72C129.243 231.028 128.646 231.182 127.946 231.182C127.003 231.182 126.256 230.893 125.706 230.314C125.146 229.735 124.866 228.998 124.866 228.102C124.866 227.178 125.164 226.417 125.762 225.82C126.34 225.241 127.129 224.952 128.128 224.952C128.697 224.952 129.234 225.092 129.738 225.372ZM131.053 225.106H132.425V228.452L136.457 224.574V231H135.085V227.57L131.053 231.448V225.106ZM137.433 231L139.281 228.662C138.917 228.606 138.605 228.457 138.343 228.214C138.017 227.897 137.853 227.491 137.853 226.996C137.853 226.436 138.035 225.983 138.399 225.638C138.773 225.283 139.342 225.106 140.107 225.106H142.305V231H140.933V228.83H140.653L139.043 231H137.433ZM140.933 227.71V226.282H140.135C139.809 226.282 139.571 226.324 139.421 226.408C139.197 226.548 139.085 226.744 139.085 226.996C139.085 227.248 139.179 227.439 139.365 227.57C139.505 227.663 139.757 227.71 140.121 227.71H140.933Z" fill="#E9EAF5"/>
<path d="M249.425 221.662V225.386L253.037 221.662H254.913L250.699 225.89L254.941 231H253.037L249.705 226.856L249.425 227.136V231H247.997V221.662H249.425ZM260.792 225.106V231H259.42V226.366H257.684V228.704C257.684 229.432 257.497 229.997 257.124 230.398C256.648 230.93 256.004 231.131 255.192 231V229.74C255.593 229.833 255.915 229.745 256.158 229.474C256.298 229.306 256.368 229.049 256.368 228.704V225.106H260.792ZM262.524 225.106H263.896V228.452L267.928 224.574V231H266.556V227.57L262.524 231.448V225.106ZM269.661 225.106H271.033V227.206L272.993 225.106H274.813L272.237 227.682L274.953 231H273.217L271.257 228.578L271.033 228.802V231H269.661V225.106ZM275.854 225.106H277.226V228.452L281.258 224.574V231H279.886V227.57L275.854 231.448V225.106Z" fill="#E9EAF5"/>
<path d="M395.403 221.662H402.263V231H400.835V223.006H396.831V231H395.403V221.662ZM404.845 225.834C405.451 225.246 406.203 224.952 407.099 224.952C407.995 224.952 408.741 225.246 409.339 225.834C409.945 226.413 410.249 227.155 410.249 228.06C410.249 228.956 409.945 229.703 409.339 230.3C408.741 230.888 407.995 231.182 407.099 231.182C406.203 231.182 405.451 230.888 404.845 230.3C404.247 229.703 403.949 228.956 403.949 228.06C403.949 227.155 404.247 226.413 404.845 225.834ZM405.825 229.446C406.142 229.782 406.567 229.95 407.099 229.95C407.631 229.95 408.055 229.782 408.373 229.446C408.69 229.101 408.849 228.643 408.849 228.074C408.849 227.449 408.676 226.977 408.331 226.66C407.995 226.343 407.584 226.184 407.099 226.184C406.613 226.184 406.198 226.343 405.853 226.66C405.517 226.977 405.349 227.449 405.349 228.074C405.349 228.643 405.507 229.101 405.825 229.446ZM411.681 225.106H413.053V227.206L415.013 225.106H416.833L414.257 227.682L416.973 231H415.237L413.277 228.578L413.053 228.802V231H411.681V225.106ZM422.186 225.792V225.106H423.558V231H422.186V230.384C421.729 230.916 421.141 231.182 420.422 231.182C419.554 231.182 418.859 230.874 418.336 230.258C417.823 229.642 417.566 228.905 417.566 228.046C417.566 227.113 417.841 226.366 418.392 225.806C418.952 225.237 419.633 224.952 420.436 224.952C421.173 224.952 421.757 225.232 422.186 225.792ZM420.604 226.184C420.119 226.184 419.722 226.366 419.414 226.73C419.115 227.094 418.966 227.542 418.966 228.074C418.966 228.597 419.115 229.04 419.414 229.404C419.722 229.768 420.119 229.95 420.604 229.95C421.071 229.95 421.463 229.787 421.78 229.46C422.107 229.133 422.27 228.676 422.27 228.088C422.27 227.481 422.107 227.015 421.78 226.688C421.463 226.352 421.071 226.184 420.604 226.184ZM426.096 226.632L425.214 225.862C425.438 225.591 425.736 225.372 426.11 225.204C426.502 225.036 426.964 224.952 427.496 224.952C428.112 224.952 428.611 225.087 428.994 225.358C429.404 225.657 429.61 226.058 429.61 226.562C429.61 226.889 429.526 227.159 429.358 227.374C429.218 227.561 429.031 227.701 428.798 227.794C429.152 227.869 429.437 228.013 429.652 228.228C429.904 228.48 430.03 228.807 430.03 229.208C430.03 229.74 429.862 230.174 429.526 230.51C429.078 230.958 428.387 231.182 427.454 231.182C426.828 231.182 426.315 231.065 425.914 230.832C425.494 230.589 425.186 230.239 424.99 229.782L426.082 229.222C426.212 229.502 426.385 229.707 426.6 229.838C426.833 229.987 427.127 230.062 427.482 230.062C427.911 230.062 428.224 229.964 428.42 229.768C428.56 229.609 428.63 229.437 428.63 229.25C428.63 229.054 428.569 228.895 428.448 228.774C428.289 228.606 427.962 228.522 427.468 228.522H426.852V227.402H427.37C427.668 227.402 427.892 227.351 428.042 227.248C428.21 227.117 428.294 226.945 428.294 226.73C428.294 226.506 428.21 226.338 428.042 226.226C427.902 226.123 427.682 226.072 427.384 226.072C427.104 226.072 426.847 226.128 426.614 226.24C426.418 226.333 426.245 226.464 426.096 226.632ZM431.464 231V225.106H432.836V227.192H433.62C433.872 227.192 434.077 227.201 434.236 227.22C434.394 227.229 434.586 227.281 434.81 227.374C435.034 227.467 435.23 227.607 435.398 227.794C435.706 228.139 435.86 228.569 435.86 229.082C435.86 229.67 435.682 230.141 435.328 230.496C435.169 230.655 434.978 230.776 434.754 230.86C434.539 230.935 434.357 230.977 434.208 230.986C434.068 230.995 433.867 231 433.606 231H431.464ZM432.836 229.824H433.466C433.802 229.824 434.04 229.782 434.18 229.698C434.385 229.549 434.488 229.348 434.488 229.096C434.488 228.835 434.39 228.639 434.194 228.508C434.044 228.415 433.806 228.368 433.48 228.368H432.836V229.824ZM436.476 231V225.106H437.848V231H436.476Z" fill="#E9EAF5"/>
<path opacity="0.5" d="M261 69H201V207H261V69Z" fill="#343A48"/>
<path d="M328 94H268V208H328V94Z" fill="url(#paint2_linear)"/>
<path d="M261 176H201V208H261V176Z" fill="url(#paint3_linear)"/>
<path opacity="0.5" d="M413 69H353V207H413V69Z" fill="#343A48"/>
<path opacity="0.5" d="M480 70H420V208H480V70Z" fill="#2B2B2B"/>
<path d="M480 88H420V208H480V88Z" fill="url(#paint4_linear)"/>
<path d="M413 167H353V208H413V167Z" fill="url(#paint5_linear)"/>
<path d="M50.3819 39V28.328H55.6779V29.448H51.5659V32.76H53.0059C55.4592 32.76 56.6859 33.7627 56.6859 35.768C56.6859 36.7707 56.3712 37.56 55.7419 38.136C55.1232 38.712 54.2859 39 53.2299 39H50.3819ZM51.5659 33.88V37.88H52.9419C53.8485 37.88 54.5045 37.6827 54.9099 37.288C55.2832 36.936 55.4699 36.4293 55.4699 35.768C55.4699 35 55.1819 34.4613 54.6059 34.152C54.2752 33.9707 53.6779 33.88 52.8139 33.88H51.5659ZM58.5782 39V32.36H59.7302V34.904H60.9142C61.8316 34.904 62.5036 35.1227 62.9302 35.56C63.2716 35.9013 63.4422 36.3653 63.4422 36.952C63.4422 37.5707 63.2449 38.0667 62.8502 38.44C62.4556 38.8133 61.8049 39 60.8982 39H58.5782ZM59.7302 37.976H60.8022C61.2822 37.976 61.6236 37.9173 61.8262 37.8C62.1142 37.608 62.2582 37.3253 62.2582 36.952C62.2582 36.568 62.1196 36.2907 61.8422 36.12C61.6502 35.992 61.3089 35.928 60.8182 35.928H59.7302V37.976ZM64.2422 39V32.36H65.3942V39H64.2422ZM72.5866 32.36V39H71.4346V33.416H69.0666V36.408C69.0666 37.272 68.8959 37.912 68.5546 38.328C68.1706 38.7973 67.6373 39.032 66.9546 39.032C66.8693 39.032 66.7519 39.0213 66.6026 39V37.944C66.7093 37.9653 66.7946 37.976 66.8586 37.976C67.2319 37.976 67.5093 37.832 67.6906 37.544C67.8399 37.3093 67.9146 36.9307 67.9146 36.408V32.36H72.5866ZM80.3817 38.2C79.7204 38.8613 78.8831 39.192 77.8697 39.192C76.8564 39.192 76.0137 38.8613 75.3417 38.2C74.6804 37.5387 74.3497 36.7067 74.3497 35.704C74.3497 34.6907 74.6804 33.8533 75.3417 33.192C76.0137 32.5307 76.8564 32.2 77.8697 32.2C78.8831 32.2 79.7204 32.5307 80.3817 33.192C81.0537 33.8533 81.3897 34.6907 81.3897 35.704C81.3897 36.7067 81.0537 37.5387 80.3817 38.2ZM79.5177 33.88C79.0697 33.4427 78.5204 33.224 77.8697 33.224C77.2191 33.224 76.6644 33.448 76.2057 33.896C75.7577 34.3333 75.5337 34.936 75.5337 35.704C75.5337 36.472 75.7631 37.0747 76.2217 37.512C76.6804 37.9493 77.2297 38.168 77.8697 38.168C78.5097 38.168 79.0591 37.9493 79.5177 37.512C79.9764 37.0747 80.2057 36.472 80.2057 35.704C80.2057 34.9253 79.9764 34.3173 79.5177 33.88Z" fill="#E9EAF5"/>
<path d="M139.64 29.208V30.68C139.213 30.2533 138.749 29.9227 138.248 29.688C137.64 29.4107 137.026 29.272 136.408 29.272C135.181 29.272 134.157 29.704 133.336 30.568C132.525 31.4213 132.12 32.472 132.12 33.72C132.12 35.064 132.562 36.1253 133.448 36.904C134.344 37.6827 135.336 38.072 136.424 38.072C137.106 38.072 137.768 37.9067 138.408 37.576C138.856 37.352 139.266 37.0533 139.64 36.68V38.152C138.669 38.8453 137.597 39.192 136.424 39.192C134.845 39.192 133.528 38.664 132.472 37.608C131.426 36.552 130.904 35.2507 130.904 33.704C130.904 32.1147 131.432 30.792 132.488 29.736C133.554 28.68 134.888 28.152 136.488 28.152C137.661 28.152 138.712 28.504 139.64 29.208ZM145.544 33.416H143.464V39H142.312V33.416H140.232V32.36H145.544V33.416ZM151.639 33.304V32.36H152.791V39H151.639V38.072C151.063 38.8187 150.306 39.192 149.367 39.192C148.471 39.192 147.708 38.8827 147.079 38.264C146.45 37.6453 146.135 36.7813 146.135 35.672C146.135 34.584 146.444 33.736 147.063 33.128C147.692 32.5093 148.46 32.2 149.367 32.2C150.327 32.2 151.084 32.568 151.639 33.304ZM149.495 33.224C148.887 33.224 148.37 33.4427 147.943 33.88C147.527 34.3067 147.319 34.904 147.319 35.672C147.319 36.408 147.511 37.0107 147.895 37.48C148.29 37.9387 148.823 38.168 149.495 38.168C150.167 38.168 150.7 37.928 151.095 37.448C151.5 36.968 151.703 36.3813 151.703 35.688C151.703 34.8987 151.479 34.2907 151.031 33.864C150.583 33.4373 150.071 33.224 149.495 33.224ZM159.997 32.36V39H158.845V33.416H156.477V36.408C156.477 37.272 156.306 37.912 155.965 38.328C155.581 38.7973 155.047 39.032 154.365 39.032C154.279 39.032 154.162 39.0213 154.013 39V37.944C154.119 37.9653 154.205 37.976 154.269 37.976C154.642 37.976 154.919 37.832 155.101 37.544C155.25 37.3093 155.325 36.9307 155.325 36.408V32.36H159.997ZM167.792 38.2C167.131 38.8613 166.293 39.192 165.28 39.192C164.267 39.192 163.424 38.8613 162.752 38.2C162.091 37.5387 161.76 36.7067 161.76 35.704C161.76 34.6907 162.091 33.8533 162.752 33.192C163.424 32.5307 164.267 32.2 165.28 32.2C166.293 32.2 167.131 32.5307 167.792 33.192C168.464 33.8533 168.8 34.6907 168.8 35.704C168.8 36.7067 168.464 37.5387 167.792 38.2ZM166.928 33.88C166.48 33.4427 165.931 33.224 165.28 33.224C164.629 33.224 164.075 33.448 163.616 33.896C163.168 34.3333 162.944 34.936 162.944 35.704C162.944 36.472 163.173 37.0747 163.632 37.512C164.091 37.9493 164.64 38.168 165.28 38.168C165.92 38.168 166.469 37.9493 166.928 37.512C167.387 37.0747 167.616 36.472 167.616 35.704C167.616 34.9253 167.387 34.3173 166.928 33.88Z" fill="#E9EAF5"/>
<path d="M41.9023 27H29.9023V39H41.9023V27Z" fill="#FBDBA3"/>
<path d="M123 27H111V39H123V27Z" fill="#FFC807"/>
<defs>
<linearGradient id="paint0_linear" x1="186" y1="75.3957" x2="96.4755" y2="229.404" gradientUnits="userSpaceOnUse">
<stop stop-color="#FFC807"/>
<stop offset="1" stop-color="#FFED8B"/>
</linearGradient>
<linearGradient id="paint1_linear" x1="95.5517" y1="216.8" x2="90.5762" y2="181.245" gradientUnits="userSpaceOnUse">
<stop stop-color="#F9C367"/>
<stop offset="1" stop-color="#FFFAF2"/>
</linearGradient>
<linearGradient id="paint2_linear" x1="338" y1="89.8993" x2="263.075" y2="234.622" gradientUnits="userSpaceOnUse">
<stop stop-color="#FFC807"/>
<stop offset="1" stop-color="#FFED8B"/>
</linearGradient>
<linearGradient id="paint3_linear" x1="247.552" y1="225.6" x2="228.734" y2="158.364" gradientUnits="userSpaceOnUse">
<stop stop-color="#F9C367"/>
<stop offset="1" stop-color="#FFFAF2"/>
</linearGradient>
<linearGradient id="paint4_linear" x1="490" y1="83.6834" x2="408.834" y2="232.622" gradientUnits="userSpaceOnUse">
<stop stop-color="#FFC807"/>
<stop offset="1" stop-color="#FFED8B"/>
</linearGradient>
<linearGradient id="paint5_linear" x1="399.552" y1="230.55" x2="370.036" y2="148.24" gradientUnits="userSpaceOnUse">
<stop stop-color="#F9C367"/>
<stop offset="1" stop-color="#FFFAF2"/>
</linearGradient>
</defs>
</svg>
