<svg width="519" height="248" viewBox="0 0 519 248" fill="none" xmlns="http://www.w3.org/2000/svg">
<path d="M516.592 1.62168V245.772H1.4637V1.62168H516.592ZM517.073 1.14282H1V246.233H517.073V1.14282Z" fill="#506579"/>
<path d="M47.9893 113.473C47.9893 113.473 66.7427 97.5245 111.626 113.473C156.51 129.421 212.615 116.503 245.689 101.109C278.762 85.7149 330.14 73.9052 354.937 82.7711C379.733 91.637 418.279 101.074 447.059 92.2258C475.856 83.3599 475.856 79.7408 475.856 79.7408V220.989H47.9893V113.473Z" fill="url(#paint0_linear)"/>
<path d="M47.9893 128.434C47.9893 128.434 79.1411 112.503 100.007 123.222C120.873 133.941 181.497 146.841 216.926 123.967C252.355 101.109 292.113 97.7154 311.802 107.949C331.49 118.183 418.349 133.231 475.821 101.092V220.955H47.9893V128.434Z" fill="url(#paint1_linear)"/>
<path d="M47.9893 151.257C47.9893 151.257 86.2235 159.188 119.297 141.058C152.371 122.911 176.389 102.044 211.021 119.378C245.671 136.694 279.369 143.794 306.295 129.612C333.222 115.447 347.889 86.2694 393.621 87.8625C439.353 89.4556 459.284 130.408 475.821 131.188V220.972H47.9893V151.257Z" fill="url(#paint2_linear)"/>
<g opacity="0.2">
<path d="M493.692 220.608H47.9895V221.318H493.692V220.608Z" fill="white"/>
<path d="M493.692 180.659H47.9895V181.369H493.692V180.659Z" fill="white"/>
<path d="M493.692 140.711H47.9895V141.421H493.692V140.711Z" fill="white"/>
<path d="M493.692 100.745H47.9895V101.455H493.692V100.745Z" fill="white"/>
<path d="M493.692 60.7971H47.9895V61.507H493.692V60.7971Z" fill="white"/>
<path d="M48.3359 25.4719H47.626V220.955H48.3359V25.4719Z" fill="white"/>
<path d="M119.644 25.4717H118.934V220.954H119.644V25.4717Z" fill="white"/>
<path d="M190.952 25.4717H190.242V220.954H190.952V25.4717Z" fill="white"/>
<path d="M262.261 25.4717H261.551V220.954H262.261V25.4717Z" fill="white"/>
<path d="M333.568 25.4717H332.859V220.954H333.568V25.4717Z" fill="white"/>
<path d="M404.877 25.4717H404.167V220.954H404.877V25.4717Z" fill="white"/>
<path d="M476.185 25.4717H475.475V220.954H476.185V25.4717Z" fill="white"/>
</g>
<path d="M25.266 187.778V189H19.442L22.445 185.36C22.8957 184.814 23.2423 184.363 23.485 184.008C23.7883 183.557 23.94 183.141 23.94 182.76C23.94 182.37 23.8143 182.041 23.563 181.772C23.3117 181.495 22.9563 181.356 22.497 181.356C22.0377 181.356 21.6737 181.508 21.405 181.811C21.1363 182.114 20.989 182.487 20.963 182.929H19.689C19.7237 182.166 19.9663 181.534 20.417 181.031C20.9197 180.468 21.5957 180.186 22.445 180.186C23.3203 180.186 24.005 180.442 24.499 180.953C24.993 181.464 25.24 182.08 25.24 182.799C25.24 183.397 25.032 184.004 24.616 184.619C24.3907 184.957 23.979 185.477 23.381 186.179L22.029 187.778H25.266ZM32.0437 188.207C31.4977 188.831 30.8433 189.143 30.0807 189.143C29.318 189.143 28.6637 188.831 28.1177 188.207C27.381 187.366 27.0127 186.188 27.0127 184.671C27.0127 183.146 27.381 181.963 28.1177 181.122C28.6637 180.498 29.318 180.186 30.0807 180.186C30.8433 180.186 31.4977 180.498 32.0437 181.122C32.7803 181.963 33.1487 183.146 33.1487 184.671C33.1487 186.188 32.7803 187.366 32.0437 188.207ZM31.2507 182.071C30.9387 181.594 30.5487 181.356 30.0807 181.356C29.6127 181.356 29.2227 181.594 28.9107 182.071C28.512 182.66 28.3127 183.523 28.3127 184.658C28.3127 185.785 28.512 186.651 28.9107 187.258C29.2227 187.735 29.6127 187.973 30.0807 187.973C30.5487 187.973 30.9387 187.735 31.2507 187.258C31.6493 186.651 31.8487 185.785 31.8487 184.658C31.8487 183.523 31.6493 182.66 31.2507 182.071Z" fill="#E9EAF5"/>
<path d="M24.824 139.692V146.14H25.76V147.362H24.824V149H23.55V147.362H19.26L24.824 139.692ZM21.574 146.166H23.55V143.371L21.574 146.166ZM32.0437 148.207C31.4977 148.831 30.8433 149.143 30.0807 149.143C29.318 149.143 28.6637 148.831 28.1177 148.207C27.381 147.366 27.0127 146.188 27.0127 144.671C27.0127 143.146 27.381 141.963 28.1177 141.122C28.6637 140.498 29.318 140.186 30.0807 140.186C30.8433 140.186 31.4977 140.498 32.0437 141.122C32.7803 141.963 33.1487 143.146 33.1487 144.671C33.1487 146.188 32.7803 147.366 32.0437 148.207ZM31.2507 142.071C30.9387 141.594 30.5487 141.356 30.0807 141.356C29.6127 141.356 29.2227 141.594 28.9107 142.071C28.512 142.66 28.3127 143.523 28.3127 144.658C28.3127 145.785 28.512 146.651 28.9107 147.258C29.2227 147.735 29.6127 147.973 30.0807 147.973C30.5487 147.973 30.9387 147.735 31.2507 147.258C31.6493 146.651 31.8487 145.785 31.8487 144.658C31.8487 143.523 31.6493 142.66 31.2507 142.071Z" fill="#E9EAF5"/>
<path d="M23.524 100.03L24.486 100.745L22.419 103.358C22.5923 103.323 22.7743 103.306 22.965 103.306C23.7797 103.306 24.447 103.575 24.967 104.112C25.4783 104.649 25.734 105.325 25.734 106.14C25.734 107.033 25.448 107.761 24.876 108.324C24.3213 108.87 23.576 109.143 22.64 109.143C21.6953 109.143 20.95 108.861 20.404 108.298C19.9013 107.769 19.65 107.115 19.65 106.335C19.65 105.763 19.7887 105.208 20.066 104.671C20.1267 104.55 20.1873 104.437 20.248 104.333C20.3173 104.22 20.391 104.103 20.469 103.982C20.5557 103.861 20.6207 103.774 20.664 103.722C20.7073 103.661 20.7853 103.557 20.898 103.41C21.0193 103.254 21.093 103.159 21.119 103.124L23.524 100.03ZM23.927 104.918C23.6063 104.597 23.199 104.437 22.705 104.437C22.211 104.437 21.795 104.597 21.457 104.918C21.119 105.239 20.95 105.668 20.95 106.205C20.95 106.742 21.119 107.171 21.457 107.492C21.795 107.813 22.211 107.973 22.705 107.973C23.199 107.973 23.6063 107.813 23.927 107.492C24.265 107.154 24.434 106.725 24.434 106.205C24.434 105.685 24.265 105.256 23.927 104.918ZM32.0437 108.207C31.4977 108.831 30.8433 109.143 30.0807 109.143C29.318 109.143 28.6637 108.831 28.1177 108.207C27.381 107.366 27.0127 106.188 27.0127 104.671C27.0127 103.146 27.381 101.963 28.1177 101.122C28.6637 100.498 29.318 100.186 30.0807 100.186C30.8433 100.186 31.4977 100.498 32.0437 101.122C32.7803 101.963 33.1487 103.146 33.1487 104.671C33.1487 106.188 32.7803 107.366 32.0437 108.207ZM31.2507 102.071C30.9387 101.594 30.5487 101.356 30.0807 101.356C29.6127 101.356 29.2227 101.594 28.9107 102.071C28.512 102.66 28.3127 103.523 28.3127 104.658C28.3127 105.785 28.512 106.651 28.9107 107.258C29.2227 107.735 29.6127 107.973 30.0807 107.973C30.5487 107.973 30.9387 107.735 31.2507 107.258C31.6493 106.651 31.8487 105.785 31.8487 104.658C31.8487 103.523 31.6493 102.66 31.2507 102.071Z" fill="#E9EAF5"/>
<path d="M23.719 65.464C23.4503 65.1953 23.108 65.061 22.692 65.061C22.276 65.061 21.9337 65.1953 21.665 65.464C21.3963 65.7327 21.262 66.0837 21.262 66.517C21.262 66.907 21.392 67.245 21.652 67.531C21.912 67.8257 22.2587 67.973 22.692 67.973C23.1253 67.973 23.472 67.8257 23.732 67.531C23.992 67.245 24.122 66.907 24.122 66.517C24.122 66.0837 23.9877 65.7327 23.719 65.464ZM23.641 61.707C23.3897 61.473 23.0733 61.356 22.692 61.356C22.3107 61.356 21.9943 61.473 21.743 61.707C21.5003 61.9497 21.379 62.2703 21.379 62.669C21.379 63.0417 21.496 63.345 21.73 63.579C21.9727 63.839 22.2933 63.969 22.692 63.969C23.0907 63.969 23.4113 63.839 23.654 63.579C23.888 63.345 24.005 63.0417 24.005 62.669C24.005 62.2703 23.8837 61.9497 23.641 61.707ZM24.122 64.489C24.512 64.6537 24.8153 64.8877 25.032 65.191C25.292 65.5377 25.422 65.971 25.422 66.491C25.422 67.245 25.1923 67.8603 24.733 68.337C24.2303 68.8743 23.55 69.143 22.692 69.143C21.834 69.143 21.1537 68.8743 20.651 68.337C20.1917 67.8603 19.962 67.245 19.962 66.491C19.962 65.971 20.092 65.5377 20.352 65.191C20.5687 64.8877 20.872 64.6537 21.262 64.489C20.95 64.359 20.6943 64.1423 20.495 63.839C20.287 63.5097 20.183 63.1153 20.183 62.656C20.183 61.9193 20.4257 61.317 20.911 60.849C21.379 60.407 21.9727 60.186 22.692 60.186C23.4113 60.186 24.005 60.407 24.473 60.849C24.9583 61.317 25.201 61.9193 25.201 62.656C25.201 63.1153 25.097 63.5097 24.889 63.839C24.6897 64.1423 24.434 64.359 24.122 64.489ZM32.0437 68.207C31.4977 68.831 30.8433 69.143 30.0807 69.143C29.318 69.143 28.6637 68.831 28.1177 68.207C27.381 67.3663 27.0127 66.1877 27.0127 64.671C27.0127 63.1457 27.381 61.9627 28.1177 61.122C28.6637 60.498 29.318 60.186 30.0807 60.186C30.8433 60.186 31.4977 60.498 32.0437 61.122C32.7803 61.9627 33.1487 63.1457 33.1487 64.671C33.1487 66.1877 32.7803 67.3663 32.0437 68.207ZM31.2507 62.071C30.9387 61.5943 30.5487 61.356 30.0807 61.356C29.6127 61.356 29.2227 61.5943 28.9107 62.071C28.512 62.6603 28.3127 63.5227 28.3127 64.658C28.3127 65.7847 28.512 66.6513 28.9107 67.258C29.2227 67.7347 29.6127 67.973 30.0807 67.973C30.5487 67.973 30.9387 67.7347 31.2507 67.258C31.6493 66.6513 31.8487 65.7847 31.8487 64.658C31.8487 63.5227 31.6493 62.6603 31.2507 62.071Z" fill="#E9EAF5"/>
<path d="M2.13004 8.49681H0.550049V0.356201H8.72478V1.92957H2.13004V8.49681Z" fill="#65839F"/>
<path d="M518.22 8.49681H516.64V1.92957H510.046V0.356201H518.22V8.49681Z" fill="#65839F"/>
<path d="M8.72478 247.02H0.550049V238.88H2.13004V245.447H8.72478V247.02Z" fill="#65839F"/>
<path d="M518.22 247.02H510.046V245.447H516.64V238.88H518.22V247.02Z" fill="#65839F"/>
<defs>
<linearGradient id="paint0_linear" x1="261.907" y1="68.5862" x2="261.907" y2="206.466" gradientUnits="userSpaceOnUse">
<stop stop-color="#FFC807" stop-opacity="0.2"/>
<stop offset="1" stop-color="#FFED8B" stop-opacity="0.2"/>
</linearGradient>
<linearGradient id="paint1_linear" x1="261.907" y1="70.9488" x2="261.907" y2="205.603" gradientUnits="userSpaceOnUse">
<stop stop-color="#DBAF17" stop-opacity="0.7"/>
<stop offset="1" stop-color="#FFED8B" stop-opacity="0.4"/>
</linearGradient>
<linearGradient id="paint2_linear" x1="261.907" y1="80.3975" x2="262" y2="228" gradientUnits="userSpaceOnUse">
<stop stop-color="#FFC807"/>
<stop offset="1" stop-color="#FFED8B" stop-opacity="0.3"/>
</linearGradient>
</defs>
</svg>
