<svg width="529" height="260" viewBox="0 0 529 260" fill="none" xmlns="http://www.w3.org/2000/svg">
<path d="M73.5 163L168 124.5L264 111L359.5 61L455 71" stroke="#494F66"/>
<path d="M492.565 203.946H36.2051V204.425H492.565V203.946Z" fill="#32374C"/>
<path d="M492.565 177.335H36.2051V177.814H492.565V177.335Z" fill="#32374C"/>
<path d="M492.565 150.741H36.2051V151.22H492.565V150.741Z" fill="#32374C"/>
<path d="M492.565 124.13H36.2051V124.609H492.565V124.13Z" fill="#32374C"/>
<path d="M492.565 97.5364H36.2051V98.0153H492.565V97.5364Z" fill="#32374C"/>
<path d="M60.6693 227H59.4533L61.2293 215.736L65.3253 224.744L69.5013 215.72L71.1653 227H69.9493L68.9413 219.576L65.3093 227.448L61.7253 219.576L60.6693 227ZM78.4338 221.304V220.36H79.5858V227H78.4338V226.072C77.8578 226.819 77.1005 227.192 76.1618 227.192C75.2658 227.192 74.5031 226.883 73.8738 226.264C73.2445 225.645 72.9298 224.781 72.9298 223.672C72.9298 222.584 73.2391 221.736 73.8578 221.128C74.4871 220.509 75.2551 220.2 76.1618 220.2C77.1218 220.2 77.8791 220.568 78.4338 221.304ZM76.2898 221.224C75.6818 221.224 75.1645 221.443 74.7378 221.88C74.3218 222.307 74.1138 222.904 74.1138 223.672C74.1138 224.408 74.3058 225.011 74.6898 225.48C75.0845 225.939 75.6178 226.168 76.2898 226.168C76.9618 226.168 77.4951 225.928 77.8898 225.448C78.2951 224.968 78.4978 224.381 78.4978 223.688C78.4978 222.899 78.2738 222.291 77.8258 221.864C77.3778 221.437 76.8658 221.224 76.2898 221.224ZM81.7677 220.36H82.9197V224.744L87.4637 219.848V227H86.3117V222.568L81.7677 227.464V220.36ZM82.3437 217.496L83.3037 217.128C83.4957 217.768 83.949 218.088 84.6637 218.088C85.3784 218.088 85.8317 217.768 86.0237 217.128L86.9837 217.496C86.813 217.976 86.5197 218.355 86.1037 218.632C85.6984 218.909 85.2184 219.048 84.6637 219.048C84.109 219.048 83.6237 218.909 83.2077 218.632C82.8024 218.355 82.5144 217.976 82.3437 217.496Z" fill="#E9EAF5"/>
<path d="M255.292 227V218.856L247.868 227.48V216.328H249.052V224.504L256.476 215.88V227H255.292ZM260.092 223.08H261.292C261.398 222.333 261.697 221.704 262.188 221.192C262.817 220.531 263.654 220.2 264.7 220.2C265.724 220.2 266.566 220.531 267.228 221.192C267.889 221.853 268.22 222.691 268.22 223.704C268.22 224.707 267.884 225.539 267.212 226.2C266.55 226.861 265.713 227.192 264.7 227.192C263.537 227.192 262.625 226.776 261.964 225.944C261.537 225.411 261.292 224.808 261.228 224.136H260.092V227H258.94V220.36H260.092V223.08ZM264.7 221.224C264.06 221.224 263.516 221.448 263.068 221.896C262.63 222.333 262.412 222.936 262.412 223.704C262.412 224.483 262.636 225.091 263.084 225.528C263.532 225.955 264.07 226.168 264.7 226.168C265.34 226.168 265.889 225.949 266.348 225.512C266.806 225.075 267.036 224.472 267.036 223.704C267.036 222.936 266.806 222.333 266.348 221.896C265.9 221.448 265.35 221.224 264.7 221.224ZM275.01 220.36V227H273.858V221.416H271.49V224.408C271.49 225.272 271.32 225.912 270.978 226.328C270.594 226.797 270.061 227.032 269.378 227.032C269.293 227.032 269.176 227.021 269.026 227V225.944C269.133 225.965 269.218 225.976 269.282 225.976C269.656 225.976 269.933 225.832 270.114 225.544C270.264 225.309 270.338 224.931 270.338 224.408V220.36H275.01ZM277.19 227V220.36H278.342V222.904H279.526C280.443 222.904 281.115 223.123 281.542 223.56C281.883 223.901 282.054 224.365 282.054 224.952C282.054 225.571 281.856 226.067 281.462 226.44C281.067 226.813 280.416 227 279.51 227H277.19ZM278.342 225.976H279.414C279.894 225.976 280.235 225.917 280.438 225.8C280.726 225.608 280.87 225.325 280.87 224.952C280.87 224.568 280.731 224.291 280.454 224.12C280.262 223.992 279.92 223.928 279.43 223.928H278.342V225.976Z" fill="#E9EAF5"/>
<path d="M158.589 227V218.856L151.165 227.48V216.328H152.349V224.504L159.773 215.88V227H158.589ZM163.388 223.08H164.588C164.695 222.333 164.994 221.704 165.484 221.192C166.114 220.531 166.951 220.2 167.996 220.2C169.02 220.2 169.863 220.531 170.524 221.192C171.186 221.853 171.516 222.691 171.516 223.704C171.516 224.707 171.18 225.539 170.508 226.2C169.847 226.861 169.01 227.192 167.996 227.192C166.834 227.192 165.922 226.776 165.26 225.944C164.834 225.411 164.588 224.808 164.524 224.136H163.388V227H162.236V220.36H163.388V223.08ZM167.996 221.224C167.356 221.224 166.812 221.448 166.364 221.896C165.927 222.333 165.708 222.936 165.708 223.704C165.708 224.483 165.932 225.091 166.38 225.528C166.828 225.955 167.367 226.168 167.996 226.168C168.636 226.168 169.186 225.949 169.644 225.512C170.103 225.075 170.332 224.472 170.332 223.704C170.332 222.936 170.103 222.333 169.644 221.896C169.196 221.448 168.647 221.224 167.996 221.224ZM173.283 227V220.36H174.435V223.08H177.571V220.36H178.723V227H177.571V224.136H174.435V227H173.283ZM180.893 227V220.36H182.045V222.904H183.229C184.146 222.904 184.818 223.123 185.245 223.56C185.586 223.901 185.757 224.365 185.757 224.952C185.757 225.571 185.559 226.067 185.165 226.44C184.77 226.813 184.119 227 183.213 227H180.893ZM182.045 225.976H183.117C183.597 225.976 183.938 225.917 184.141 225.8C184.429 225.608 184.573 225.325 184.573 224.952C184.573 224.568 184.434 224.291 184.157 224.12C183.965 223.992 183.623 223.928 183.133 223.928H182.045V225.976Z" fill="#E9EAF5"/>
<path d="M346.91 227L345.662 223.992H341.118L339.838 227H338.526L343.438 215.816L348.222 227H346.91ZM341.582 222.872H345.198L343.406 218.6L341.582 222.872ZM349.44 220.36H351.952C352.56 220.36 353.024 220.488 353.344 220.744C353.728 221.053 353.92 221.469 353.92 221.992C353.92 222.568 353.68 223.011 353.2 223.32C353.53 223.405 353.808 223.555 354.032 223.768C354.384 224.109 354.56 224.536 354.56 225.048C354.56 225.688 354.33 226.189 353.872 226.552C353.477 226.851 352.954 227 352.304 227H349.44V220.36ZM350.592 223.064H351.808C352.117 223.064 352.362 223 352.544 222.872C352.757 222.712 352.864 222.483 352.864 222.184C352.864 221.917 352.757 221.704 352.544 221.544C352.384 221.437 352.074 221.384 351.616 221.384H350.592V223.064ZM350.592 225.976H352.016C352.506 225.976 352.853 225.901 353.056 225.752C353.312 225.56 353.44 225.315 353.44 225.016C353.44 224.696 353.328 224.445 353.104 224.264C352.901 224.104 352.554 224.024 352.064 224.024H350.592V225.976ZM356.315 227V220.36H360.251V221.416H357.467V227H356.315ZM361.736 230.68L363.848 226.376L360.792 220.36H362.104L364.456 225.112L366.616 220.36H367.896L363.016 230.68H361.736ZM374.311 220.84V222.216C373.789 221.555 373.095 221.224 372.231 221.224C371.581 221.224 371.026 221.448 370.567 221.896C370.109 222.333 369.879 222.936 369.879 223.704C369.879 224.472 370.109 225.075 370.567 225.512C371.026 225.949 371.575 226.168 372.215 226.168C373.069 226.168 373.783 225.821 374.359 225.128V226.504C373.73 226.963 373.026 227.192 372.247 227.192C371.213 227.192 370.359 226.867 369.687 226.216C369.026 225.555 368.695 224.723 368.695 223.72C368.695 222.707 369.031 221.869 369.703 221.208C370.375 220.536 371.223 220.2 372.247 220.2C373.015 220.2 373.703 220.413 374.311 220.84ZM380.479 221.416H378.399V227H377.247V221.416H375.167V220.36H380.479V221.416Z" fill="#E9EAF5"/>
<path d="M434.552 217.208V218.68C434.125 218.253 433.661 217.923 433.16 217.688C432.552 217.411 431.938 217.272 431.32 217.272C430.093 217.272 429.069 217.704 428.248 218.568C427.437 219.421 427.032 220.472 427.032 221.72C427.032 223.064 427.474 224.125 428.36 224.904C429.256 225.683 430.248 226.072 431.336 226.072C432.018 226.072 432.68 225.907 433.32 225.576C433.768 225.352 434.178 225.053 434.552 224.68V226.152C433.581 226.845 432.509 227.192 431.336 227.192C429.757 227.192 428.44 226.664 427.384 225.608C426.338 224.552 425.816 223.251 425.816 221.704C425.816 220.115 426.344 218.792 427.4 217.736C428.466 216.68 429.8 216.152 431.4 216.152C432.573 216.152 433.624 216.504 434.552 217.208ZM441.375 224.776L442.335 225.304C442.111 225.731 441.839 226.088 441.519 226.376C440.911 226.92 440.175 227.192 439.311 227.192C438.415 227.192 437.642 226.904 436.991 226.328C436.351 225.741 436.031 224.872 436.031 223.72C436.031 222.707 436.319 221.869 436.895 221.208C437.482 220.536 438.266 220.2 439.247 220.2C440.357 220.2 441.194 220.605 441.759 221.416C442.207 222.056 442.415 222.888 442.383 223.912H437.215C437.226 224.584 437.434 225.128 437.839 225.544C438.245 225.96 438.741 226.168 439.327 226.168C439.85 226.168 440.303 226.008 440.687 225.688C440.986 225.432 441.215 225.128 441.375 224.776ZM437.295 222.952H441.199C441.103 222.429 440.874 222.013 440.511 221.704C440.159 221.384 439.738 221.224 439.247 221.224C438.767 221.224 438.341 221.389 437.967 221.72C437.605 222.04 437.381 222.451 437.295 222.952ZM444.151 227V220.36H445.303V223.08H448.439V220.36H449.591V227H448.439V224.136H445.303V227H444.151ZM456.112 221.416H454.032V227H452.88V221.416H450.8V220.36H456.112V221.416ZM456.554 227L458.618 224.264C458.554 224.264 458.464 224.253 458.346 224.232C458.24 224.211 458.08 224.157 457.866 224.072C457.653 223.987 457.477 223.875 457.338 223.736C456.986 223.405 456.81 222.963 456.81 222.408C456.81 221.779 457.008 221.283 457.402 220.92C457.797 220.547 458.448 220.36 459.354 220.36H461.674V227H460.522V224.328H459.818L457.93 227H456.554ZM460.522 223.368V221.384H459.45C458.949 221.384 458.602 221.443 458.41 221.56C458.133 221.741 457.994 222.013 457.994 222.376C457.994 222.739 458.133 223.005 458.41 223.176C458.613 223.304 458.954 223.368 459.434 223.368H460.522ZM468.974 215.8H470.254C470.136 216.195 469.934 216.531 469.646 216.808C469.368 217.075 469.112 217.256 468.878 217.352C468.654 217.448 468.387 217.533 468.078 217.608C468.024 217.619 467.896 217.651 467.694 217.704C467.491 217.747 467.336 217.784 467.23 217.816C467.123 217.848 466.984 217.891 466.814 217.944C466.643 217.997 466.488 218.061 466.35 218.136C466.211 218.211 466.083 218.291 465.966 218.376C465.56 218.685 465.23 219.117 464.974 219.672C464.728 220.216 464.595 220.797 464.574 221.416H464.606C465.086 220.605 465.891 220.2 467.022 220.2C468.014 220.2 468.835 220.536 469.486 221.208C470.147 221.88 470.478 222.712 470.478 223.704C470.478 224.707 470.142 225.539 469.47 226.2C468.798 226.861 467.923 227.192 466.846 227.192C465.918 227.192 465.155 226.915 464.558 226.36C463.811 225.677 463.438 224.536 463.438 222.936C463.438 220.152 464.067 218.328 465.326 217.464C465.422 217.4 465.523 217.341 465.63 217.288C465.736 217.224 465.848 217.171 465.966 217.128C466.094 217.075 466.2 217.032 466.286 217C466.371 216.957 466.488 216.92 466.638 216.888C466.798 216.845 466.904 216.819 466.958 216.808C467.022 216.787 467.139 216.76 467.31 216.728C467.491 216.685 467.603 216.659 467.646 216.648C468.072 216.552 468.382 216.44 468.574 216.312C468.766 216.173 468.899 216.003 468.974 215.8ZM468.606 221.88C468.158 221.443 467.608 221.224 466.958 221.224C466.307 221.224 465.752 221.448 465.294 221.896C464.846 222.333 464.622 222.936 464.622 223.704C464.622 224.472 464.851 225.075 465.31 225.512C465.768 225.949 466.318 226.168 466.958 226.168C467.598 226.168 468.147 225.949 468.606 225.512C469.064 225.075 469.294 224.472 469.294 223.704C469.294 222.925 469.064 222.317 468.606 221.88ZM473.396 226.072V230.68H472.244V220.36H473.396V221.288C473.983 220.563 474.74 220.2 475.668 220.2C476.66 220.2 477.444 220.552 478.02 221.256C478.607 221.949 478.9 222.771 478.9 223.72C478.9 224.68 478.612 225.501 478.036 226.184C477.46 226.856 476.687 227.192 475.716 227.192C474.746 227.192 473.972 226.819 473.396 226.072ZM475.556 226.168C476.207 226.168 476.73 225.933 477.124 225.464C477.519 224.984 477.716 224.403 477.716 223.72C477.716 222.952 477.498 222.344 477.06 221.896C476.623 221.448 476.116 221.224 475.54 221.224C474.964 221.224 474.452 221.448 474.004 221.896C473.556 222.344 473.332 222.947 473.332 223.704C473.332 224.397 473.535 224.984 473.94 225.464C474.356 225.933 474.895 226.168 475.556 226.168ZM480.666 227V220.36H481.818V222.904H483.002C483.919 222.904 484.591 223.123 485.018 223.56C485.359 223.901 485.53 224.365 485.53 224.952C485.53 225.571 485.333 226.067 484.938 226.44C484.543 226.813 483.893 227 482.986 227H480.666ZM481.818 225.976H482.89C483.37 225.976 483.711 225.917 483.914 225.8C484.202 225.608 484.346 225.325 484.346 224.952C484.346 224.568 484.207 224.291 483.93 224.12C483.738 223.992 483.397 223.928 482.906 223.928H481.818V225.976Z" fill="#E9EAF5"/>
<g opacity="0.43">
<path d="M98 162H49V204H98V162Z" fill="#3D415B"/>
</g>
<g opacity="0.43">
<path d="M193 124H144V204H193V124Z" fill="#3D415B"/>
</g>
<g opacity="0.43">
<path d="M289 111H240V204H289V111Z" fill="#3D415B"/>
</g>
<path d="M384 61H335V204H384V61Z" fill="url(#paint0_linear)"/>
<g opacity="0.43">
<path d="M480 71H431V204H480V71Z" fill="#3D415B"/>
</g>
<path opacity="0.19" d="M370.15 60.866C370.15 66.5268 365.548 71.1101 359.863 71.1101C354.179 71.1101 349.576 66.5268 349.576 60.866C349.576 55.2052 354.179 50.6218 359.863 50.6218C365.548 50.6218 370.15 55.2052 370.15 60.866Z" fill="white"/>
<path d="M73.1709 164.148C74.2755 164.148 75.1709 163.252 75.1709 162.148C75.1709 161.043 74.2755 160.148 73.1709 160.148C72.0663 160.148 71.1709 161.043 71.1709 162.148C71.1709 163.252 72.0663 164.148 73.1709 164.148Z" fill="#969CB1"/>
<path d="M168.657 126.129C169.762 126.129 170.657 125.234 170.657 124.129C170.657 123.025 169.762 122.129 168.657 122.129C167.553 122.129 166.657 123.025 166.657 124.129C166.657 125.234 167.553 126.129 168.657 126.129Z" fill="#969CB1"/>
<path d="M266.144 110.74C266.144 111.839 265.243 112.74 264.144 112.74C263.044 112.74 262.144 111.839 262.144 110.74C262.144 109.641 263.044 108.74 264.144 108.74C265.243 108.74 266.144 109.625 266.144 110.74Z" fill="#969CB1"/>
<path d="M457.1 71.5352C457.1 72.6344 456.199 73.5352 455.1 73.5352C454 73.5352 453.1 72.6344 453.1 71.5352C453.1 70.4361 454 69.5353 455.1 69.5353C456.199 69.5201 457.1 70.4208 457.1 71.5352Z" fill="#969CB1"/>
<path d="M362.875 60.8902C362.875 62.5453 361.53 63.8901 359.875 63.8901C358.22 63.8901 356.875 62.5453 356.875 60.8902C356.875 59.235 358.22 57.8901 359.875 57.8901C361.53 57.8901 362.875 59.235 362.875 60.8902Z" fill="white"/>
<path d="M521.95 9.62168V253.772H6.82112V9.62168H521.95ZM522.431 9.14282H6.35742V254.233H522.431V9.14282Z" fill="#32374D"/>
<path d="M7.12979 16.4968H5.5498V8.3562H13.7245V9.92957H7.12979V16.4968Z" fill="#4E5D8D"/>
<path d="M523.221 16.4968H521.641V9.92957H515.046V8.3562H523.221V16.4968Z" fill="#4E5D8D"/>
<path d="M13.7245 255.02H5.5498V246.88H7.12979V253.447H13.7245V255.02Z" fill="#4E5D8D"/>
<path d="M523.221 255.02H515.046V253.447H521.641V246.88H523.221V255.02Z" fill="#4E5D8D"/>
<defs>
<linearGradient id="paint0_linear" x1="401.635" y1="227.61" x2="278.792" y2="25.6048" gradientUnits="userSpaceOnUse">
<stop stop-color="#FFC807"/>
<stop offset="1" stop-color="#FFED8B"/>
</linearGradient>
</defs>
</svg>
