<svg width="44" height="44" viewBox="0 0 44 44" fill="none" xmlns="http://www.w3.org/2000/svg">
<g clip-path="url(#clip0)">
<path d="M43.706 6.47054C43.706 3.61623 41.418 1.29407 38.6056 1.29407H10.8512C7.87485 1.29407 5.45337 3.75168 5.45337 6.7725V34.9411H0.353027V36.2352C0.353027 39.8031 3.21305 42.7058 6.72846 42.7058H32.2302C34.3394 42.7058 36.0555 40.9643 36.0555 38.8235V11.647H43.706V6.47054ZM6.72846 40.1176C5.06609 40.1176 3.64794 39.0358 3.12167 37.5294H28.4049V38.8235C28.4049 39.277 28.4819 39.7127 28.6234 40.1176H6.72846ZM33.5053 38.8235C33.5053 39.5371 32.9333 40.1176 32.2302 40.1176C31.527 40.1176 30.9551 39.5371 30.9551 38.8235V34.9411H8.00355V6.7725C8.00355 5.17884 9.28101 3.8823 10.8512 3.8823H34.1914C33.756 4.64428 33.5053 5.52799 33.5053 6.47054V38.8235ZM41.1558 9.05877H36.0555C36.0555 8.15358 36.0555 7.37573 36.0555 6.47054C36.0555 5.04338 37.1995 3.8823 38.6056 3.8823C40.0118 3.8823 41.1558 5.04338 41.1558 6.47054V9.05877Z" fill="black"/>
<path d="M27.1298 6.47058C22.937 6.47058 21.7976 12.4189 25.7526 13.974C25.2796 16.3351 23.2183 18.1176 20.7544 18.1176C16.9031 18.1176 13.7079 21.021 13.1807 24.7843C11.6568 25.2959 10.5537 26.7545 10.5537 28.4706C10.5537 30.6114 12.2697 32.3529 14.379 32.3529C16.4882 32.3529 18.2042 30.6114 18.2042 28.4706C18.2042 26.8225 17.1867 25.4121 15.7562 24.8496C16.2292 22.4885 18.2904 20.7059 20.7544 20.7059C24.6058 20.7059 27.801 17.8025 28.3281 14.0392C29.852 13.5276 30.9551 12.069 30.9551 10.3529C30.9551 8.2122 29.2391 6.47058 27.1298 6.47058ZM14.379 29.7647C13.6759 29.7647 13.1039 29.1842 13.1039 28.4706C13.1039 27.757 13.6759 27.1765 14.379 27.1765C15.0821 27.1765 15.6541 27.757 15.6541 28.4706C15.6541 29.1842 15.0821 29.7647 14.379 29.7647ZM27.1298 11.6471C26.4267 11.6471 25.8548 11.0665 25.8548 10.3529C25.8548 9.63936 26.4267 9.05882 27.1298 9.05882C27.8329 9.05882 28.4049 9.63936 28.4049 10.3529C28.4049 11.0665 27.8329 11.6471 27.1298 11.6471Z" fill="white"/>
<path d="M28.9331 23.3591L27.1299 25.1893L25.3267 23.3591L23.5234 25.1893L25.3267 27.0194L23.5234 28.8496L25.3267 30.6798L27.1299 28.8496L28.9331 30.6798L30.7363 28.8496L28.9331 27.0194L30.7363 25.1893L28.9331 23.3591Z" fill="white"/>
<path d="M13.6963 15.4644L15.4995 13.6342L17.3028 15.4644L19.106 13.6342L17.3028 11.8041L19.106 9.97385L17.3028 8.1438L15.4995 9.97394L13.6963 8.1438L11.8931 9.97385L13.6963 11.8041L11.8931 13.6342L13.6963 15.4644Z" fill="white"/>
</g>
<defs>
<clipPath id="clip0">
<rect width="43.3529" height="44" fill="white" transform="translate(0.353027)"/>
</clipPath>
</defs>
</svg>
