<svg width="42" height="42" viewBox="0 0 42 42" fill="none" xmlns="http://www.w3.org/2000/svg">
<g clip-path="url(#clip0)">
<path d="M16.1875 39.375H3.0625C1.37375 39.375 0 38.0012 0 36.3125V18.8125C0 17.1238 1.37375 15.75 3.0625 15.75H16.1875C17.8762 15.75 19.25 17.1238 19.25 18.8125V36.3125C19.25 38.0012 17.8762 39.375 16.1875 39.375ZM3.0625 18.375C2.821 18.375 2.625 18.571 2.625 18.8125V36.3125C2.625 36.554 2.821 36.75 3.0625 36.75H16.1875C16.429 36.75 16.625 36.554 16.625 36.3125V18.8125C16.625 18.571 16.429 18.375 16.1875 18.375H3.0625Z" fill="black"/>
<path d="M40.6875 18.375H24.0625C23.338 18.375 22.75 17.787 22.75 17.0625C22.75 16.338 23.338 15.75 24.0625 15.75H40.6875C41.412 15.75 42 16.338 42 17.0625C42 17.787 41.412 18.375 40.6875 18.375Z" fill="white"/>
<path d="M40.6875 23.625H24.0625C23.338 23.625 22.75 23.037 22.75 22.3125C22.75 21.588 23.338 21 24.0625 21H40.6875C41.412 21 42 21.588 42 22.3125C42 23.037 41.412 23.625 40.6875 23.625Z" fill="white"/>
<path d="M40.6875 28.875H24.0625C23.338 28.875 22.75 28.287 22.75 27.5625C22.75 26.838 23.338 26.25 24.0625 26.25H40.6875C41.412 26.25 42 26.838 42 27.5625C42 28.287 41.412 28.875 40.6875 28.875Z" fill="white"/>
<path d="M40.6875 34.125H24.0625C23.338 34.125 22.75 33.537 22.75 32.8125C22.75 32.088 23.338 31.5 24.0625 31.5H40.6875C41.412 31.5 42 32.088 42 32.8125C42 33.537 41.412 34.125 40.6875 34.125Z" fill="white"/>
<path d="M40.6875 39.375H24.0625C23.338 39.375 22.75 38.787 22.75 38.0625C22.75 37.338 23.338 36.75 24.0625 36.75H40.6875C41.412 36.75 42 37.338 42 38.0625C42 38.787 41.412 39.375 40.6875 39.375Z" fill="white"/>
<path d="M17.5348 38.745C17.162 38.745 16.7928 38.5875 16.5338 38.2795L8.18625 28.4095L0.670002 18.4852C0.232502 17.906 0.344502 17.0835 0.923752 16.646C1.50475 16.2067 2.3255 16.3222 2.763 16.8997L10.2355 26.7697L18.5375 36.5838C19.0065 37.1368 18.9383 37.9663 18.3835 38.4335C18.135 38.6418 17.834 38.745 17.5348 38.745Z" fill="black"/>
<path d="M1.71325 38.745C1.4385 38.745 1.16025 38.6575 0.922254 38.479C0.344754 38.0415 0.231004 37.219 0.668504 36.6398L8.141 26.7698L16.5323 16.8455C16.9995 16.2908 17.829 16.226 18.382 16.6915C18.935 17.1588 19.0033 17.9865 18.536 18.5413L10.1885 28.4113L2.7615 38.2253C2.50425 38.5648 2.11225 38.745 1.71325 38.745Z" fill="black"/>
<path d="M38.9375 10.5H17.0625C15.3738 10.5 14 9.12625 14 7.4375V3.0625C14 1.37375 15.3738 0 17.0625 0H38.9375C40.6263 0 42 1.37375 42 3.0625V7.4375C42 9.12625 40.6263 10.5 38.9375 10.5ZM17.0625 2.625C16.821 2.625 16.625 2.821 16.625 3.0625V7.4375C16.625 7.679 16.821 7.875 17.0625 7.875H38.9375C39.179 7.875 39.375 7.679 39.375 7.4375V3.0625C39.375 2.821 39.179 2.625 38.9375 2.625H17.0625Z" fill="black"/>
<path d="M5.25 10.5C2.3555 10.5 0 8.1445 0 5.25C0 2.3555 2.3555 0 5.25 0C8.1445 0 10.5 2.3555 10.5 5.25C10.5 8.1445 8.1445 10.5 5.25 10.5ZM5.25 2.625C3.80275 2.625 2.625 3.80275 2.625 5.25C2.625 6.69725 3.80275 7.875 5.25 7.875C6.69725 7.875 7.875 6.69725 7.875 5.25C7.875 3.80275 6.69725 2.625 5.25 2.625Z" fill="black"/>
</g>
<defs>
<clipPath id="clip0">
<rect width="42" height="42" fill="white"/>
</clipPath>
</defs>
</svg>
