<svg width="42" height="44" viewBox="0 0 42 44" fill="none" xmlns="http://www.w3.org/2000/svg">
<path d="M41.7109 18.1323H36.4688C35.7568 18.1323 35.1797 18.7095 35.1797 19.4214V19.8511H6.82031V19.4214C6.82031 18.7095 6.24316 18.1323 5.53125 18.1323H0.289062C-0.422844 18.1323 -1 18.7095 -1 19.4214V35.7495C-1 36.4614 -0.422844 37.0386 0.289062 37.0386H5.53125C6.24273 37.0386 6.81945 36.4622 6.82023 35.7509L16.1022 42.7123C17.2356 43.5623 18.5988 44 19.9728 43.9999C20.8475 43.9999 21.7266 43.8225 22.5528 43.4609L30.2075 40.112C31.3521 39.6112 32.1739 38.5793 32.4055 37.3516C32.4869 36.9201 32.49 36.4847 32.4236 36.0628C33.3719 35.9279 34.2963 35.6748 35.1797 35.3105V35.7493C35.1797 36.4612 35.7568 37.0384 36.4688 37.0384H41.7109C42.4228 37.0384 43 36.4612 43 35.7493V19.4212C43 18.7094 42.4228 18.1323 41.7109 18.1323ZM4.24219 34.4604H1.57812V20.7104H4.24219V34.4604ZM29.878 36.84C29.8116 37.2531 29.5239 37.5972 29.1405 37.7648L28.539 38.028L24.9194 34.4083C24.416 33.9049 23.5998 33.9049 23.0964 34.4083C22.5929 34.9117 22.5929 35.7279 23.0964 36.2313L26.0028 39.1377L24.0554 39.9897L21.4819 37.4162C20.964 36.8982 20.1147 36.9132 19.6159 37.4613C19.1487 37.9747 19.1939 38.7742 19.6847 39.265L21.5191 41.0994C20.2448 41.6568 18.7619 41.4846 17.6492 40.65L6.82031 32.5283V22.4292H12.5878L11.4874 23.0406C9.60073 24.0887 8.95741 26.4912 10.0678 28.3419C11.1118 30.0818 13.3344 30.701 15.1276 29.7517L18.2677 28.0893C19.0447 27.6779 19.9816 27.7775 20.6548 28.343L29.5587 35.8222C29.8224 36.097 29.9384 36.4645 29.878 36.84ZM35.1797 32.4508C33.8794 33.1838 32.4224 33.5787 30.9216 33.6001L22.313 26.3689C20.8321 25.125 18.7707 24.9059 17.0614 25.8108L13.9212 27.4732C13.339 27.7815 12.6174 27.5804 12.2785 27.0155C11.918 26.4146 12.1268 25.6346 12.7393 25.2943L17.8965 22.4292H35.1797V32.4508ZM40.4219 34.4604H37.7578V20.7104H40.4219V34.4604Z" fill="black"/>
<path d="M21 18.0469C25.9755 18.0469 30.0234 13.999 30.0234 9.02344C30.0234 4.04791 25.9755 0 21 0C16.0245 0 11.9766 4.04791 11.9766 9.02344C11.9766 13.999 16.0245 18.0469 21 18.0469ZM21 2.57812C24.5539 2.57812 27.4453 5.46949 27.4453 9.02344C27.4453 12.5774 24.5539 15.4688 21 15.4688C17.4461 15.4688 14.5547 12.5774 14.5547 9.02344C14.5547 5.46949 17.4461 2.57812 21 2.57812Z" fill="white"/>
<path d="M18.474 12.0618C18.7257 12.3135 19.0556 12.4393 19.3855 12.4393C19.7153 12.4393 20.0453 12.3135 20.2969 12.0617L24.5506 7.80807C25.0541 7.30473 25.0541 6.4885 24.5506 5.98508C24.0474 5.48174 23.2312 5.48166 22.7277 5.98508L19.3855 9.32727L18.4739 8.41573C17.9706 7.9124 17.1544 7.91231 16.6509 8.41573C16.1476 8.91916 16.1476 9.7353 16.6509 10.2387L18.474 12.0618Z" fill="white"/>
</svg>
