<svg width="42" height="42" viewBox="0 0 42 42" fill="none" xmlns="http://www.w3.org/2000/svg">
<path d="M20.2929 26.0821L21 26.7892L21.7071 26.0821L26.0821 21.7071L26.7892 21L26.0821 20.2929L21.7071 15.9179L21 15.2108L20.2929 15.9179L15.9179 20.2929L15.2107 21L15.9179 21.7071L20.2929 26.0821ZM22.5215 3.38023L38.6197 19.4785C39.4577 20.3165 39.4577 21.6835 38.6197 22.5215L22.5215 38.6198C22.1031 39.0382 21.5535 39.2483 21 39.2483C20.4464 39.2483 19.8968 39.0382 19.4784 38.6198L3.38044 22.5218C3.38036 22.5217 3.38028 22.5216 3.38019 22.5215C2.54199 21.6824 2.54244 20.3162 3.38019 19.4785L19.4782 3.38048C19.4783 3.3804 19.4784 3.38031 19.4784 3.38023C20.3175 2.54203 21.6837 2.54248 22.5215 3.38023Z" stroke="black" stroke-width="2"/>
<mask id="mask0" mask-type="alpha" maskUnits="userSpaceOnUse" x="1" y="1" width="40" height="40">
<path d="M20.2929 26.0821L21 26.7892L21.7071 26.0821L26.0821 21.7071L26.7892 21L26.0821 20.2929L21.7071 15.9179L21 15.2108L20.2929 15.9179L15.9179 20.2929L15.2107 21L15.9179 21.7071L20.2929 26.0821ZM22.5215 3.38023L38.6197 19.4785C39.4577 20.3165 39.4577 21.6835 38.6197 22.5215L22.5215 38.6198C22.1031 39.0382 21.5535 39.2483 21 39.2483C20.4464 39.2483 19.8968 39.0382 19.4784 38.6198L3.38044 22.5218C3.38036 22.5217 3.38028 22.5216 3.38019 22.5215C2.54199 21.6824 2.54244 20.3162 3.38019 19.4785L19.4782 3.38048C19.4783 3.3804 19.4784 3.38031 19.4784 3.38023C20.3175 2.54203 21.6837 2.54248 22.5215 3.38023Z" stroke="black" stroke-width="2"/>
</mask>
<g mask="url(#mask0)">
<rect x="21" y="13.5147" width="12" height="12" transform="rotate(45 21 13.5147)" fill="white"/>
</g>
</svg>
