<svg width="42" height="42" viewBox="0 0 42 42" fill="none" xmlns="http://www.w3.org/2000/svg">
<path d="M21.0006 7.62024C20.9714 7.62024 20.9415 7.62032 20.9121 7.62049C13.5795 7.66716 7.66203 13.4875 7.50699 20.8251C7.41864 25.0146 9.23112 28.9357 12.4796 31.583C13.2311 32.1954 13.6621 33.0961 13.6621 34.0542V40.7695C13.6621 41.4486 14.2131 42 14.8926 42H14.9003L27.1149 41.9238C27.7914 41.9196 28.3377 41.3699 28.3377 40.6933V34.0796C28.3377 33.1065 28.772 32.1939 29.5291 31.5757C32.6856 28.999 34.4958 25.1866 34.4958 21.1162C34.4958 13.6572 28.4602 7.62024 21.0006 7.62024ZM16.1231 39.5313V35.924H25.8767V39.4704L16.1231 39.5313ZM27.973 29.6694C26.8018 30.6253 26.0703 31.9834 25.9105 33.4631H16.0912C15.9364 31.9875 15.2066 30.6308 14.0342 29.6753C11.3774 27.5102 9.89509 24.3034 9.96744 20.877C10.0943 14.8617 14.9088 10.1197 20.9278 10.0813C20.952 10.0813 20.976 10.0812 21.0002 10.0812C27.0995 10.0812 32.035 15.0169 32.035 21.1162C32.0349 24.4445 30.5544 27.562 27.973 29.6694Z" fill="black"/>
<path d="M27.2103 16.5922L21.5502 13.7621C21.2038 13.5889 20.7961 13.5889 20.4497 13.7621L14.7896 16.5922C14.3742 16.7999 14.1094 17.2278 14.1094 17.6928V24.2962C14.1094 24.7623 14.3727 25.1883 14.7896 25.3968L20.4497 28.2269C20.781 28.3923 21.1853 28.4035 21.5353 28.2342L27.1954 25.4985C27.6204 25.293 27.8905 24.8626 27.8905 24.3906V17.7106C27.9008 17.2484 27.6344 16.8042 27.2103 16.5922ZM20.9999 16.2384L23.9629 17.7198L21.0848 19.232L18.0734 17.7016L20.9999 16.2384ZM16.5703 19.6983L19.8529 21.3664L19.798 25.1494L16.5703 23.5355V19.6983ZM22.2591 25.1509L22.314 21.3662L25.4295 19.7292V23.6185L22.2591 25.1509Z" fill="white"/>
<path d="M3.77344 19.764H1.23047C0.550922 19.764 0 20.3149 0 20.9944C0 21.674 0.550922 22.2249 1.23047 22.2249H3.77344C4.45298 22.2249 5.00391 21.674 5.00391 20.9944C5.00391 20.3149 4.45298 19.764 3.77344 19.764Z" fill="black"/>
<path d="M40.7695 19.764H38.2266C37.547 19.764 36.9961 20.3149 36.9961 20.9944C36.9961 21.674 37.547 22.2249 38.2266 22.2249H40.7695C41.4491 22.2249 42 21.674 42 20.9944C42 20.3149 41.4491 19.764 40.7695 19.764Z" fill="black"/>
<path d="M21 5.00391C21.6795 5.00391 22.2305 4.45298 22.2305 3.77344V1.23047C22.2305 0.550922 21.6795 0 21 0C20.3205 0 19.7695 0.550922 19.7695 1.23047V3.77344C19.7695 4.45298 20.3205 5.00391 21 5.00391Z" fill="black"/>
<path d="M7.94914 9.68341C8.4296 10.1639 9.20873 10.164 9.68927 9.68341C10.1698 9.20288 10.1698 8.42383 9.68927 7.94329L7.89106 6.14516C7.4106 5.66471 6.63147 5.66462 6.15093 6.14516C5.67039 6.6257 5.67039 7.40475 6.15093 7.88529L7.94914 9.68341Z" fill="black"/>
<path d="M34.0507 32.3053C33.5703 31.8249 32.7911 31.8248 32.3106 32.3053C31.8301 32.7859 31.8301 33.5649 32.3106 34.0454L34.1088 35.8436C34.5893 36.324 35.3684 36.3241 35.8489 35.8436C36.3295 35.363 36.3295 34.584 35.8489 34.1034L34.0507 32.3053Z" fill="black"/>
<path d="M7.94914 32.3053L6.15093 34.1034C5.67039 34.584 5.67039 35.363 6.15093 35.8436C6.63139 36.3241 7.41044 36.3241 7.89106 35.8436L9.68927 34.0455C10.1698 33.5649 10.1698 32.7859 9.68927 32.3053C9.20889 31.8249 8.42976 31.8248 7.94914 32.3053Z" fill="black"/>
<path d="M34.1088 6.14516L32.3106 7.94329C31.8301 8.42383 31.8301 9.20288 32.3106 9.68342C32.7911 10.164 33.5701 10.164 34.0507 9.68342L35.8489 7.88529C36.3295 7.40475 36.3295 6.6257 35.8489 6.14516C35.3684 5.66471 34.5893 5.66462 34.1088 6.14516Z" fill="black"/>
</svg>
