<svg width="40" height="40" viewBox="0 0 40 40" fill="none" xmlns="http://www.w3.org/2000/svg">
<g clip-path="url(#clip0)">
<path d="M27.4334 32.3167V7.31671C27.4334 5.67381 28.864 4.33337 30.4168 4.33337C31.9668 4.33337 33.4001 5.50445 33.4001 7.50004V32.3167C33.4001 33.5882 32.972 34.3999 32.4383 34.8984C31.8874 35.413 31.1455 35.6667 30.4168 35.6667C28.891 35.6667 27.4334 34.5531 27.4334 32.3167ZM17.0168 32.3167V20C17.0168 18.3571 18.4473 17.0167 20.0001 17.0167C21.5501 17.0167 22.9834 18.1878 22.9834 20.1834V32.3167C22.9834 33.5882 22.5553 34.3999 22.0217 34.8984C21.4708 35.413 20.7288 35.6667 20.0001 35.6667C18.4997 35.6667 17.0168 34.5618 17.0168 32.3167ZM9.58343 29.7167C11.2339 29.7167 12.5668 31.0551 12.5668 32.6834C12.5668 34.3311 11.2311 35.6667 9.58343 35.6667C7.93572 35.6667 6.6001 34.3311 6.6001 32.6834C6.6001 31.0551 7.93299 29.7167 9.58343 29.7167Z" stroke="black" stroke-width="2"/>
<mask id="mask0" mask-type="alpha" maskUnits="userSpaceOnUse" x="5" y="3" width="30" height="34">
<path d="M27.4334 32.3167V7.31671C27.4334 5.67381 28.864 4.33337 30.4168 4.33337C31.9668 4.33337 33.4001 5.50445 33.4001 7.50004V32.3167C33.4001 33.5882 32.972 34.3999 32.4383 34.8984C31.8874 35.413 31.1455 35.6667 30.4168 35.6667C28.891 35.6667 27.4334 34.5531 27.4334 32.3167ZM17.0168 32.3167V20C17.0168 18.3571 18.4473 17.0167 20.0001 17.0167C21.5501 17.0167 22.9834 18.1878 22.9834 20.1834V32.3167C22.9834 33.5882 22.5553 34.3999 22.0217 34.8984C21.4708 35.413 20.7288 35.6667 20.0001 35.6667C18.4997 35.6667 17.0168 34.5618 17.0168 32.3167ZM9.58343 29.7167C11.2339 29.7167 12.5668 31.0551 12.5668 32.6834C12.5668 34.3311 11.2311 35.6667 9.58343 35.6667C7.93572 35.6667 6.6001 34.3311 6.6001 32.6834C6.6001 31.0551 7.93299 29.7167 9.58343 29.7167Z" stroke="black" stroke-width="2"/>
</mask>
<g mask="url(#mask0)">
<rect x="3" y="27" width="12" height="11" fill="white"/>
</g>
<circle cx="20" cy="20" r="37" fill="#FFC807"/>
<rect x="16" y="2" width="23" height="8" rx="4" stroke="black" stroke-width="2"/>
<rect x="1" y="16" width="23" height="8" rx="4" stroke="black" stroke-width="2"/>
<rect x="15" y="30" width="24" height="8" rx="4" stroke="black" stroke-width="2"/>
<circle cx="35" cy="6" r="5" fill="white"/>
<circle cx="20" cy="20" r="5" fill="white"/>
<circle cx="35" cy="34" r="5" fill="white"/>
</g>
<defs>
<clipPath id="clip0">
<rect width="40" height="40" fill="white"/>
</clipPath>
</defs>
</svg>
