<svg width="42" height="42" viewBox="0 0 42 42" fill="none" xmlns="http://www.w3.org/2000/svg">
<path d="M23.461 26.4961C23.461 27.1756 24.0119 27.7266 24.6914 27.7266H26.6427L22.2305 32.1388L18.1787 28.0869C17.6982 27.6065 16.9191 27.6065 16.4385 28.0869L11.5167 33.0088C11.0361 33.4893 11.0361 34.2684 11.5167 34.7489C11.9971 35.2295 12.7762 35.2295 13.2568 34.7489L17.3086 30.6972L21.3605 34.749C21.8409 35.2295 22.6201 35.2296 23.1006 34.749L28.3829 29.4667V31.418C28.3829 32.0975 28.9338 32.6484 29.6133 32.6484C30.2929 32.6484 30.8438 32.0975 30.8438 31.418V26.4961C30.8438 25.8165 30.2929 25.2656 29.6133 25.2656H24.6914C24.0119 25.2656 23.461 25.8165 23.461 26.4961Z" fill="white"/>
<path d="M40.7695 7.46484H29.6133V6.23438C29.6133 4.19893 27.9573 2.54297 25.9219 2.54297H16.0781C14.0427 2.54297 12.3867 4.19893 12.3867 6.23438V7.46484H1.23047C0.550922 7.46484 0 8.01577 0 8.69531V16.0781C0 17.6823 1.02859 19.0509 2.46094 19.5587V35.7656C2.46094 37.8011 4.1169 39.457 6.15234 39.457H35.8477C37.8831 39.457 39.5391 37.8011 39.5391 35.7656V19.5587C40.9713 19.0509 42 17.6823 42 16.0781V8.69531C42 8.01577 41.4491 7.46484 40.7695 7.46484ZM14.8477 6.23438C14.8477 5.55589 15.3996 5.00391 16.0781 5.00391H25.9219C26.6004 5.00391 27.1523 5.55589 27.1523 6.23438V7.46484H14.8477V6.23438ZM37.0781 35.7656C37.0781 36.4441 36.5261 36.9961 35.8477 36.9961H6.15234C5.47386 36.9961 4.92188 36.4441 4.92188 35.7656V19.7695H17.3086V21C17.3086 23.0354 18.9646 24.6914 21 24.6914C23.0354 24.6914 24.6914 23.0354 24.6914 21V19.7695H37.0781V35.7656ZM19.7695 21V19.7695H22.2305V21C22.2305 21.6785 21.6785 22.2305 21 22.2305C20.3215 22.2305 19.7695 21.6785 19.7695 21ZM39.5391 16.0781C39.5391 16.7566 38.9872 17.3086 38.3086 17.3086H3.69141H3.69132H3.69124C3.01284 17.3086 2.46094 16.7566 2.46094 16.0781V9.92578H39.5391V16.0781Z" fill="black"/>
</svg>
