<svg width="42" height="42" viewBox="0 0 42 42" fill="none" xmlns="http://www.w3.org/2000/svg">
<path d="M18.8672 23.7891C18.8672 28.7646 22.9151 32.8125 27.8906 32.8125C32.8661 32.8125 36.9141 28.7646 36.9141 23.7891C36.9141 18.8135 32.8661 14.7656 27.8906 14.7656C22.9151 14.7656 18.8672 18.8135 18.8672 23.7891ZM29.1211 17.3439C31.7545 17.8457 33.834 19.9252 34.3357 22.5586H29.1211V17.3439ZM28.4003 25.0195H34.3357C33.758 28.0517 31.0885 30.3516 27.8906 30.3516C26.5251 30.3516 25.2559 29.9319 24.2045 29.2153L28.4003 25.0195ZM26.6602 17.3439V23.2794L22.4643 27.4752C21.7478 26.4238 21.3281 25.1546 21.3281 23.7891C21.3281 20.5912 23.628 17.9217 26.6602 17.3439Z" fill="white"/>
<path d="M12.7148 14.7656H6.15234C5.4728 14.7656 4.92188 15.3165 4.92188 15.9961C4.92188 16.6756 5.4728 17.2266 6.15234 17.2266H12.7148C13.3944 17.2266 13.9453 16.6756 13.9453 15.9961C13.9453 15.3165 13.3944 14.7656 12.7148 14.7656Z" fill="black"/>
<path d="M12.7148 19.6875H6.15234C5.4728 19.6875 4.92188 20.2384 4.92188 20.918C4.92188 21.5975 5.4728 22.1484 6.15234 22.1484H12.7148C13.3944 22.1484 13.9453 21.5975 13.9453 20.918C13.9453 20.2384 13.3944 19.6875 12.7148 19.6875Z" fill="black"/>
<path d="M38.3086 0H3.69141C1.65596 0 0 1.65596 0 3.69141V38.3086C0 40.344 1.65596 42 3.69141 42H38.3086C40.3441 42 42 40.344 42 38.3086V3.69141C42 1.65596 40.3441 0 38.3086 0ZM39.5391 38.3086C39.5391 38.9871 38.9872 39.5391 38.3086 39.5391H3.69141C3.01293 39.5391 2.46094 38.9871 2.46094 38.3086V12.3047H22.5586C22.838 12.3047 23.1091 12.2096 23.3272 12.0351L27.0918 9.02344H39.5391V38.3086ZM39.5391 6.5625H26.6602C26.3808 6.5625 26.1096 6.65757 25.8915 6.83214L22.1269 9.84375H2.46094V3.69141C2.46094 3.01293 3.01293 2.46094 3.69141 2.46094H38.3086C38.9872 2.46094 39.5391 3.01293 39.5391 3.69141V6.5625Z" fill="black"/>
<path d="M7.79297 4.92188H6.15234C5.4728 4.92188 4.92188 5.4728 4.92188 6.15234C4.92188 6.83189 5.4728 7.38281 6.15234 7.38281H7.79297C8.47252 7.38281 9.02344 6.83189 9.02344 6.15234C9.02344 5.4728 8.47252 4.92188 7.79297 4.92188Z" fill="white"/>
<path d="M14.3555 4.92188H12.7148C12.0353 4.92188 11.4844 5.4728 11.4844 6.15234C11.4844 6.83189 12.0353 7.38281 12.7148 7.38281H14.3555C15.035 7.38281 15.5859 6.83189 15.5859 6.15234C15.5859 5.4728 15.035 4.92188 14.3555 4.92188Z" fill="white"/>
<path d="M20.918 4.92188H19.2773C18.5978 4.92188 18.0469 5.4728 18.0469 6.15234C18.0469 6.83189 18.5978 7.38281 19.2773 7.38281H20.918C21.5975 7.38281 22.1484 6.83189 22.1484 6.15234C22.1484 5.4728 21.5975 4.92188 20.918 4.92188Z" fill="white"/>
<path d="M15.9961 27.0703C15.3165 27.0703 14.7656 27.6212 14.7656 28.3008V35.6836C14.7656 36.3631 15.3165 36.9141 15.9961 36.9141C16.6756 36.9141 17.2266 36.3631 17.2266 35.6836V28.3008C17.2266 27.6212 16.6756 27.0703 15.9961 27.0703Z" fill="black"/>
<path d="M11.0742 29.5312C10.3947 29.5312 9.84375 30.0822 9.84375 30.7617V35.6836C9.84375 36.3631 10.3947 36.9141 11.0742 36.9141C11.7538 36.9141 12.3047 36.3631 12.3047 35.6836V30.7617C12.3047 30.0822 11.7538 29.5312 11.0742 29.5312Z" fill="black"/>
<path d="M6.15234 31.9922C5.4728 31.9922 4.92188 32.5431 4.92188 33.2227V35.6836C4.92188 36.3631 5.4728 36.9141 6.15234 36.9141C6.83189 36.9141 7.38281 36.3631 7.38281 35.6836V33.2227C7.38281 32.5431 6.83189 31.9922 6.15234 31.9922Z" fill="black"/>
</svg>
