<svg width="40" height="40" viewBox="0 0 40 40" fill="none" xmlns="http://www.w3.org/2000/svg">
<g clip-path="url(#clip0)">
<path d="M16.9268 4.6875C10.3267 4.6875 4.95703 10.1373 4.95703 16.8359C4.95703 23.5346 10.3267 28.9844 16.9268 28.9844C23.527 28.9844 28.8966 23.5346 28.8966 16.8359C28.8966 10.1372 23.527 4.6875 16.9268 4.6875ZM16.9268 7.03125C22.2536 7.03125 26.5873 11.4296 26.5873 16.8359C26.5873 19.0523 25.8586 21.0989 24.6321 22.7429C23.4861 21.7583 22.1879 21.0126 20.7932 20.5305C21.6899 19.5645 22.2412 18.2646 22.2412 16.8359C22.2412 13.8619 19.8572 11.4423 16.9269 11.4423C13.9966 11.4423 11.6125 13.8619 11.6125 16.8359C11.6125 18.2647 12.1638 19.5645 13.0605 20.5305C11.6658 21.0127 10.3676 21.7584 9.22151 22.7427C7.99505 21.0988 7.26631 19.0523 7.26631 16.8359C7.26631 11.4295 11.6 7.03125 16.9268 7.03125ZM13.9217 16.8359C13.9217 15.1542 15.2698 13.786 16.9268 13.786C18.5838 13.786 19.9318 15.1542 19.9318 16.8359C19.9318 18.5176 18.5838 19.8858 16.9268 19.8858C15.2698 19.8858 13.9217 18.5176 13.9217 16.8359ZM10.8291 24.4346C12.5476 23.0053 14.6735 22.2295 16.9268 22.2295C19.1802 22.2295 21.3061 23.0053 23.0246 24.4346C21.3604 25.8128 19.2372 26.6405 16.9268 26.6405C14.6165 26.6406 12.4932 25.8128 10.8291 24.4346Z" fill="white"/>
<path d="M39.4118 34.6857L30.8433 25.9891C32.5322 23.3527 33.5151 20.2093 33.5151 16.8369C33.5151 7.55355 26.0736 0.000976562 16.9267 0.000976562C7.77989 0.000976562 0.338379 7.55347 0.338379 16.8369C0.338379 26.1203 7.77989 33.6728 16.9267 33.6728C20.2496 33.6728 23.3468 32.6753 25.9446 30.961L34.5131 39.6575C34.7296 39.8774 35.0233 40.0008 35.3296 40.0008C35.6358 40.0008 35.9295 39.8774 36.146 39.6575L39.4118 36.3429C39.8628 35.8853 39.8628 35.1433 39.4118 34.6857ZM2.64766 16.8369C2.64766 8.8459 9.05323 2.34473 16.9267 2.34473C24.8002 2.34473 31.2058 8.84582 31.2058 16.8369C31.2058 24.8279 24.8002 31.3291 16.9267 31.3291C9.05323 31.3291 2.64766 24.8279 2.64766 16.8369ZM35.3296 37.1717L27.8061 29.5358C28.3873 29.0223 28.9331 28.4684 29.439 27.8785L36.9625 35.5143L35.3296 37.1717Z" fill="black"/>
</g>
<defs>
<clipPath id="clip0">
<rect width="39.4118" height="40" fill="white" transform="translate(0.338379)"/>
</clipPath>
</defs>
</svg>
