<svg width="42" height="42" viewBox="0 0 42 42" fill="none" xmlns="http://www.w3.org/2000/svg">
<path d="M6.23438 19.6875C7.22772 19.6875 8.13007 19.2924 8.79433 18.6519L12.4159 20.4626C12.3973 20.612 12.3867 20.7635 12.3867 20.918C12.3867 22.9534 14.0427 24.6094 16.0781 24.6094C18.1135 24.6094 19.7695 22.9534 19.7695 20.918C19.7695 20.3489 19.6398 19.8093 19.4087 19.3273L24.3312 14.4048C24.8132 14.6358 25.3528 14.7656 25.9219 14.7656C27.9573 14.7656 29.6133 13.1096 29.6133 11.0742C29.6133 10.6897 29.554 10.319 29.4444 9.97032L33.7209 6.76309C34.3067 7.15434 35.0097 7.38281 35.7656 7.38281C37.801 7.38281 39.457 5.72681 39.457 3.69141C39.457 1.65601 37.801 0 35.7656 0C33.7302 0 32.0742 1.65601 32.0742 3.69141C32.0742 4.07593 32.1335 4.44667 32.2431 4.7953L27.9666 8.00253C27.3808 7.61128 26.6778 7.38281 25.9219 7.38281C23.8865 7.38281 22.2305 9.03882 22.2305 11.0742C22.2305 11.6433 22.3602 12.1829 22.5913 12.6649L17.6688 17.5874C17.1868 17.3563 16.6472 17.2266 16.0781 17.2266C15.0848 17.2266 14.1824 17.6217 13.5182 18.2622L9.89662 16.4514C9.91521 16.3021 9.92578 16.1505 9.92578 15.9961C9.92578 13.9607 8.26978 12.3047 6.23438 12.3047C4.19897 12.3047 2.54297 13.9607 2.54297 15.9961C2.54297 18.0315 4.19897 19.6875 6.23438 19.6875ZM35.7656 2.46094C36.444 2.46094 36.9961 3.01305 36.9961 3.69141C36.9961 4.36977 36.444 4.92188 35.7656 4.92188C35.0873 4.92188 34.5352 4.36977 34.5352 3.69141C34.5352 3.01305 35.0873 2.46094 35.7656 2.46094ZM25.9219 9.84375C26.6002 9.84375 27.1523 10.3959 27.1523 11.0742C27.1523 11.7526 26.6002 12.3047 25.9219 12.3047C25.2435 12.3047 24.6914 11.7526 24.6914 11.0742C24.6914 10.3959 25.2435 9.84375 25.9219 9.84375ZM16.0781 19.6875C16.7565 19.6875 17.3086 20.2396 17.3086 20.918C17.3086 21.5963 16.7565 22.1484 16.0781 22.1484C15.3998 22.1484 14.8477 21.5963 14.8477 20.918C14.8477 20.2396 15.3998 19.6875 16.0781 19.6875ZM6.23438 14.7656C6.91273 14.7656 7.46484 15.3177 7.46484 15.9961C7.46484 16.6745 6.91273 17.2266 6.23438 17.2266C5.55602 17.2266 5.00391 16.6745 5.00391 15.9961C5.00391 15.3177 5.55602 14.7656 6.23438 14.7656Z" fill="white"/>
<path d="M40.7695 39.5391H39.457V13.5352C39.457 12.8555 38.9062 12.3047 38.2266 12.3047H33.3047C32.625 12.3047 32.0742 12.8555 32.0742 13.5352V39.5391H29.6133V20.918C29.6133 20.2383 29.0625 19.6875 28.3828 19.6875H23.4609C22.7813 19.6875 22.2305 20.2383 22.2305 20.918V39.5391H19.7695V30.7617C19.7695 30.0821 19.2187 29.5312 18.5391 29.5312H13.6172C12.9375 29.5312 12.3867 30.0821 12.3867 30.7617V39.5391H9.92578V25.8398C9.92578 25.1602 9.37495 24.6094 8.69531 24.6094H3.77344C3.0938 24.6094 2.54297 25.1602 2.54297 25.8398V39.5391H1.23047C0.550827 39.5391 0 40.0899 0 40.7695C0 41.4492 0.550827 42 1.23047 42H40.7695C41.4492 42 42 41.4492 42 40.7695C42 40.0899 41.4492 39.5391 40.7695 39.5391ZM34.5352 14.7656H36.9961V39.5391H34.5352V14.7656ZM24.6914 22.1484H27.1523V39.5391H24.6914V22.1484ZM14.8477 31.9922H17.3086V39.5391H14.8477V31.9922ZM5.00391 27.0703H7.46484V39.5391H5.00391V27.0703Z" fill="black"/>
</svg>
