<svg width="168" height="50" viewBox="0 0 168 50" fill="none" xmlns="http://www.w3.org/2000/svg">
<path d="M19.7746 18.3355C19.7774 18.6642 19.7609 18.9927 19.7252 19.3195C19.7027 19.5433 19.6523 19.7635 19.5751 19.9749C19.5249 20.1168 19.4388 20.2436 19.3253 20.343C19.2328 20.4197 19.1164 20.462 18.996 20.4625H12.5217V41.191C12.5219 41.3217 12.476 41.4482 12.3919 41.5486C12.2757 41.673 12.1268 41.7625 11.962 41.8069C11.6985 41.8865 11.4276 41.9398 11.1534 41.9659C10.7323 42.0096 10.3091 42.0296 9.88571 42.0256C9.46207 42.0296 9.03854 42.0097 8.61716 41.9659C8.34298 41.9397 8.0721 41.8865 7.80853 41.8069C7.64385 41.7629 7.49509 41.6733 7.3795 41.5486C7.29478 41.4486 7.24875 41.3218 7.24974 41.191V20.4625H0.778969C0.65566 20.465 0.535681 20.4225 0.441748 20.343C0.333306 20.2411 0.250968 20.1149 0.201632 19.9749C0.123717 19.7636 0.0729953 19.5434 0.0506771 19.3195C0.0141582 18.9928 -0.00264473 18.6642 0.00035872 18.3355C-0.0027251 17.9971 0.0140764 17.6589 0.0506771 17.3225C0.0718712 17.0951 0.122002 16.8714 0.199867 16.6566C0.247902 16.5185 0.331269 16.3952 0.441748 16.299C0.538599 16.2245 0.658383 16.1857 0.780735 16.1892H18.9916C19.1104 16.189 19.2261 16.2276 19.3208 16.299C19.4358 16.3929 19.5223 16.5167 19.5707 16.6566C19.6485 16.8714 19.6989 17.0952 19.7207 17.3225C19.758 17.6589 19.776 17.9971 19.7746 18.3355Z" fill="white"/>
<path d="M39.7253 32.1875C39.7253 33.6975 39.5255 35.0753 39.1259 36.3211C38.7582 37.5113 38.1384 38.6093 37.3083 39.541C36.4662 40.4633 35.4198 41.1777 34.2521 41.6276C33.0274 42.1178 31.5964 42.3629 29.9592 42.3629C28.3743 42.3629 26.9963 42.1444 25.8251 41.7075C24.6539 41.2706 23.6829 40.6345 22.9119 39.7993C22.1357 38.9647 21.5607 37.9394 21.187 36.7235C20.8133 35.5076 20.627 34.1162 20.6282 32.5495C20.6282 31.039 20.8312 29.6579 21.2373 28.4063C21.6081 27.2153 22.2312 26.1173 23.0646 25.1864C23.9065 24.2697 24.9488 23.5579 26.1111 23.106C27.3294 22.6169 28.7574 22.3718 30.3952 22.3706C31.9919 22.3706 33.3764 22.5861 34.5487 23.0172C35.7211 23.4483 36.6895 24.0809 37.454 24.9149C38.219 25.7495 38.7881 26.7762 39.1612 27.9951C39.5344 29.2139 39.7224 30.6114 39.7253 32.1875ZM34.5531 32.3861C34.5582 31.5765 34.4869 30.7682 34.3404 29.9718C34.2234 29.2953 33.9841 28.6455 33.6342 28.054C33.3127 27.5215 32.856 27.0828 32.31 26.7818C31.7574 26.4778 31.0617 26.3256 30.2231 26.325C29.4775 26.325 28.8251 26.4608 28.266 26.7326C27.709 27.0021 27.2336 27.4134 26.888 27.9248C26.5062 28.5005 26.2323 29.1401 26.0793 29.8128C25.8867 30.6382 25.7937 31.4834 25.8021 32.3307C25.7959 33.1407 25.8692 33.9493 26.0211 34.745C26.144 35.4199 26.3829 36.0687 26.7273 36.6629C27.043 37.1974 27.5014 37.6343 28.0515 37.9254C28.6106 38.2229 29.3027 38.3719 30.1278 38.3725C30.887 38.3725 31.5461 38.2367 32.1052 37.9649C32.6601 37.6968 33.1352 37.2892 33.4832 36.7824C33.8659 36.2118 34.1369 35.5746 34.2821 34.904C34.4674 34.0776 34.5568 33.2328 34.5487 32.3861H34.5531Z" fill="white"/>
<path d="M60.8888 32.1875C60.8888 33.6975 60.689 35.0753 60.2894 36.3211C59.922 37.5113 59.3025 38.6092 58.4726 39.541C57.6306 40.463 56.5846 41.1774 55.4173 41.6276C54.192 42.1178 52.7608 42.3629 51.1235 42.3629C49.5386 42.3629 48.1609 42.1444 46.9903 41.7075C45.8198 41.2706 44.8487 40.6345 44.0772 39.7993C43.3033 38.9647 42.7301 37.9394 42.3575 36.7235C41.985 35.5076 41.7984 34.1162 41.7979 32.5495C41.7979 31.039 42.0009 29.6579 42.407 28.4063C42.7781 27.2154 43.4012 26.1175 44.2343 25.1864C45.0762 24.2701 46.1181 23.5583 47.2799 23.106C48.4981 22.6169 49.9259 22.3718 51.5631 22.3706C53.161 22.3706 54.544 22.5861 55.7122 23.0172C56.8804 23.4483 57.8491 24.0809 58.6183 24.9149C59.3834 25.7495 59.9525 26.7762 60.3256 27.9951C60.6987 29.2139 60.8864 30.6114 60.8888 32.1875ZM55.7166 32.3861C55.7223 31.5766 55.6523 30.7684 55.5074 29.9718C55.3896 29.2955 55.1504 28.6459 54.8012 28.054C54.4796 27.5216 54.0229 27.0829 53.477 26.7818C52.9244 26.4778 52.2288 26.3256 51.3901 26.325C50.645 26.325 49.993 26.4608 49.4339 26.7326C48.8768 27.0019 48.4013 27.4132 48.0559 27.9248C47.6734 28.5002 47.3992 29.1399 47.2464 29.8128C47.0586 30.6376 46.9697 31.4816 46.9815 32.3272C46.9756 33.1372 47.0492 33.9458 47.2013 34.7415C47.3242 35.4164 47.5631 36.0652 47.9076 36.6594C48.2235 37.1936 48.6818 37.6306 49.2317 37.9218C49.7914 38.2194 50.4838 38.3684 51.3089 38.369C52.0675 38.369 52.7263 38.2331 53.2854 37.9614C53.8405 37.6936 54.3156 37.2859 54.6634 36.7788C55.0461 36.2083 55.3171 35.571 55.4624 34.9005C55.6432 34.0748 55.7285 33.2311 55.7166 32.3861Z" fill="white"/>
<path d="M80.1007 24.7349C80.1007 25.371 80.0274 25.8413 79.8809 26.1459C79.7344 26.4516 79.5543 26.6036 79.3415 26.6036H77.2432C77.531 26.9137 77.7458 27.2837 77.8717 27.6869C77.9992 28.0953 78.0632 28.5208 78.0615 28.9485C78.0615 29.9816 77.8885 30.8991 77.5424 31.701C77.2115 32.4824 76.7022 33.1763 76.055 33.7278C75.3696 34.2989 74.5745 34.7251 73.7183 34.9806C72.7308 35.276 71.7038 35.42 70.6727 35.4076C70.1194 35.4103 69.5682 35.34 69.0334 35.1985C68.5144 35.0597 68.115 34.8974 67.8355 34.7118C67.6663 34.8974 67.5221 35.1041 67.4065 35.3267C67.278 35.572 67.2128 35.8452 67.2167 36.1218C67.2167 36.5066 67.3865 36.8215 67.726 37.0663C68.0656 37.3111 68.5414 37.447 69.1535 37.4739L73.487 37.6329C74.4038 37.6572 75.3134 37.8007 76.1927 38.0599C76.9212 38.2714 77.6009 38.6233 78.193 39.0957C78.7219 39.5285 79.1446 40.0757 79.4289 40.6956C79.7246 41.3654 79.871 42.091 79.8579 42.8225C79.8615 43.6809 79.6632 44.5281 79.2788 45.2965C78.871 46.099 78.2751 46.7921 77.5416 47.3172C76.7694 47.8865 75.801 48.3369 74.6364 48.6684C73.4717 48.9999 72.1105 49.1657 70.5527 49.1657C69.0343 49.1657 67.7396 49.0465 66.6685 48.8081C65.5974 48.5697 64.7187 48.2385 64.0325 47.8145C63.3469 47.3904 62.8467 46.8835 62.5318 46.2937C62.2173 45.696 62.0563 45.0302 62.0631 44.3556C62.0619 43.9306 62.1201 43.5075 62.2361 43.0984C62.3509 42.6974 62.5187 42.3134 62.7349 41.9563C62.9645 41.5792 63.236 41.2291 63.5444 40.9126C63.883 40.5645 64.2503 40.2454 64.6425 39.9585C64.0971 39.6787 63.6403 39.2539 63.3229 38.7312C63.0056 38.2085 62.8403 37.6084 62.8452 36.9977C62.8355 36.2511 63.021 35.5148 63.3837 34.8611C63.7517 34.209 64.2247 33.6214 64.7838 33.1216C64.3067 32.6418 63.927 32.0751 63.6653 31.4523C63.3863 30.804 63.2466 29.9957 63.246 29.0275C63.246 27.9944 63.429 27.0704 63.7951 26.2557C64.1457 25.4626 64.6684 24.7566 65.3258 24.1885C66.0104 23.6073 66.8049 23.1682 67.6625 22.897C68.6304 22.5894 69.6417 22.4384 70.6577 22.4498C71.1951 22.4486 71.7321 22.4818 72.2652 22.5491C72.7469 22.6095 73.2238 22.7026 73.6927 22.8276H79.3424C79.5684 22.8276 79.752 22.9734 79.8915 23.2669C80.031 23.5603 80.1007 24.0461 80.1007 24.7349ZM74.8288 43.0791C74.8288 42.4828 74.589 42.0257 74.1094 41.7077C73.6297 41.3896 72.9709 41.2174 72.1328 41.1911L68.5585 41.0918C68.2571 41.3034 67.9792 41.5463 67.7296 41.8166C67.5424 42.0225 67.3751 42.2455 67.2299 42.4825C67.1127 42.6722 67.0283 42.8801 66.9801 43.0975C66.9403 43.3001 66.9205 43.5061 66.921 43.7125C66.921 44.3749 67.257 44.8783 67.9291 45.2227C68.6012 45.5671 69.5498 45.7393 70.7751 45.7393C71.5331 45.7393 72.172 45.6632 72.6916 45.5109C73.1457 45.3899 73.5726 45.1842 73.9496 44.9047C74.2441 44.6847 74.4777 44.3939 74.6284 44.0595C74.7614 43.7497 74.8296 43.4161 74.8288 43.0791ZM73.6503 28.9283C73.6503 27.9753 73.3855 27.2335 72.8558 26.7029C72.3262 26.1722 71.574 25.9072 70.5995 25.9078C70.1541 25.8984 69.7118 25.9831 69.3018 26.1564C68.9454 26.3097 68.628 26.5406 68.3731 26.832C68.1231 27.122 67.9362 27.4603 67.824 27.8257C67.7044 28.2085 67.6449 28.6073 67.6475 29.0082C67.6475 29.9096 67.9123 30.6218 68.442 31.1448C68.9716 31.6679 69.7105 31.9294 70.6586 31.9294C71.1096 31.9397 71.558 31.8587 71.9766 31.6913C72.3316 31.5445 72.649 31.3202 72.9053 31.035C73.1539 30.7529 73.3439 30.4244 73.464 30.0686C73.5895 29.7015 73.6525 29.316 73.6503 28.9283Z" fill="white"/>
<path d="M97.7942 41.2922C97.7985 41.3759 97.7826 41.4595 97.7479 41.5359C97.7132 41.6123 97.6607 41.6793 97.5947 41.7315C97.4617 41.8381 97.2519 41.9145 96.9653 41.9608C96.545 42.0149 96.1213 42.0381 95.6976 42.0302C95.2604 42.0396 94.8231 42.0164 94.3894 41.9608C94.1169 41.9139 93.9239 41.8375 93.8103 41.7315C93.7522 41.6745 93.7071 41.6058 93.6779 41.53C93.6486 41.4543 93.636 41.3732 93.6408 41.2922V39.8795C92.9317 40.644 92.0806 41.2649 91.1346 41.7078C90.1545 42.1538 89.0871 42.3777 88.0096 42.3631C87.1272 42.3721 86.2486 42.248 85.4036 41.995C84.6514 41.7715 83.9519 41.3998 83.3468 40.9021C82.7636 40.4142 82.3022 39.7983 81.9988 39.1028C81.6792 38.3877 81.5194 37.5531 81.5194 36.599C81.5194 35.5658 81.7224 34.6682 82.1285 33.9062C82.5523 33.1256 83.18 32.4733 83.9453 32.0182C84.7504 31.5239 85.7532 31.1566 86.9538 30.9165C88.1543 30.6764 89.5453 30.5569 91.1266 30.558H92.8648V29.4853C92.8713 28.9935 92.8131 28.5029 92.6918 28.0261C92.5947 27.638 92.4027 27.2797 92.133 26.9832C91.8478 26.6903 91.4896 26.478 91.0949 26.3682C90.5716 26.2245 90.03 26.1576 89.4873 26.1697C88.7293 26.1583 87.9733 26.2509 87.2407 26.4447C86.644 26.6077 86.0598 26.8132 85.4928 27.0597C84.9867 27.2857 84.5641 27.4907 84.2251 27.6746C83.8861 27.8586 83.6098 27.9514 83.3962 27.9531C83.2539 27.9545 83.1159 27.9053 83.0069 27.8143C82.8828 27.706 82.7869 27.5695 82.727 27.4163C82.645 27.2119 82.5881 26.9983 82.5576 26.7803C82.5158 26.504 82.4958 26.225 82.4975 25.9457C82.4885 25.6183 82.522 25.2911 82.5973 24.9722C82.6667 24.7284 82.7973 24.5062 82.9769 24.3265C83.1628 24.1338 83.4889 23.9218 83.955 23.6904C84.4835 23.4337 85.031 23.2176 85.5925 23.0438C86.2629 22.8349 86.9469 22.6723 87.6397 22.5571C88.3951 22.4299 89.1599 22.3667 89.9261 22.3682C91.3244 22.3682 92.5194 22.5041 93.511 22.7758C94.5027 23.0476 95.3183 23.4655 95.9581 24.0295C96.6122 24.6165 97.095 25.3683 97.3555 26.2057C97.6497 27.0942 97.7969 28.1485 97.7969 29.3685L97.7942 41.2922ZM92.8622 33.6997H90.9448C90.2482 33.6882 89.5522 33.747 88.8676 33.8755C88.2956 33.9926 87.8298 34.1715 87.4702 34.4123C87.134 34.6248 86.8614 34.9234 86.681 35.2767C86.5087 35.6398 86.4232 36.0376 86.4312 36.4391C86.4312 37.1817 86.6666 37.7648 87.1374 38.1883C87.6082 38.6117 88.2638 38.8238 89.1042 38.8243C89.7906 38.8294 90.4648 38.6435 91.0507 38.2875C91.6434 37.9303 92.246 37.4069 92.8586 36.7176L92.8622 33.6997Z" fill="white"/>
<path d="M113.431 25.1523C113.431 25.6296 113.417 26.0206 113.391 26.3252C113.376 26.567 113.336 26.8067 113.271 27.0403C113.239 27.178 113.166 27.3029 113.062 27.3988C112.966 27.4681 112.849 27.5033 112.731 27.4989C112.608 27.4961 112.486 27.4723 112.371 27.4286C112.238 27.3829 112.088 27.3329 111.922 27.2802C111.756 27.2274 111.569 27.1774 111.372 27.1308C111.156 27.0826 110.935 27.0593 110.714 27.0614C110.426 27.063 110.141 27.1202 109.875 27.2301C109.561 27.3632 109.269 27.5408 109.006 27.7572C108.661 28.0414 108.346 28.3612 108.068 28.7113C107.69 29.1806 107.339 29.6717 107.019 30.182V41.2307C107.022 41.3583 106.98 41.4829 106.899 41.5821C106.788 41.701 106.647 41.7871 106.49 41.8307C106.24 41.9079 105.982 41.9576 105.722 41.9792C104.911 42.046 104.096 42.046 103.285 41.9792C103.024 41.9577 102.766 41.9079 102.516 41.8307C102.359 41.7868 102.218 41.7008 102.107 41.5821C102.026 41.4826 101.984 41.3582 101.987 41.2307V23.5033C101.983 23.3788 102.018 23.2562 102.086 23.1518C102.178 23.0347 102.304 22.948 102.446 22.9032C102.663 22.8272 102.887 22.777 103.116 22.7538C103.457 22.7177 103.8 22.7013 104.143 22.7047C104.497 22.7012 104.851 22.7176 105.202 22.7538C105.425 22.7737 105.644 22.824 105.852 22.9032C105.983 22.9533 106.098 23.0396 106.181 23.1518C106.25 23.2562 106.284 23.3788 106.281 23.5033V25.7093C106.68 25.1321 107.12 24.585 107.6 24.0726C107.956 23.6913 108.351 23.3483 108.779 23.049C109.119 22.8123 109.497 22.6341 109.896 22.5219C110.261 22.4236 110.637 22.3734 111.015 22.3726C111.191 22.3726 111.374 22.3831 111.574 22.4024C111.782 22.4242 111.988 22.4574 112.192 22.5017C112.382 22.542 112.569 22.5951 112.751 22.6607C112.879 22.702 112.999 22.766 113.104 22.8496C113.173 22.9101 113.227 22.9848 113.264 23.0684C113.304 23.1744 113.334 23.2842 113.352 23.3961C113.386 23.6034 113.406 23.8126 113.412 24.0225C113.425 24.2989 113.431 24.6755 113.431 25.1523Z" fill="white"/>
<path d="M121.117 17.5008C121.117 18.5076 120.911 19.2032 120.499 19.5874C120.087 19.9716 119.322 20.1637 118.204 20.1637C117.072 20.1637 116.31 19.9783 115.918 19.6076C115.525 19.2368 115.328 18.5677 115.328 17.6001C115.328 16.5933 115.531 15.8945 115.937 15.5039C116.343 15.1132 117.112 14.9176 118.244 14.917C119.362 14.917 120.121 15.1059 120.52 15.4837C120.92 15.8614 121.119 16.5338 121.117 17.5008ZM120.738 41.2305C120.741 41.358 120.699 41.4825 120.618 41.5819C120.507 41.7006 120.366 41.7866 120.209 41.8306C119.959 41.9077 119.701 41.9574 119.44 41.979C118.629 42.0458 117.815 42.0458 117.004 41.979C116.743 41.9576 116.485 41.9078 116.235 41.8306C116.078 41.7869 115.937 41.7008 115.826 41.5819C115.745 41.4827 115.703 41.3581 115.706 41.2305V23.5452C115.703 23.4176 115.745 23.2931 115.826 23.1938C115.937 23.0736 116.079 22.9846 116.235 22.9355C116.484 22.8498 116.742 22.7932 117.004 22.7669C117.814 22.6872 118.63 22.6872 119.44 22.7669C119.702 22.7934 119.96 22.85 120.209 22.9355C120.366 22.9848 120.507 23.0738 120.618 23.1938C120.699 23.2933 120.741 23.4177 120.738 23.5452V41.2305Z" fill="white"/>
<path d="M141.951 41.2305C141.954 41.3579 141.911 41.4823 141.831 41.5819C141.723 41.6991 141.585 41.785 141.431 41.8305C141.182 41.909 140.924 41.9589 140.663 41.979C140.337 42.0124 139.934 42.0291 139.455 42.0291C138.962 42.0291 138.553 42.0124 138.227 41.979C137.966 41.9589 137.708 41.909 137.458 41.8305C137.305 41.7853 137.166 41.6993 137.058 41.5819C136.978 41.4824 136.935 41.358 136.938 41.2305V31.1148C136.938 30.2539 136.875 29.578 136.749 29.0871C136.64 28.6382 136.454 28.2114 136.199 27.8255C135.965 27.4794 135.646 27.1987 135.271 27.0102C134.859 26.8115 134.405 26.7128 133.947 26.7221C133.308 26.7221 132.663 26.954 132.011 27.4179C131.358 27.8818 130.68 28.5577 129.974 29.4456V41.2305C129.977 41.358 129.934 41.4824 129.854 41.5819C129.743 41.7006 129.601 41.7866 129.444 41.8305C129.194 41.9076 128.936 41.9574 128.675 41.979C127.865 42.0458 127.05 42.0458 126.239 41.979C125.978 41.9574 125.72 41.9076 125.47 41.8305C125.313 41.7867 125.172 41.7007 125.061 41.5819C124.981 41.4827 124.938 41.3581 124.941 41.2305V23.5031C124.938 23.3786 124.973 23.256 125.041 23.1516C125.133 23.0343 125.258 22.9476 125.4 22.903C125.614 22.828 125.835 22.7782 126.061 22.7545C126.402 22.7184 126.746 22.702 127.089 22.7053C127.443 22.7019 127.796 22.7183 128.148 22.7545C128.371 22.7742 128.589 22.8245 128.797 22.9039C128.929 22.954 129.043 23.0402 129.127 23.1525C129.196 23.2569 129.23 23.3794 129.227 23.5039V25.551C130.211 24.4908 131.212 23.6958 132.229 23.1657C133.209 22.6453 134.303 22.3722 135.414 22.3706C136.625 22.3706 137.647 22.5695 138.479 22.9671C139.275 23.3348 139.967 23.8911 140.496 24.5872C141.024 25.3029 141.401 26.1175 141.604 26.9821C141.83 27.8958 141.943 28.9955 141.943 30.2811L141.951 41.2305Z" fill="white"/>
<path d="M168 0L166.631 6.81229L159.783 13.6237V17.7107L154.309 21.7986C154.336 21.7986 154.493 21.4083 154.78 20.6275C155.091 19.7424 155.32 18.8308 155.464 17.904C155.635 16.8634 155.516 15.7962 155.122 14.8177L146.1 21.7986L152.985 12.985C152.586 12.8433 152.023 12.7938 151.296 12.8365C150.568 12.8793 149.954 12.9217 149.454 12.9639C148.893 13.0159 148.336 13.1013 147.786 13.2196C147.172 13.3467 146.766 13.4389 146.567 13.4963C146.367 13.5537 146.21 13.5962 146.096 13.6237L150.203 8.17668H154.309L161.154 1.36527L168 0Z" fill="#FFC807"/>
</svg>
