<svg width="308" height="88" viewBox="0 0 308 88" fill="none" xmlns="http://www.w3.org/2000/svg">
<g clip-path="url(#clip0)">
<path d="M36.2526 32.8214C36.2577 33.4097 36.2274 33.9979 36.1619 34.5828C36.1208 34.9835 36.0284 35.3776 35.8868 35.756C35.7947 36.0101 35.637 36.237 35.4288 36.4149C35.2593 36.5523 35.0458 36.628 34.8251 36.6288H22.9556V73.7343C22.956 73.9682 22.8718 74.1947 22.7177 74.3744C22.5046 74.5971 22.2316 74.7572 21.9295 74.8367C21.4463 74.9793 20.9497 75.0747 20.4471 75.1214C19.6751 75.1997 18.8991 75.2354 18.123 75.2283C17.3463 75.2354 16.5699 75.1997 15.7973 75.1214C15.2947 75.0745 14.7981 74.9792 14.3149 74.8367C14.0129 74.758 13.7402 74.5977 13.5283 74.3744C13.373 74.1954 13.2886 73.9684 13.2904 73.7343V36.6288H1.42737C1.20131 36.6334 0.981346 36.5573 0.809136 36.4149C0.610326 36.2326 0.459373 36.0067 0.368925 35.756C0.226081 35.3778 0.133092 34.9836 0.0921752 34.5828C0.0252242 33.998 -0.00558107 33.4098 -7.47709e-05 32.8214C-0.00572842 32.2157 0.0250742 31.6103 0.0921752 31.0081C0.131031 30.6011 0.222938 30.2005 0.365688 29.816C0.453753 29.5689 0.606591 29.3483 0.809136 29.176C0.986696 29.0426 1.2063 28.9732 1.43061 28.9794H34.817C35.0349 28.979 35.247 29.0481 35.4207 29.176C35.6314 29.344 35.7899 29.5656 35.8787 29.816C36.0213 30.2007 36.1138 30.6012 36.1538 31.0081C36.2222 31.6102 36.2552 32.2156 36.2526 32.8214Z" fill="black"/>
<path d="M72.8289 57.6179C72.8289 60.3208 72.4626 62.7872 71.73 65.0173C71.0558 67.1478 69.9195 69.1132 68.3977 70.7811C66.8539 72.432 64.9355 73.7108 62.7947 74.5161C60.5494 75.3937 57.926 75.8325 54.9243 75.8325C52.0187 75.8325 49.4924 75.4414 47.3453 74.6593C45.1982 73.8771 43.4179 72.7385 42.0045 71.2434C40.5814 69.7494 39.5272 67.9141 38.8421 65.7375C38.157 63.561 37.8155 61.0704 37.8176 58.2658C37.8176 55.5619 38.1899 53.0896 38.9343 50.8491C39.6141 48.7172 40.7565 46.7517 42.2845 45.0853C43.8278 43.4444 45.7388 42.1702 47.8696 41.3612C50.1031 40.4858 52.7211 40.047 55.7238 40.0449C58.651 40.0449 61.1892 40.4307 63.3385 41.2024C65.4878 41.9741 67.2632 43.1064 68.6647 44.5994C70.0674 46.0934 71.1107 47.9313 71.7948 50.1131C72.4788 52.2949 72.8235 54.7965 72.8289 57.6179ZM63.3466 57.9733C63.3558 56.5241 63.2252 55.0772 62.9566 53.6516C62.7421 52.4406 62.3034 51.2774 61.6618 50.2185C61.0725 49.2654 60.2352 48.48 59.2342 47.9413C58.2211 47.3971 56.9457 47.1245 55.4082 47.1235C54.0412 47.1235 52.8452 47.3667 51.8202 47.8532C50.7991 48.3356 49.9275 49.0719 49.2939 49.9873C48.594 51.0177 48.0917 52.1627 47.8114 53.367C47.4583 54.8444 47.2877 56.3575 47.3032 57.8742C47.2918 59.324 47.4262 60.7715 47.7046 62.1959C47.9298 63.4041 48.3678 64.5655 48.9993 65.629C49.5782 66.5858 50.4184 67.368 51.4269 67.8889C52.4519 68.4215 53.7208 68.6884 55.2335 68.6894C56.6253 68.6894 57.8337 68.4462 58.8587 67.9597C59.8761 67.4799 60.747 66.7502 61.3851 65.8429C62.0866 64.8216 62.5835 63.6809 62.8497 62.4805C63.1894 61.0012 63.3534 59.4889 63.3385 57.9733H63.3466Z" fill="black"/>
<path d="M111.629 57.6179C111.629 60.3208 111.263 62.7872 110.53 65.0173C109.856 67.1477 108.721 69.1131 107.199 70.7811C105.656 72.4315 103.738 73.7102 101.598 74.5161C99.3515 75.3937 96.7275 75.8325 93.7259 75.8325C90.8203 75.8325 88.2945 75.4414 86.1485 74.6593C84.0024 73.8771 82.2222 72.7385 80.8077 71.2434C79.3889 69.7494 78.338 67.9141 77.655 65.7375C76.972 63.561 76.63 61.0704 76.6289 58.2658C76.6289 55.5619 77.0011 53.0896 77.7456 50.8491C78.4261 48.7175 79.5684 46.7521 81.0957 45.0853C82.6391 43.4451 84.5494 42.171 86.6793 41.3612C88.9127 40.4858 91.5302 40.047 94.5319 40.0449C97.4612 40.0449 99.9968 40.4307 102.138 41.2024C104.28 41.9741 106.056 43.1064 107.466 44.5994C108.869 46.0934 109.912 47.9313 110.596 50.1131C111.28 52.2949 111.625 54.7965 111.629 57.6179ZM102.147 57.9733C102.157 56.5243 102.029 55.0775 101.763 53.6516C101.547 52.441 101.108 51.278 100.468 50.2185C99.8787 49.2655 99.0415 48.4802 98.0406 47.9413C97.0275 47.3971 95.7522 47.1245 94.2147 47.1235C92.8487 47.1235 91.6532 47.3667 90.6282 47.8532C89.6069 48.3352 88.7352 49.0715 88.1019 49.9873C87.4008 51.0173 86.898 52.1624 86.6178 53.367C86.2736 54.8434 86.1107 56.3542 86.1323 57.8679C86.1213 59.3178 86.2563 60.7652 86.5353 62.1896C86.7605 63.3978 87.1985 64.5592 87.83 65.6227C88.4093 66.5791 89.2495 67.3612 90.2576 67.8826C91.2837 68.4153 92.5531 68.6821 94.0658 68.6831C95.4565 68.6831 96.6644 68.4399 97.6894 67.9534C98.7071 67.474 99.5781 66.7443 100.216 65.8366C100.917 64.8153 101.414 63.6746 101.68 62.4743C102.012 60.9961 102.168 59.486 102.147 57.9733Z" fill="black"/>
<path d="M146.851 44.2771C146.851 45.4157 146.716 46.2576 146.448 46.8028C146.179 47.3501 145.849 47.6222 145.459 47.6222H141.612C142.139 48.1772 142.533 48.8397 142.764 49.5613C142.998 50.2924 143.115 51.054 143.112 51.8196C143.112 53.6691 142.795 55.3114 142.16 56.7468C141.554 58.1455 140.62 59.3877 139.433 60.3749C138.177 61.3972 136.719 62.1603 135.149 62.6175C133.339 63.1464 131.456 63.4041 129.566 63.3818C128.551 63.3868 127.541 63.2609 126.56 63.0075C125.609 62.7591 124.877 62.4686 124.364 62.1363C124.054 62.4685 123.79 62.8386 123.578 63.2372C123.342 63.6762 123.223 64.1653 123.23 64.6604C123.23 65.3492 123.541 65.9128 124.164 66.351C124.786 66.7893 125.658 67.0325 126.781 67.0807L134.725 67.3654C136.406 67.4088 138.074 67.6657 139.686 68.1297C141.022 68.5082 142.268 69.1382 143.353 69.9839C144.323 70.7586 145.098 71.7381 145.619 72.8477C146.161 74.0467 146.429 75.3457 146.405 76.6551C146.412 78.1916 146.049 79.7083 145.344 81.0837C144.596 82.5202 143.504 83.7608 142.159 84.7009C140.743 85.7199 138.968 86.5262 136.833 87.1196C134.697 87.713 132.202 88.0097 129.346 88.0097C126.562 88.0097 124.188 87.7964 122.225 87.3697C120.261 86.943 118.65 86.3501 117.392 85.591C116.135 84.8319 115.218 83.9245 114.641 82.8687C114.064 81.7989 113.769 80.607 113.781 79.3994C113.779 78.6386 113.886 77.8812 114.099 77.1489C114.309 76.4312 114.617 75.7437 115.013 75.1045C115.434 74.4295 115.932 73.8028 116.497 73.2361C117.118 72.6131 117.791 72.0418 118.51 71.5282C117.51 71.0275 116.673 70.267 116.091 69.3313C115.509 68.3957 115.206 67.3215 115.215 66.2284C115.197 64.8918 115.538 63.5738 116.203 62.4036C116.877 61.2363 117.744 60.1844 118.769 59.2898C117.895 58.4309 117.199 57.4164 116.719 56.3017C116.207 55.1411 115.951 53.6942 115.95 51.9612C115.95 50.1117 116.286 48.4578 116.957 46.9994C117.6 45.5797 118.558 44.3159 119.763 43.2989C121.018 42.2586 122.475 41.4726 124.047 40.9871C125.822 40.4365 127.676 40.1662 129.538 40.1866C130.524 40.1845 131.508 40.2439 132.485 40.3643C133.368 40.4725 134.243 40.6391 135.102 40.8629H145.46C145.875 40.8629 146.211 41.1239 146.467 41.6492C146.723 42.1745 146.851 43.0442 146.851 44.2771ZM137.185 77.1143C137.185 76.047 136.746 75.2287 135.866 74.6594C134.987 74.0901 133.779 73.7819 132.243 73.7347L125.69 73.557C125.137 73.9357 124.628 74.3706 124.17 74.8544C123.827 75.223 123.52 75.6221 123.254 76.0465C123.039 76.386 122.884 76.7581 122.796 77.1474C122.723 77.51 122.687 77.8787 122.688 78.2482C122.688 79.434 123.304 80.3351 124.536 80.9516C125.768 81.5681 127.507 81.8764 129.754 81.8764C131.143 81.8764 132.314 81.7401 133.267 81.4675C134.1 81.2508 134.882 80.8826 135.573 80.3823C136.113 79.9885 136.542 79.468 136.818 78.8694C137.062 78.3147 137.187 77.7175 137.185 77.1143ZM135.025 51.7834C135.025 50.0776 134.539 48.7498 133.568 47.7999C132.597 46.85 131.218 46.3756 129.432 46.3766C128.615 46.3598 127.804 46.5115 127.052 46.8217C126.399 47.096 125.817 47.5093 125.35 48.0311C124.892 48.5501 124.549 49.1557 124.343 49.8097C124.124 50.495 124.015 51.209 124.02 51.9266C124.02 53.5401 124.505 54.815 125.476 55.7513C126.447 56.6875 127.802 57.1557 129.54 57.1557C130.367 57.1741 131.189 57.0291 131.956 56.7295C132.607 56.4667 133.189 56.0652 133.659 55.5547C134.115 55.0496 134.463 54.4616 134.683 53.8248C134.913 53.1675 135.029 52.4776 135.025 51.7834Z" fill="black"/>
<path d="M179.289 73.9153C179.296 74.0652 179.267 74.2147 179.204 74.3514C179.14 74.4882 179.044 74.6082 178.923 74.7016C178.679 74.8924 178.294 75.0292 177.769 75.1121C176.998 75.2089 176.222 75.2505 175.445 75.2363C174.643 75.2532 173.841 75.2117 173.046 75.1121C172.547 75.0282 172.193 74.8914 171.985 74.7016C171.878 74.5996 171.795 74.4766 171.742 74.341C171.688 74.2054 171.665 74.0603 171.674 73.9153V71.3864C170.374 72.755 168.814 73.8664 167.079 74.6591C165.282 75.4576 163.326 75.8583 161.35 75.8323C159.732 75.8483 158.122 75.6262 156.572 75.1734C155.193 74.7732 153.911 74.1079 152.802 73.217C151.732 72.3436 150.887 71.2411 150.33 69.9962C149.744 68.716 149.451 67.222 149.451 65.5141C149.451 63.6646 149.824 62.0579 150.568 60.6939C151.345 59.2965 152.496 58.1289 153.899 57.3142C155.375 56.4293 157.213 55.772 159.414 55.3421C161.615 54.9122 164.166 54.6984 167.065 54.7005H170.251V52.7802C170.263 51.8998 170.157 51.0216 169.934 50.168C169.756 49.4733 169.404 48.8321 168.91 48.3013C168.387 47.7769 167.73 47.397 167.006 47.2004C166.047 46.9431 165.054 46.8233 164.059 46.845C162.67 46.8247 161.284 46.9903 159.94 47.3372C158.846 47.629 157.776 47.9969 156.736 48.4381C155.808 48.8428 155.033 49.2098 154.412 49.539C153.79 49.8682 153.284 50.0344 152.892 50.0375C152.631 50.04 152.378 49.9519 152.178 49.789C151.951 49.595 151.775 49.3507 151.665 49.0766C151.515 48.7106 151.411 48.3283 151.355 47.938C151.278 47.4435 151.241 46.944 151.245 46.444C151.228 45.8579 151.289 45.2722 151.428 44.7015C151.555 44.265 151.794 43.8672 152.123 43.5456C152.464 43.2006 153.062 42.8211 153.917 42.4069C154.886 41.9475 155.889 41.5605 156.919 41.2495C158.148 40.8756 159.402 40.5844 160.672 40.3782C162.057 40.1506 163.459 40.0375 164.864 40.0401C167.427 40.0401 169.618 40.2833 171.436 40.7698C173.254 41.2563 174.749 42.0043 175.922 43.014C177.122 44.0647 178.007 45.4105 178.484 46.9095C179.024 48.5 179.293 50.3872 179.293 52.5711L179.289 73.9153ZM170.246 60.3243H166.731C165.454 60.3036 164.178 60.409 162.923 60.6388C161.874 60.8485 161.02 61.1688 160.361 61.5997C159.745 61.9802 159.245 62.5147 158.914 63.1472C158.598 63.7972 158.442 64.5093 158.456 65.2279C158.456 66.5573 158.888 67.601 159.751 68.3591C160.614 69.1171 161.816 69.4966 163.357 69.4977C164.615 69.5067 165.851 69.1739 166.925 68.5368C168.012 67.8972 169.117 66.9604 170.24 65.7264L170.246 60.3243Z" fill="black"/>
<path d="M207.956 45.0238C207.956 45.8782 207.931 46.5781 207.883 47.1233C207.855 47.5562 207.781 47.9852 207.663 48.4034C207.604 48.6499 207.47 48.8735 207.279 49.0451C207.103 49.1692 206.889 49.2323 206.672 49.2244C206.446 49.2193 206.223 49.1768 206.012 49.0985C205.769 49.0168 205.494 48.9271 205.19 48.8328C204.885 48.7384 204.542 48.6488 204.181 48.5654C203.785 48.4791 203.38 48.4374 202.974 48.4412C202.446 48.444 201.924 48.5465 201.437 48.7431C200.862 48.9815 200.325 49.2993 199.844 49.6867C199.21 50.1955 198.634 50.7679 198.124 51.3946C197.43 52.2347 196.788 53.1138 196.201 54.0273V73.8051C196.207 74.0335 196.129 74.2565 195.981 74.4342C195.778 74.6471 195.518 74.8011 195.23 74.8792C194.772 75.0173 194.3 75.1064 193.822 75.145C192.336 75.2645 190.841 75.2645 189.355 75.145C188.877 75.1066 188.404 75.0174 187.945 74.8792C187.658 74.8006 187.398 74.6467 187.194 74.4342C187.047 74.2561 186.969 74.0334 186.974 73.8051V42.0719C186.968 41.849 187.032 41.6297 187.157 41.4428C187.326 41.2331 187.556 41.078 187.818 40.9977C188.214 40.8616 188.626 40.7719 189.044 40.7304C189.67 40.6657 190.299 40.6363 190.928 40.6423C191.577 40.6361 192.225 40.6655 192.87 40.7304C193.278 40.7659 193.679 40.8559 194.061 40.9977C194.302 41.0875 194.511 41.2419 194.665 41.4428C194.79 41.6297 194.854 41.849 194.848 42.0719V46.0208C195.578 44.9876 196.387 44.0083 197.266 43.091C197.918 42.4085 198.642 41.7945 199.427 41.2588C200.05 40.835 200.743 40.5161 201.475 40.3152C202.144 40.1392 202.833 40.0493 203.526 40.0479C203.85 40.0479 204.185 40.0667 204.552 40.1013C204.933 40.1403 205.311 40.1996 205.685 40.279C206.033 40.3511 206.375 40.4462 206.709 40.5637C206.944 40.6375 207.164 40.7521 207.357 40.9018C207.483 41.0101 207.582 41.1438 207.65 41.2934C207.724 41.4832 207.778 41.6797 207.812 41.88C207.873 42.2511 207.91 42.6256 207.922 43.0013C207.945 43.4962 207.957 44.1703 207.956 45.0238Z" fill="black"/>
<path d="M222.047 31.3276C222.047 33.1299 221.67 34.3749 220.914 35.0627C220.159 35.7505 218.756 36.0943 216.706 36.0943C214.632 36.0943 213.234 35.7625 212.515 35.0988C211.795 34.4352 211.435 33.2373 211.434 31.5053C211.434 29.703 211.806 28.4522 212.55 27.7529C213.295 27.0536 214.704 26.7034 216.779 26.7024C218.829 26.7024 220.221 27.0405 220.953 27.7168C221.686 28.393 222.05 29.5966 222.047 31.3276ZM221.353 73.8053C221.358 74.0336 221.28 74.2563 221.133 74.4343C220.929 74.6468 220.669 74.8008 220.382 74.8794C219.923 75.0174 219.451 75.1066 218.972 75.1452C217.486 75.2647 215.993 75.2647 214.507 75.1452C214.029 75.1069 213.556 75.0177 213.097 74.8794C212.81 74.8013 212.55 74.6472 212.346 74.4343C212.198 74.2567 212.12 74.0337 212.126 73.8053V42.1475C212.12 41.9191 212.198 41.6961 212.346 41.5185C212.551 41.3033 212.81 41.1439 213.097 41.0561C213.554 40.9027 214.027 40.8013 214.507 40.7542C215.992 40.6116 217.487 40.6116 218.972 40.7542C219.452 40.8017 219.926 40.903 220.382 41.0561C220.669 41.1443 220.928 41.3036 221.133 41.5185C221.28 41.6965 221.358 41.9192 221.353 42.1475V73.8053Z" fill="black"/>
<path d="M260.242 73.8053C260.248 74.0334 260.17 74.2562 260.023 74.4344C259.825 74.6442 259.572 74.798 259.29 74.8794C258.832 75.02 258.359 75.1092 257.881 75.1452C257.283 75.205 256.545 75.2349 255.667 75.2349C254.764 75.2349 254.013 75.205 253.415 75.1452C252.937 75.1092 252.464 75.02 252.006 74.8794C251.724 74.7984 251.471 74.6446 251.273 74.4344C251.126 74.2563 251.048 74.0336 251.053 73.8053V55.6977C251.053 54.1564 250.937 52.9465 250.706 52.0679C250.506 51.2644 250.165 50.5004 249.698 49.8096C249.269 49.1899 248.683 48.6875 247.997 48.3502C247.241 47.9945 246.409 47.8177 245.569 47.8343C244.398 47.8343 243.214 48.2495 242.019 49.0799C240.823 49.9102 239.579 51.1202 238.285 52.7096V73.8053C238.29 74.0336 238.212 74.2563 238.065 74.4344C237.861 74.6469 237.601 74.8009 237.314 74.8794C236.855 75.0175 236.383 75.1066 235.904 75.1452C234.418 75.2647 232.924 75.2647 231.437 75.1452C230.959 75.1066 230.486 75.0175 230.028 74.8794C229.74 74.801 229.481 74.647 229.278 74.4344C229.13 74.2567 229.052 74.0337 229.058 73.8053V42.0721C229.052 41.8492 229.116 41.6299 229.241 41.443C229.409 41.233 229.639 41.0777 229.9 40.998C230.291 40.8638 230.698 40.7746 231.11 40.7322C231.737 40.6675 232.366 40.6381 232.996 40.6441C233.644 40.6379 234.293 40.6673 234.938 40.7322C235.345 40.7675 235.746 40.8574 236.128 40.9995C236.369 41.0893 236.578 41.2436 236.733 41.4446C236.858 41.6315 236.922 41.8508 236.916 42.0737V45.738C238.72 43.8403 240.554 42.417 242.418 41.4682C244.216 40.5366 246.221 40.0479 248.258 40.0449C250.478 40.0449 252.352 40.4009 253.878 41.1128C255.336 41.7709 256.605 42.7667 257.575 44.0128C258.543 45.2939 259.235 46.7522 259.608 48.2998C260.022 49.9354 260.229 51.9039 260.229 54.2052L260.242 73.8053Z" fill="black"/>
<path d="M308 0L305.49 12.1944L292.934 24.3873V31.7033L282.9 39.0209C282.949 39.0209 283.237 38.3222 283.762 36.9246C284.333 35.3402 284.753 33.7083 285.017 32.0493C285.329 30.1865 285.112 28.2762 284.389 26.5246L267.849 39.0209L280.472 23.244C279.741 22.9903 278.708 22.9017 277.375 22.9782C276.041 23.0547 274.916 23.1307 273.999 23.2062C272.97 23.2993 271.949 23.4521 270.94 23.6639C269.815 23.8914 269.07 24.0565 268.705 24.1593C268.339 24.262 268.051 24.338 267.842 24.3873L275.371 14.6368H282.9L295.447 2.44392L308 0Z" fill="#FFC807"/>
</g>
<defs>
<clipPath id="clip0">
<rect width="308" height="88" fill="white"/>
</clipPath>
</defs>
</svg>
